<?xml version="1.0" encoding="utf-8"?>
<!-- Generator: Adobe Illustrator 24.2.1, SVG Export Plug-In . SVG Version: 6.00 Build 0)  -->
<svg version="1.1" id="Layer_1" xmlns="http://www.w3.org/2000/svg" xmlns:xlink="http://www.w3.org/1999/xlink" x="0px" y="0px"
	 viewBox="0 0 1073 206" style="enable-background:new 0 0 1073 206;" xml:space="preserve">
<style type="text/css">
	.st0{fill:#A4A4A4;}
</style>
<g>
	<g>
		<path class="st0" d="M852,206c-1.9-0.5-3.8-1-5.7-1.4c-19.3-4.3-30.1-18.7-27.6-38.4c1.8-14.2,4.9-28.2,7.9-42.1
			c8.3-38.7,17-77.3,25.5-116c0.4-1.9,0.9-3.8,1.4-6c14.7,0,29.3,0,44.2,0c0,1.2,0.2,2.4,0,3.4c-9,41.3-18.1,82.5-27.2,123.8
			c-1.4,6.3-2.8,12.7-4.2,19c-0.3,1.5-0.5,3-0.5,4.5c0,4.4,2.1,6.7,6.5,7.3c8.1,1.1,13.6-2.5,15.6-10.5c1.8-7.3,3.3-14.6,4.9-21.9
			c8.5-38.8,17-77.7,25.5-116.5c0.6-2.9,1.4-5.8,2.1-9c14.8,0,29.5,0,44.8,0c-1.2,5.4-2.2,10.4-3.3,15.4
			c-10,45.8-20.1,91.6-30.1,137.4c-3.6,16.2-11.3,29.7-25,39.6c-7.9,5.7-16.6,9.1-26.1,10.4c-1.6,0.2-3.2,0.7-4.8,1.1
			C868,206,860,206,852,206z"/>
		<path class="st0" d="M370,0c5.5,1,11.1,2,16.6,3c1.9,0.4,3.9,0.8,6.3,1.4c-3.4,15.5-6.8,30.9-10.1,46c-7.5-1.3-14.4-2.7-21.5-3.8
			c-18.2-2.8-33.2,4.7-41.7,21.4c-8.2,16.2-13.1,33.4-15.8,51.3c-1.4,9.3-2.2,18.6,0.1,27.8c0.8,3.3,2.4,6.7,4.7,9.1
			c4.8,5.2,12.3,3.2,14-3.6c2.7-11,4.9-22,7.5-33.7c-4.3,0-8.2,0-13,0c3.3-15.2,6.5-29.7,9.7-44.5c18.9,0,37.4,0,56.5,0
			c-1.2,5.9-2.4,11.5-3.6,17.2c-7.6,34.8-15.3,69.5-22.8,104.3c-0.6,2.9-2.2,4.1-4.8,4.9c-12.8,3.6-25.9,4.7-39.1,4.1
			c-7.8-0.4-15.6-1.2-23.2-3c-17.1-4.2-27.4-15.6-31.8-32.4c-3.7-14.4-3.6-29-1.8-43.7c2.9-23.4,8.8-46,18.7-67.5
			c8.2-17.9,19.8-33.1,36.4-44.1c11-7.3,23.2-11.4,36.3-13c1.4-0.2,2.8-0.7,4.3-1C358,0,364,0,370,0z"/>
		<path class="st0" d="M0,201c2-8.2,4.1-16.4,5.9-24.7c7.9-35.7,15.6-71.5,23.5-107.2c4.5-20.6,9.1-41.3,13.7-61.9
			C43.5,5.6,43.9,4,44.3,2c28.6,0,57.2,0,86.3,0c-3.2,14.5-6.2,28.5-9.4,43c-13.8,0-27.2,0-40.9,0c-2.2,10.2-4.4,20.1-6.7,30.6
			c13.8,0,26.9,0,40.8,0c-3.3,15.1-6.4,29.5-9.7,44.3c-13.6,0-27.1,0-40.9,0c-6.1,27.8-12.1,55.2-18.3,83c-15.3,0-30.5,0-45.6,0
			C0,202.3,0,201.7,0,201z"/>
		<path class="st0" d="M744,0c2.8,0.4,5.5,0.8,8.3,1.2c1.8,0.3,3.5,0.7,5.6,1.1c-3.4,15.6-6.8,31-10.3,46.8
			c-4.3-0.6-8.2-1.2-12.1-1.7c-13.8-2-24.3,3-29.4,15.9c-4.2,10.6-7.1,21.8-9.8,32.9c-2.8,11.6-4.8,23.4-6.8,35.2
			c-0.6,3.6-0.6,7.3-0.1,10.9c1.1,7.7,5.5,12,13.2,12.6c6.4,0.6,13,0.4,19.4,0.5c1.1,0,2.3,0,3.9,0c-0.1,1.5,0,3-0.3,4.3
			c-2.9,13.2-5.9,26.3-8.7,39.5c-0.5,2.4-1.2,4.1-3.9,4.3c-14.8,0.9-29.6,1.5-44-3.5c-15.4-5.4-23.3-16.8-26-32.5
			c-2-11.5-0.5-22.9,1.2-34.3c3.6-24.7,8.8-49.1,16.1-73C664,48,668.4,36,676.5,25.7c10.6-13.5,23.9-22.4,41.2-24.8
			c0.8-0.1,1.5-0.6,2.2-0.9C728,0,736,0,744,0z"/>
		<path class="st0" d="M473.6,202.8c-15.3,0-30.2,0-45.5,0c6.1-27.9,12.1-55.5,18.3-83.5c-6.1,0-11.9,0-18.2,0
			c-6.1,27.7-12.2,55.5-18.4,83.5c-15.1,0-29.9,0-45.5,0c14.7-66.9,29.3-133.6,44-200.6c15.1,0,30.1,0,45.5,0
			c-5.2,24-10.4,47.6-15.7,71.7c6.2,0,12,0,18.2,0C461.6,50,466.8,26.1,472.1,2c15.2,0,30.1,0,45.5,0
			C502.9,69.2,488.3,135.9,473.6,202.8z"/>
		<path class="st0" d="M549.4,202.8c-15.3,0-30.1,0-45.5,0c11.3-51.6,22.5-102.8,33.9-154.7c-8,0-15.8,0-23.6,0c0-1.6-0.2-2.6,0-3.5
			c2.9-13.2,5.9-26.3,8.6-39.5c0.6-2.8,1.9-3.4,4.4-3.4c28.5,0,57,0,85.4,0c1,0,1.9,0.3,3.4,0.5c-3.4,15.3-6.7,30.3-10,45.7
			c-7.6,0-14.9,0-22.7,0C572.1,99.6,560.8,151,549.4,202.8z"/>
		<path class="st0" d="M780,160.7c12.3,0,24,0,36.3,0c-3.2,14.6-6.2,28.3-9.3,42.1c-27.5,0-54.4,0-81.9,0
			c14.7-67,29.3-133.7,44-200.7c15.1,0,30,0,45.5,0C803.2,54.8,791.7,107.3,780,160.7z"/>
		<path class="st0" d="M151.4,160.8c12.5,0,24.1,0,36.3,0c-3.1,14.3-6.1,27.9-9.1,41.9c-27.1,0-54.1,0-81.8,0
			c1.2-5.8,2.3-11.5,3.5-17.1c10.9-49.4,21.7-98.7,32.6-148.1c2.4-10.7,4.8-21.4,7-32.2c0.5-2.3,1.2-3.6,3.8-3.6
			c13.5,0.1,27,0.1,40.5,0.1c0.5,0,0.9,0.3,1.9,0.7C174.6,55,163.1,107.5,151.4,160.8z"/>
		<path class="st0" d="M274.3,1.8c-14.8,67.5-29.5,134.3-44.1,201c-15.3,0-30.1,0-45.4,0c1.2-5.9,2.3-11.3,3.5-16.8
			c13-59.3,26-118.6,39-177.9c0.3-1.3,0.3-2.7,1-3.9c0.5-1,1.7-2.3,2.6-2.3C245,1.7,259.2,1.8,274.3,1.8z"/>
		<path class="st0" d="M1071.5,21.9c-2.4-7.8-7.3-13.5-14.9-16.4c-4.5-1.7-9.3-3.1-14-3.3c-14.1-0.5-28.3-0.4-42.5-0.5
			c-7.2,0-14.3,0.1-21.5,0c-2.8-0.1-4.5,0.8-4.6,3.8c-0.1,1.1-0.6,2.3-0.8,3.4c-12.6,57.5-25.2,115-37.9,172.5
			c-1.5,7-3,13.9-4.5,21.1c1.2,0.2,2,0.5,2.8,0.5c20,0,40,0.2,60-0.2c23.5-0.5,40.6-11.7,50.7-32.9c4-8.3,6.9-17.3,9.5-26.2
			c1.8-6,2.5-12.4,3-18.7c1.1-12.2-1.4-23.5-10.2-33c13.3-9.6,20-23,23.9-37.9c1-3.7,1.7-7.4,2.5-11.1c0-5.7,0-11.3,0-17
			C1072.5,24.6,1071.9,23.3,1071.5,21.9z M1009.7,129.6c-1,5.7-2.3,11.4-3.7,17c-2.9,11.3-9.1,15.1-21.7,13
			c3-13.6,5.8-26.8,8.8-40.1c0.2-0.8,1-1.8,1.8-2.1C1003.3,114.3,1011.2,120.7,1009.7,129.6z M1020.1,68.4c-4.1,5.7-9.7,7.5-17.1,6
			c2.5-11.2,4.8-21.8,7.2-32.4c9.6-2.4,15.2,2,15,11.5C1024.9,59,1023.3,64,1020.1,68.4z"/>
	</g>
</g>
</svg>
