<?xml version="1.0" encoding="utf-8"?>
<!-- Generator: Adobe Illustrator 24.2.1, SVG Export Plug-In . SVG Version: 6.00 Build 0)  -->
<svg version="1.1" xmlns="http://www.w3.org/2000/svg" xmlns:xlink="http://www.w3.org/1999/xlink" x="0px" y="0px"
	 viewBox="0 0 1583.3 400" style="enable-background:new 0 0 1583.3 400;" xml:space="preserve">
<style type="text/css">
	.st0{display:none;}
	.st1{display:inline;fill:#FFFFFF;}
	.st2{font-family:'AntiqueOliNorD-Reg';}
	.st3{font-size:53.9255px;}
	.st4{fill:#FFFFFF;}
</style>
<g id="Layer_2_copy" class="st0">
	<text transform="matrix(1 0 0 1 593.4639 215.7055)" class="st1 st2 st3">SNEAKERS</text>
</g>
<g id="Layer_1">
	<rect width="1583.3" height="400"/>
</g>
<g id="Layer_2">
	<g>
		<path class="st4" d="M595.9,204.8c8.1,1.2,13.7,1.7,20.1,1.7c1.6,0,2.5-0.5,2.5-1.6c0-0.9-0.6-1.2-2.5-1.2h-3
			c-1.5,0-4.7-0.2-6.8-0.4c-4.5-0.5-7.3-1.7-9.1-4.1c-1.4-1.8-2.1-4.2-2.1-6.9c0-4.1,1.5-7.4,4.3-9.5c3.2-2.4,9.5-3.7,17.9-3.7
			c6.4,0,12.9,0.6,19,1.8v10.6c-2.8-0.5-10.1-1.1-14.5-1.2h-4c-2.5,0-3.5,0.5-3.5,1.6c0,0.9,0.8,1.5,2,1.5l6.5,0.1
			c3.7,0.1,7.2,0.5,9.3,1.3c3.4,1.3,5.7,4.9,5.7,9c0,3.9-2.1,7.6-5.6,9.8c-3.8,2.4-7.8,3.1-16,3.1c-7.3,0-12.2-0.4-20-1.8V204.8z"/>
		<path class="st4" d="M672.7,215.7l-12.5-16.1v16.1h-17.5v-36h18.6l10.2,15v-15H689v36H672.7z"/>
		<path class="st4" d="M696,215.7v-36h41.3v11.5h-22.8v3.3h22.8v8.6h-22.8v3h22.8v9.4H696z"/>
		<path class="st4" d="M773.5,215.7l-1.3-4.6h-12l-1.3,4.6H740l11.5-36h29.3l11.3,36H773.5z M766.3,189.9l-3.9,11.4h7.6L766.3,189.9
			z"/>
		<path class="st4" d="M822.3,215.7l-8.8-11.5v11.5H795v-36h18.5v13.9l8.8-13.9h21.9l-15.1,18.5l14.1,17.5H822.3z"/>
		<path class="st4" d="M847.5,215.7v-36h41.3v11.5H866v3.3h22.8v8.6H866v3h22.8v9.4H847.5z"/>
		<path class="st4" d="M921.4,215.7l-8.8-11.4v11.4H894v-36h34.7c4.4,0,7,0.6,9.1,2.4c2.4,1.8,3.9,4.9,3.9,8.1c0,3.2-1.4,6-3.9,8
			c-2,1.6-3.8,2.2-7.3,2.6l12.4,14.9H921.4z M918.2,196.8c1.9,0,2.6-0.2,3.5-0.6c1.1-0.6,1.7-1.9,1.7-3.4c0-2.4-1.1-3.4-4.1-3.4
			h-6.7v7.4H918.2z"/>
		<path class="st4" d="M946.6,204.8c8.1,1.2,13.7,1.7,20.1,1.7c1.6,0,2.5-0.5,2.5-1.6c0-0.9-0.6-1.2-2.5-1.2h-3
			c-1.5,0-4.7-0.2-6.8-0.4c-4.5-0.5-7.3-1.7-9.1-4.1c-1.4-1.8-2.1-4.2-2.1-6.9c0-4.1,1.5-7.4,4.3-9.5c3.2-2.4,9.5-3.7,17.9-3.7
			c6.4,0,12.9,0.6,19,1.8v10.6c-2.8-0.5-10.1-1.1-14.5-1.2h-4c-2.5,0-3.5,0.5-3.5,1.6c0,0.9,0.8,1.5,2,1.5l6.5,0.1
			c3.7,0.1,7.2,0.5,9.3,1.3c3.4,1.3,5.7,4.9,5.7,9c0,3.9-2.1,7.6-5.6,9.8c-3.8,2.4-7.8,3.1-16,3.1c-7.3,0-12.2-0.4-20-1.8V204.8z"/>
	</g>
</g>
</svg>
