<?xml version="1.0" encoding="utf-8"?>
<!-- Generator: Adobe Illustrator 24.2.1, SVG Export Plug-In . SVG Version: 6.00 Build 0)  -->
<svg version="1.1" id="Layer_1" xmlns="http://www.w3.org/2000/svg" xmlns:xlink="http://www.w3.org/1999/xlink" x="0px" y="0px"
	 viewBox="0 0 246 64.6" style="enable-background:new 0 0 246 64.6;" xml:space="preserve">
<style type="text/css">
	.st0{fill:#43AB49;}
</style>
<g>
	<g>
		<path class="st0" d="M190.8,4.5c5.7,2.5,11.3,5,17,7.6c0.6,0.3,1.1,0.9,1.5,1.4c2.4,3.3,4.7,6.5,7.1,9.8c0.5,0.7,1,1.3,1.8,2.2
			c2.9-4,5.6-7.7,8.5-11.8c-1.8-0.3-3.2-0.6-5.1-1C229,8.3,236.1,4.2,243.3,0c0,5.2,0,10.2,0,15.3c-1.6,0-3,0-4.7,0
			c-4,6-8.1,12.1-12.3,18.3c-1.4-1.1-2.6-2-3.8-2.9c-0.1,0.1-0.3,0.2-0.4,0.3c1.6,2.9,3.7,5.4,5.6,8.1c2,2.8,4,5.7,6.1,8.5
			c2,2.8,4,5.5,6,8.3s3.9,5.5,6.2,8.7c-1.9-0.7-3.2-1.1-4.6-1.7c-4.8-1.8-9.5-3.6-14.3-5.3c-1.2-0.4-2-1.1-2.7-2.2
			C217.6,45.2,210.8,35,204,24.8c-4-6-8-12-12-18c-0.4-0.6-0.8-1.3-1.2-2C190.7,4.7,190.7,4.6,190.8,4.5z"/>
		<path class="st0" d="M190.6,64.1c6.4-9,12.6-17.8,19-26.8c2.4,3.6,4.7,7,7.1,10.5c-1.9,2.9-3.7,5.7-5.5,8.6
			c-0.3,0.4-0.7,0.7-1.1,0.9c-6.1,2.3-12.2,4.5-18.3,6.8C191.5,64.1,191.2,64.1,190.6,64.1z"/>
	</g>
	<path d="M142.8,4.1c3.8,0,7.3,0,11.2,0c0,9.3,0,18.4,0,27.4c0.3,0.1,0.6,0.3,1,0.4c4-4.3,8-8.6,12.2-13.2c4.1,0,8.4,0,13.9,0
		c-5.4,5.6-10.2,10.7-15.1,16c5.2,8.1,10.3,16,15.7,24.4c-4.7,0-8.7,0-13.2,0c-3.2-4.9-6.6-10.2-10.3-16c-1.5,1.4-2.7,2.6-4.2,4
		c0,3.8,0,7.6,0,11.8c-3.9,0-7.4,0-11.3,0C142.8,40.7,142.8,22.7,142.8,4.1z"/>
	<path d="M101,38.7c0.1,12.2-9,21.2-21.6,21.3c-12.5,0.1-22.1-8.8-22.1-20.8C57.2,27.3,66.6,18,79,17.7
		C91.3,17.5,100.9,26.7,101,38.7z M68.8,38.6c-0.1,6.3,4.3,11.1,10.2,11.3C85,50,89.5,45.4,89.5,39c0-6.1-4.8-11.1-10.5-11.2
		C73.4,27.8,68.9,32.5,68.8,38.6z"/>
	<path d="M0,53.5c1.6-2.5,3-4.7,4.6-7.2c5.1,2.3,9.8,5.7,15.5,4.1c0.9-0.3,1.6-1.4,3-2.8c-2.2-1.3-3.7-2.4-5.4-3.1
		c-2.9-1.2-6-1.9-8.9-3.2c-4.5-2-7-5.5-6.9-10.6s2.5-9,7.2-11.1c8.1-3.4,15.5-1.5,23,3c-1.6,2.8-2.9,5.2-4,7.1
		c-4.8-0.8-9.1-1.7-13.4-2.2c-0.7-0.1-1.6,1.3-3.2,2.7c2.4,1.4,4.1,2.5,6,3.4c3,1.4,6.3,2.3,9.2,3.8c4.5,2.2,6.5,6,6,11.1
		c-0.4,5-3,8.3-7.6,10.2C17.6,61.8,7.2,59.7,0,53.5z"/>
	<path d="M139.9,25c-2.2,2.4-4.4,4.8-6.6,7.1c-8.1-5-12.7-5.2-16.6-0.6c-3.5,4.1-3.5,11.1,0.1,15.2c4,4.6,9.2,4.4,16.7-0.7
		c2,2.3,4.1,4.6,6.1,6.9c-5.6,8.5-22.4,9.8-31,1.1c-8.3-8.4-8.1-23.1,0.6-30.9C118.1,15.3,132.5,16,139.9,25z"/>
	<path d="M35.3,8.3c4.1,0,7.6,0,11.4,0c0.2,3.4,0.3,6.5,0.5,9.9c3.1,0.2,5.8,0.3,9,0.5c0,3.2,0,6.2,0,9.6c-2.9,0.1-5.7,0.3-9.1,0.5
		c0.1,6.7-0.8,13.4,0.8,20.6c2.9-0.1,5.3-0.2,8.1-0.4c0,2.5,0,5.2,0,8.5c-4.6,2.9-9.7,3.1-14.9,1.2c-3.9-1.4-5.4-4.8-5.5-8.8
		c-0.2-9.3-0.2-18.6-0.2-28C35.3,17.6,35.3,13.1,35.3,8.3z"/>
</g>
</svg>
