<?xml version="1.0" encoding="utf-8"?>
<!-- Generator: Adobe Illustrator 24.2.1, SVG Export Plug-In . SVG Version: 6.00 Build 0)  -->
<svg version="1.1" id="Layer_1" xmlns="http://www.w3.org/2000/svg" xmlns:xlink="http://www.w3.org/1999/xlink" x="0px" y="0px"
	 viewBox="0 0 1583.3 400" style="enable-background:new 0 0 1583.3 400;" xml:space="preserve">
<style type="text/css">
	.st0{fill:#FFFFFF;}
</style>
<rect y="0" width="1583.3" height="400"/>
<g>
	<path class="st0" d="M595,150c-8.5,2-13.2,2.6-19.4,2.6c-7.5,0-13.2-1.2-17.7-3.7c-5.1-2.9-7.7-7.9-7.7-15.1
		c0-6.4,2.3-11.2,6.6-14.2c4.3-3.1,9.7-4.4,17.7-4.4c7,0,13.3,0.7,19.8,2.2v12.5c-5-1-10.2-1.5-14.8-1.5c-4.2,0-6.8,0.5-8.7,1.8
		c-1.8,1.2-2.9,3.4-2.9,5.8c0,4.4,3.1,7.2,8.1,7.2c0.5,0,1.4,0,2.2-0.1v-9.3H595L595,150L595,150z"/>
	<path class="st0" d="M628.6,151.9l-8.8-11.4v11.4h-18.5v-36h34.7c4.4,0,7,0.6,9.1,2.4c2.4,1.8,3.9,4.9,3.9,8.1c0,3.2-1.4,6-3.9,8
		c-2,1.6-3.8,2.2-7.3,2.6l12.4,14.9H628.6z M625.4,133c1.9,0,2.6-0.2,3.5-0.6c1.1-0.6,1.7-1.9,1.7-3.4c0-2.4-1.1-3.4-4.1-3.4h-6.7
		v7.4L625.4,133L625.4,133z"/>
	<path class="st0" d="M685.8,151.9l-1.3-4.6h-12l-1.3,4.6h-18.9l11.5-36h29.3l11.3,36H685.8z M678.6,126.1l-3.9,11.4h7.6
		L678.6,126.1z"/>
	<path class="st0" d="M707.4,151.9v-36h18.5v36H707.4z"/>
	<path class="st0" d="M733.1,151.9v-36h18.5v23.2h15.7v12.7L733.1,151.9L733.1,151.9z"/>
	<path class="st0" d="M815.9,151.9v-11.2h-9.3v11.2h-18.5v-36h18.5v12.7h9.3V116h18.5v36H815.9z"/>
	<path class="st0" d="M889.7,134.2c0,6.2-2.3,11.4-6.2,14.2c-4.2,3-10.4,4.5-18.7,4.5c-8.2,0-14.5-1.5-18.7-4.5
		c-3.9-2.9-6.2-8-6.2-14.4c0-6.9,2.4-12,6.8-14.9c4.3-2.8,10.3-4.1,17.8-4.1C881.8,114.9,889.7,121.1,889.7,134.2z M858.8,134.1
		c0,5.7,2,8.5,6.2,8.5c4.1,0,6.2-2.9,6.2-8.4c0-4.6-2.1-7-6.2-7C860.9,127.1,858.8,129.6,858.8,134.1z"/>
	<path class="st0" d="M913.6,116v22.1c0,1.7,0.2,2.6,0.5,3.1c0.5,0.8,1.8,1.2,3.2,1.2c1.3,0,2.6-0.5,3.1-1.2
		c0.4-0.5,0.5-1.4,0.5-3.1V116h18.5v21.7c0,6.1-0.9,8.6-4,11c-3.4,2.6-9.7,4-18.1,4c-9,0-15.5-1.6-18.8-4.5
		c-2.7-2.4-3.4-4.7-3.4-10.9V116L913.6,116L913.6,116z"/>
	<path class="st0" d="M946,141c8.1,1.2,13.7,1.7,20.1,1.7c1.6,0,2.5-0.5,2.5-1.6c0-0.9-0.6-1.2-2.5-1.2h-3c-1.5,0-4.7-0.2-6.8-0.4
		c-4.5-0.5-7.3-1.7-9.1-4.1c-1.4-1.8-2.1-4.1-2.1-6.9c0-4.1,1.5-7.4,4.3-9.5c3.2-2.4,9.5-3.7,17.9-3.7c6.4,0,12.9,0.6,19,1.8v10.6
		c-2.8-0.5-10.1-1.1-14.5-1.2h-4c-2.5,0-3.5,0.5-3.5,1.6c0,0.9,0.8,1.5,2,1.5l6.5,0.1c3.7,0.1,7.2,0.5,9.3,1.4
		c3.4,1.3,5.7,4.8,5.7,8.9c0,3.9-2.1,7.6-5.6,9.8c-3.8,2.4-7.8,3.1-16,3.1c-7.3,0-12.2-0.4-20-1.8L946,141L946,141z"/>
	<path class="st0" d="M992.8,151.9v-36h41.2v11.5h-22.8v3.3h22.8v8.6h-22.8v3h22.8v9.4L992.8,151.9L992.8,151.9z"/>
</g>
</svg>
