<?xml version="1.0" encoding="utf-8"?>
<!-- Generator: Adobe Illustrator 24.2.1, SVG Export Plug-In . SVG Version: 6.00 Build 0)  -->
<svg version="1.1" xmlns="http://www.w3.org/2000/svg" xmlns:xlink="http://www.w3.org/1999/xlink" x="0px" y="0px"
	 viewBox="0 0 1583.3 339.5" style="enable-background:new 0 0 1583.3 339.5;" xml:space="preserve">
<style type="text/css">
	.st0{display:none;}
	.st1{display:inline;fill:#FFFFFF;}
	.st2{font-family:'AntiqueOliNorD-Reg';}
	.st3{font-size:60.1681px;}
	.st4{display:inline;}
	.st5{fill:#FFFFFF;}
</style>
<g id="Layer_4" class="st0">
	<text transform="matrix(1 0 0 1 409.5681 186.9587)" class="st1 st2 st3">TRENDING GRAILS</text>
</g>
<g id="Layer_1">
	<rect y="-0.6" width="1583.3" height="339.5"/>
</g>
<g id="Layer_3" class="st0">
	<g class="st4">
		<path class="st5" d="M593.9,185.5c-8.5,2-13.2,2.6-19.4,2.6c-7.5,0-13.2-1.2-17.7-3.7c-5.1-2.9-7.7-7.9-7.7-15.1
			c0-6.4,2.3-11.2,6.6-14.2c4.3-3.1,9.7-4.4,17.7-4.4c7,0,13.3,0.7,19.8,2.2v12.5c-5-1-10.2-1.5-14.8-1.5c-4.2,0-6.8,0.5-8.7,1.8
			c-1.8,1.2-2.9,3.4-2.9,5.8c0,4.4,3.1,7.2,8.1,7.2c0.5,0,1.4,0,2.2-0.1v-9.3h16.7L593.9,185.5L593.9,185.5z"/>
		<path class="st5" d="M627.5,187.4l-8.8-11.4v11.4h-18.5v-36h34.7c4.4,0,7,0.6,9.1,2.4c2.4,1.8,3.9,4.9,3.9,8.1c0,3.2-1.4,6-3.9,8
			c-2,1.6-3.8,2.2-7.3,2.6l12.4,14.9H627.5z M624.3,168.5c1.9,0,2.6-0.2,3.5-0.6c1.1-0.6,1.7-1.9,1.7-3.4c0-2.4-1.1-3.4-4.1-3.4
			h-6.7v7.4L624.3,168.5L624.3,168.5z"/>
		<path class="st5" d="M684.7,187.4l-1.3-4.6h-12l-1.3,4.6h-18.9l11.5-36H692l11.3,36H684.7z M677.5,161.6l-3.9,11.4h7.6
			L677.5,161.6z"/>
		<path class="st5" d="M706.3,187.4v-36h18.5v36H706.3z"/>
		<path class="st5" d="M732,187.4v-36h18.5v23.2h15.7v12.7L732,187.4L732,187.4z"/>
		<path class="st5" d="M814.8,187.4v-11.2h-9.3v11.2h-18.5v-36h18.5v12.7h9.3v-12.7h18.5v36H814.8z"/>
		<path class="st5" d="M888.6,169.7c0,6.2-2.3,11.4-6.2,14.2c-4.2,3-10.4,4.5-18.7,4.5c-8.2,0-14.5-1.5-18.7-4.5
			c-3.9-2.9-6.2-8-6.2-14.4c0-6.9,2.4-12,6.8-14.9c4.3-2.8,10.3-4.1,17.8-4.1C880.7,150.4,888.6,156.6,888.6,169.7z M857.6,169.6
			c0,5.7,2,8.5,6.2,8.5c4.1,0,6.2-2.9,6.2-8.4c0-4.6-2.1-7-6.2-7C859.8,162.6,857.6,165,857.6,169.6z"/>
		<path class="st5" d="M912.5,151.5v22.1c0,1.7,0.2,2.6,0.5,3.1c0.5,0.8,1.8,1.2,3.2,1.2c1.3,0,2.6-0.5,3.1-1.2
			c0.4-0.5,0.5-1.4,0.5-3.1v-22.1h18.5v21.7c0,6.1-0.9,8.6-4,11c-3.4,2.6-9.7,4-18.1,4c-9,0-15.5-1.6-18.8-4.5
			c-2.7-2.4-3.4-4.7-3.4-10.9v-21.2L912.5,151.5L912.5,151.5z"/>
		<path class="st5" d="M944.9,176.5c8.1,1.2,13.7,1.7,20.1,1.7c1.6,0,2.5-0.5,2.5-1.6c0-0.9-0.6-1.2-2.5-1.2h-3
			c-1.5,0-4.7-0.2-6.8-0.4c-4.5-0.5-7.3-1.7-9.1-4.1c-1.4-1.8-2.1-4.1-2.1-6.9c0-4.1,1.5-7.4,4.3-9.5c3.2-2.4,9.5-3.7,17.9-3.7
			c6.4,0,12.9,0.6,19,1.8v10.6c-2.8-0.5-10.1-1.1-14.5-1.2h-4c-2.5,0-3.5,0.5-3.5,1.6c0,0.9,0.8,1.5,2,1.5l6.5,0.1
			c3.7,0.1,7.2,0.5,9.3,1.4c3.4,1.3,5.7,4.8,5.7,8.9c0,3.9-2.1,7.6-5.6,9.8c-3.8,2.4-7.8,3.1-16,3.1c-7.3,0-12.2-0.4-20-1.8
			L944.9,176.5L944.9,176.5z"/>
		<path class="st5" d="M991.7,187.4v-36h41.2V163h-22.7v3.3h22.7v8.6h-22.7v3h22.7v9.4L991.7,187.4L991.7,187.4z"/>
	</g>
</g>
<g id="Layer_2">
	<g>
		<path class="st5" d="M456.2,185.9V163h-11.4v-15.1h42.3V163h-11.4v22.9H456.2z"/>
		<path class="st5" d="M519.7,185.9l-9.3-12v12h-19.5v-37.9h36.6c4.6,0,7.3,0.7,9.6,2.5c2.6,1.9,4.1,5.1,4.1,8.5
			c0,3.4-1.5,6.3-4.1,8.4c-2.2,1.6-4,2.3-7.7,2.7l13.1,15.7H519.7z M516.4,165.9c2,0,2.8-0.2,3.7-0.7c1.1-0.7,1.8-2,1.8-3.6
			c0-2.6-1.2-3.6-4.3-3.6h-7.1v7.8H516.4z"/>
		<path class="st5" d="M547.2,185.9v-37.9h43.5v12.2h-24v3.5h24v9.1h-24v3.2h24v9.9H547.2z"/>
		<path class="st5" d="M627.9,185.9l-13.2-17v17h-18.4v-37.9h19.6l10.8,15.9v-15.9h18.4v37.9H627.9z"/>
		<path class="st5" d="M652.5,147.9h33.1c6.3,0,10.6,1.5,14,5c3.1,3.2,4.7,7.4,4.7,12.7c0,6.8-2.4,11.8-7.5,15.5
			c-4.3,3.2-9.6,4.7-15.9,4.7h-28.4V147.9z M675,174.5c3,0,4.5-0.3,6.1-1.3c1.9-1.2,3.1-3.5,3.1-6.1c0-4-2.3-6.1-6.5-6.1H672v13.5
			H675z"/>
		<path class="st5" d="M710.3,185.9v-37.9h19.5v37.9H710.3z"/>
		<path class="st5" d="M769,185.9l-13.2-17v17h-18.4v-37.9H757l10.8,15.9v-15.9h18.4v37.9H769z"/>
		<path class="st5" d="M839.5,183.9c-8.9,2.1-13.9,2.8-20.5,2.8c-8,0-13.9-1.3-18.7-3.9c-5.3-3-8.1-8.4-8.1-16c0-6.7,2.4-11.8,7-15
			c4.5-3.2,10.2-4.6,18.7-4.6c7.4,0,14,0.7,20.9,2.3v13.2c-5.3-1-10.7-1.6-15.6-1.6c-4.4,0-7.2,0.6-9.2,1.9c-1.9,1.3-3,3.6-3,6.1
			c0,4.7,3.3,7.6,8.5,7.6c0.5,0,1.5-0.1,2.3-0.1v-9.8h17.6V183.9z"/>
		<path class="st5" d="M908.9,183.9c-8.9,2.1-13.9,2.8-20.5,2.8c-8,0-13.9-1.3-18.7-3.9c-5.3-3-8.1-8.4-8.1-16c0-6.7,2.4-11.8,7-15
			c4.5-3.2,10.2-4.6,18.7-4.6c7.4,0,14,0.7,20.9,2.3v13.2c-5.3-1-10.7-1.6-15.6-1.6c-4.4,0-7.2,0.6-9.2,1.9c-1.9,1.3-3,3.6-3,6.1
			c0,4.7,3.3,7.6,8.5,7.6c0.5,0,1.5-0.1,2.3-0.1v-9.8h17.6V183.9z"/>
		<path class="st5" d="M944.3,185.9l-9.3-12v12h-19.5v-37.9h36.6c4.6,0,7.3,0.7,9.6,2.5c2.6,1.9,4.1,5.1,4.1,8.5
			c0,3.4-1.5,6.3-4.1,8.4c-2.2,1.6-4,2.3-7.7,2.7l13.1,15.7H944.3z M941,165.9c2,0,2.8-0.2,3.7-0.7c1.1-0.7,1.8-2,1.8-3.6
			c0-2.6-1.2-3.6-4.3-3.6H935v7.8H941z"/>
		<path class="st5" d="M1004.6,185.9l-1.4-4.9h-12.7l-1.4,4.9h-19.9l12.1-37.9h30.9l11.9,37.9H1004.6z M997.1,158.6l-4.1,12h8
			L997.1,158.6z"/>
		<path class="st5" d="M1027.4,185.9v-37.9h19.5v37.9H1027.4z"/>
		<path class="st5" d="M1054.5,185.9v-37.9h19.5v24.5h16.6v13.4H1054.5z"/>
		<path class="st5" d="M1094.6,174.3c8.5,1.3,14.4,1.8,21.2,1.8c1.7,0,2.6-0.6,2.6-1.7c0-1-0.6-1.3-2.7-1.3h-3.2
			c-1.5,0-4.9-0.2-7.2-0.5c-4.8-0.5-7.7-1.8-9.6-4.3c-1.5-1.9-2.2-4.4-2.2-7.3c0-4.3,1.5-7.8,4.5-10c3.4-2.5,10.1-3.9,18.9-3.9
			c6.7,0,13.6,0.6,20,1.9v11.1c-2.9-0.5-10.7-1.2-15.3-1.3h-4.3c-2.6,0-3.6,0.5-3.6,1.7c0,1,0.8,1.5,2.1,1.5l6.8,0.1
			c3.9,0.1,7.6,0.6,9.8,1.4c3.6,1.4,6,5.1,6,9.4c0,4.1-2.2,8-5.9,10.3c-4,2.5-8.2,3.3-16.9,3.3c-7.7,0-12.9-0.5-21-1.9V174.3z"/>
	</g>
</g>
</svg>
