<?xml version="1.0" encoding="utf-8"?>
<!-- Generator: Adobe Illustrator 24.2.1, SVG Export Plug-In . SVG Version: 6.00 Build 0)  -->
<svg version="1.1" id="Layer_1" xmlns="http://www.w3.org/2000/svg" xmlns:xlink="http://www.w3.org/1999/xlink" x="0px" y="0px"
	 viewBox="0 0 417.2 329.4" style="enable-background:new 0 0 417.2 329.4;" xml:space="preserve">
<path d="M208.6,0L0,156.9h62.5v172.5h292.2V156.9h62.5L208.6,0z M315.3,271.6c-40.3,9.5-62.9,12.6-92.5,12.6
	c-36,0-62.9-5.7-84.5-17.7c-24.1-13.6-36.5-37.8-36.5-72.2c0-30.3,10.8-53.2,31.6-67.8c20.6-14.6,46.2-20.8,84.5-20.8
	c33.4,0,63.2,3.3,94.5,10.5v59.6c-23.9-4.6-48.6-7.2-70.6-7.2c-19.8,0-32.4,2.6-41.6,8.7c-8.5,5.7-13.6,16.2-13.6,27.7
	c0,21.1,14.9,34.2,38.5,34.2c2.3,0,6.7-0.3,10.5-0.5v-44.4h79.6V271.6z"/>
</svg>
