<?xml version="1.0" encoding="utf-8"?>
<!-- Generator: Adobe Illustrator 24.2.1, SVG Export Plug-In . SVG Version: 6.00 Build 0)  -->
<svg version="1.1" id="Layer_1" xmlns="http://www.w3.org/2000/svg" xmlns:xlink="http://www.w3.org/1999/xlink" x="0px" y="0px"
	 viewBox="0 0 1250.1 288" style="enable-background:new 0 0 1250.1 288;" xml:space="preserve">
<style type="text/css">
	.st0{fill:#FFFFFF;}
</style>
<g>
	<path class="st0" d="M649.2,144.7C648.8,229.9,582.4,288.8,503,288c-80.4-0.8-141.8-62.8-141.8-144.6c0-82,64.3-144.3,147.1-142.7
		C584.7,2.1,649.1,60.1,649.2,144.7z M402.4,145.1c0.4,5,0.6,8.6,1,12.3c2.9,26.1,12.8,48.8,32.3,66.8
		c22.1,20.4,48.5,28.3,78.1,26.1c27.5-2,50.8-12.9,68.7-34.1c21.6-25.6,28.2-55.8,24-88.4c-10.8-82.7-94-108.3-150.9-77.7
		C417.5,70.5,403.4,105.1,402.4,145.1z"/>
	<path class="st0" d="M257.6,52c-10.8,9.8-20.4,18.5-30,27.2c-4.8-5.1-9.1-10.4-14-15C166.9,21.4,89.7,32,57.3,85.5
		C33.9,124.1,35.9,185,70.8,220.7c16.7,17.1,37.2,26.8,60.8,29.3c31.7,3.2,60-4.6,83.7-27c5.1-4.8,7.7-9.6,7.2-16.8
		c-0.7-10.3-0.2-20.6-0.2-31.4c-26.5,0-52.4,0-78.6,0c0-12.5,0-24.4,0-36.8c39.7,0,79.4,0,119.8,0c0.1,1.5,0.3,3.3,0.3,5
		c0,26.2,0.1,52.3-0.1,78.5c0,2.6-0.9,5.7-2.4,7.8c-31.7,41.8-74.2,61.1-126.3,58.2c-46.4-2.5-83.9-22.6-110.3-61.2
		C-24,154.8-1.2,39.9,97.5,8.2c48.2-15.4,94.6-9.7,136,21.4C242,36,249.3,44.2,257.6,52z"/>
	<path class="st0" d="M988.1,282.2c-13.8,0-26.6,0.1-39.4-0.2c-1.4,0-3.3-2.4-4-4.1c-9.9-22.4-19.6-44.8-29.2-67.3
		c-1.5-3.4-3.3-4.6-7-4.5c-39.8,0.1-79.6,0.2-119.5,0c-4.1,0-5.7,1.4-7.2,4.9c-9.5,22.3-19.4,44.5-28.9,66.9
		c-1.4,3.2-2.9,4.5-6.6,4.5c-12-0.3-24-0.1-36.8-0.1c0.8-2,1.3-3.6,2-5.2c38.3-88.9,76.7-177.8,115-266.7c1.2-2.9,2.7-4,5.9-3.9
		c10.7,0.2,21.3,0.3,32,0c3.8-0.1,5.5,1.1,7,4.6c33,76.9,66.2,153.7,99.3,230.5C976.2,254.7,981.9,267.9,988.1,282.2z M848.4,56.6
		c-16.4,38.3-32.3,75.2-48.3,112.3c32.5,0,64.3,0,96.9,0C880.9,131.5,865,94.7,848.4,56.6z"/>
	<path class="st0" d="M1022.4,44.1c0-13,0-24.9,0-37.2c75.9,0,151.6,0,227.6,0c0,12.1,0,24.2,0,36.8c-30.6,0-61.4,0-92.5,0
		c0,79.7,0,158.8,0,238.2c-13.9,0-27.3,0-41.3,0c0-79,0-158,0-237.8C1084.7,44.1,1053.9,44.1,1022.4,44.1z"/>
</g>
</svg>
