<?xml version="1.0" encoding="utf-8"?>
<!-- Generator: Adobe Illustrator 24.2.1, SVG Export Plug-In . SVG Version: 6.00 Build 0)  -->
<svg version="1.1" id="Layer_1" xmlns="http://www.w3.org/2000/svg" xmlns:xlink="http://www.w3.org/1999/xlink" x="0px" y="0px"
	 viewBox="0 0 483.8 38" style="enable-background:new 0 0 483.8 38;" xml:space="preserve">
<style type="text/css">
	.st0{fill:#000000;}
</style>
<g>
	<path class="st0" d="M44.8,35.1c-8.5,2-13.2,2.6-19.4,2.6c-7.5,0-13.2-1.2-17.7-3.7C2.6,31.2,0,26.1,0,18.9C0,12.5,2.3,7.7,6.6,4.6
		c4.3-3.1,9.7-4.4,17.7-4.4c7,0,13.3,0.7,19.8,2.2V15c-5-1-10.2-1.5-14.8-1.5c-4.1,0-6.8,0.5-8.7,1.8c-1.8,1.2-2.9,3.4-2.9,5.8
		c0,4.4,3.1,7.2,8.1,7.2c0.5,0,1.4,0,2.2-0.1v-9.3h16.7V35.1z"/>
	<path class="st0" d="M78.4,37l-8.8-11.4V37H51.1V1h34.7c4.4,0,6.9,0.6,9.1,2.4c2.4,1.8,3.9,4.8,3.9,8.1c0,3.2-1.4,6-3.9,8
		c-2.1,1.6-3.8,2.2-7.3,2.6L99.8,37H78.4z M75.2,18.1c1.9,0,2.6-0.2,3.5-0.6c1.1-0.6,1.7-1.9,1.7-3.4c0-2.4-1.1-3.4-4.1-3.4h-6.7
		v7.4L75.2,18.1L75.2,18.1z"/>
	<path class="st0" d="M135.6,37l-1.3-4.6h-12L121,37h-18.9l11.5-36h29.3l11.3,36H135.6z M128.4,11.2l-3.9,11.4h7.6L128.4,11.2z"/>
	<path class="st0" d="M157.2,37V1h18.5v36H157.2z"/>
	<path class="st0" d="M182.9,37V1h18.5v23.2h15.7V37L182.9,37L182.9,37z"/>
	<path class="st0" d="M265.7,37V25.8h-9.3V37H238V1h18.5v12.7h9.3V1h18.5v36H265.7z"/>
	<path class="st0" d="M339.5,19.2c0,6.1-2.3,11.4-6.1,14.2c-4.2,3-10.4,4.5-18.7,4.5c-8.2,0-14.5-1.5-18.6-4.5
		c-3.9-2.9-6.1-8-6.1-14.5c0-6.9,2.4-12,6.9-14.9C301,1.4,307.1,0,314.6,0C331.6,0,339.5,6.2,339.5,19.2z M308.5,19.1
		c0,5.7,2,8.5,6.1,8.5s6.2-2.9,6.2-8.4c0-4.6-2.1-7-6.2-7C310.7,12.2,308.5,14.6,308.5,19.1z"/>
	<path class="st0" d="M363.4,1v22.1c0,1.7,0.2,2.6,0.5,3.1c0.5,0.8,1.8,1.2,3.2,1.2c1.4,0,2.6-0.5,3.1-1.2c0.4-0.5,0.5-1.4,0.5-3.1
		V1h18.5v21.7c0,6.1-0.9,8.6-4,11c-3.4,2.6-9.7,4-18.1,4c-9,0-15.5-1.6-18.8-4.5c-2.7-2.4-3.4-4.7-3.4-10.9V1H363.4z"/>
	<path class="st0" d="M395.8,26c8.1,1.2,13.7,1.7,20.1,1.7c1.6,0,2.5-0.5,2.5-1.6c0-0.9-0.6-1.2-2.5-1.2h-3c-1.5,0-4.7-0.2-6.8-0.4
		c-4.5-0.5-7.3-1.7-9.1-4.1c-1.4-1.8-2.1-4.1-2.1-6.9c0-4.1,1.5-7.4,4.3-9.5c3.2-2.4,9.5-3.7,17.9-3.7c6.4,0,12.9,0.6,19,1.8v10.6
		c-2.8-0.5-10.1-1.1-14.5-1.2h-4c-2.5,0-3.5,0.5-3.5,1.6c0,0.9,0.8,1.5,2,1.5l6.5,0.1c3.7,0.1,7.2,0.5,9.3,1.4
		c3.4,1.3,5.7,4.8,5.7,8.9c0,3.9-2.1,7.6-5.6,9.8c-3.8,2.4-7.8,3.1-16,3.1c-7.3,0-12.2-0.4-20-1.8L395.8,26L395.8,26z"/>
	<path class="st0" d="M442.6,37V1h41.2v11.5h-22.8v3.3h22.8v8.6h-22.8v3h22.8V37H442.6z"/>
</g>
</svg>
