<?xml version="1.0" encoding="utf-8"?>
<!-- Generator: Adobe Illustrator 24.3.0, SVG Export Plug-In . SVG Version: 6.00 Build 0)  -->
<svg version="1.1" xmlns="http://www.w3.org/2000/svg" xmlns:xlink="http://www.w3.org/1999/xlink" x="0px" y="0px"
	 viewBox="0 0 583.8 588.1" style="enable-background:new 0 0 583.8 588.1;" xml:space="preserve">
<style type="text/css">
	.st0{display:none;}
	.st1{display:inline;}
	.st2{fill:#393939;}
	.st3{fill:#E2E2E2;}
	.st4{fill:#FFFFFF;}
	.st5{fill:none;stroke:#000000;stroke-width:1.5;stroke-miterlimit:10;}
	.st6{fill:#F2F1F3;}
	.st7{fill:#161616;}
	.st8{fill:#070707;}
	.st9{fill:#0C0C0C;}
	.st10{fill:none;stroke:#000000;stroke-width:2;stroke-miterlimit:10;}
	.st11{fill:none;stroke:#000000;stroke-width:1.5;stroke-linecap:round;stroke-linejoin:round;stroke-miterlimit:10;}
	
		.st12{display:inline;fill:none;stroke:#000000;stroke-width:1.5;stroke-linecap:round;stroke-linejoin:round;stroke-miterlimit:10;}
</style>
<g id="Layer_1" class="st0">
	
		<image style="display:inline;overflow:visible;" width="1200" height="1503" xlink:href="../../../../../Downloads/shoe_boxes.jpeg"  transform="matrix(1 0 0 1 -329.3042 -470.0796)">
	</image>
</g>
<g id="Layer_14" class="st0">
	<g id="Layer_2_copy_2" class="st1">
		<g>
			<path class="st2" d="M483.7,317.5l14.2,0.5c13,3,25.9,6.1,38.9,9c7,1.6,7.9,2.5,8,9.5c0.3,25,0.5,50,0.8,75
				c0.1,9.8-0.6,19.6-1.7,29.4c-0.5,3.9-1.9,6.7-6.2,7.2c-0.6-0.1-0.9,0.2-0.8,0.8c0.1,5.6,0.2,11.3,0.2,16.9
				c-0.2,4.2-1.1,7.6-6.2,8.8c-59.5,14.9-118.8,30-178.3,44.8c-56.5,14.1-113,28-169.5,42c-2.6,0.6-5.2,1.3-7.8,0
				c-7.5-3.7-15.1-7-22.2-11.3c-38.3-22.9-76.6-45.7-114.9-68.5c-3-1.8-5.4-3.8-6.8-6.9c-1.3-2.9-2-5.9-2.1-9.2
				c-0.3-7.4,0.3-14.9-3.5-21.8c-1.5-2.7-1.1-5.9-1.1-8.9c0.5-32.8,1.2-65.6,1.6-98.4c0.1-4.2,0.9-6.4,5.6-6.9
				c5.3-0.5,10.5-2,15.7-2.7L483.7,317.5z M484.1,51.8"/>
			<path class="st3" d="M31.4,474.8c1.5,3.1,3.9,5.2,6.8,6.9c38.3,22.8,76.6,45.6,114.9,68.5c7.2,4.3,14.8,7.6,22.2,11.3
				c2.6,1.3,5.2,0.6,7.8,0c56.5-14,113.1-27.9,169.5-42c59.5-14.9,118.8-30,178.3-44.8c5.1-1.3,6-4.6,6.2-8.8
				c6.1,0.4,11.2,3.9,16.7,6c9.9,3.8,19.6,8.2,30,12.6c-3.2,2.1-6.2,2.1-8.9,2.8c-28.9,7.5-57.8,14.9-86.8,22.3
				c-30.1,7.7-60.1,15.4-90.2,23c-19.5,4.9-39,9.5-58.5,14.6c-23.4,6.2-46.9,12-70.4,17.9c-26.1,6.5-52,13.4-78,20.1
				c-0.8,0.2-1.7,0.3-2.4,0.7c-11.1,5.8-19.2-1.3-27.7-6.4c-14.5-8.7-28.8-17.6-43.2-26.5c-15.5-9.6-31-19.3-46.5-28.9
				C49.6,510.6,27.8,497.4,6,484c-1.8-1.1-3.3-2.5-6-4.5C11.1,476.7,21.3,476.4,31.4,474.8z"/>
			<path class="st3" d="M536.9,448.9c-0.1-0.6,0.1-0.9,0.8-0.8C537.4,448.4,537.1,448.6,536.9,448.9z"/>
		</g>
	</g>
	<g id="Layer_13" class="st1">
		<path class="st4" d="M146.7,420.8c-0.4,1.5-2.1,5-2.6,5.3c-0.5,0.2-2,0.8-2.3,0.9c-0.3,0.1,0.4,0.7,0.8,0.5s1.3-0.2,1.7-0.4
			s2-1.5,2-1.5l0.8-0.7c0,0,0.9,2.6,0,3.9c-0.9,1.3-8.6,7.9-9,8.1c-0.4,0.2-0.9,2.1-1.7,2c-0.8-0.1-2.2,0.4-1.8,0.5
			c0.3,0.1,3.4,1,3.6,0.8c0.2-0.2,9.8-5.9,9.8-5.9s0.7-0.4,1.2-0.2c0.5,0.3,4.1,5.4,4.1,5.4s6.6,9.4,6.8,9.8
			c0.2,0.3,3.5-1.4,3.5-1.4s0.7-0.3-2.5-0.3c-0.8-0.3-8.1-18.5-8.1-18.5s0-5.5-0.3-7.5c-0.4-2.6-0.1-10.9,0.3-11.5
			c0.4-0.5-1.1-1.3-1.1-1.3s-0.9,5.4-1.2,6.2c-0.3,0.8,0.2-0.9-2-0.9c-2.2,0-2.8,2.9-2.1,3.9"/>
		<ellipse class="st4" cx="152.8" cy="407.8" rx="2.7" ry="3.1"/>
	</g>
	<g id="Layer_3" class="st1">
		<path class="st5" d="M53.6,327.2L27.6,332v107.3c0,0-1.3,9.1,3,11.7l-0.4,18.7c0,0-0.9,5.2,4.8,8.7c5.6,3.5,139.4,80.7,139.4,80.7
			l360.1-87.6v-25.6c0,0,5.2-1.3,7-2.2c1.7-0.9,1.7-111.6,1.7-111.6l-58.4-14.5L53.6,327.2z"/>
		<polyline class="st5" points="27.6,332 174,392.4 543.2,332 		"/>
		<line class="st5" x1="174.4" y1="530.5" x2="174" y2="392.4"/>
		<polyline class="st5" points="534.5,445.8 174.4,530.5 30.6,451 		"/>
		<line class="st5" x1="175.7" y1="530.5" x2="174.4" y2="558.3"/>
		<circle cx="74.6" cy="494.8" r="1"/>
		<circle cx="73.6" cy="486.3" r="1"/>
		<circle cx="74" cy="482.8" r="1"/>
		<circle cx="78.6" cy="489.1" r="1"/>
		<circle cx="85.7" cy="489.1" r="1"/>
		<circle cx="81" cy="493.8" r="1"/>
		<circle cx="80.1" cy="498.9" r="1"/>
		<circle cx="86.1" cy="502.2" r="1"/>
		<circle cx="85.7" cy="496.7" r="1"/>
		<circle cx="90.3" cy="492.9" r="1"/>
		<circle cx="91.8" cy="496.7" r="1"/>
		<circle cx="92.8" cy="500.9" r="1"/>
		<circle cx="98.6" cy="499.9" r="1"/>
		<circle cx="97.7" cy="504.7" r="1"/>
		<circle cx="103.4" cy="507" r="1"/>
		<circle cx="105" cy="504.7" r="1"/>
		<circle cx="105.9" cy="511.2" r="1"/>
		<circle cx="31" cy="455.6" r="1"/>
		<circle cx="34.9" cy="466.8" r="1"/>
		<circle cx="39.8" cy="466.8" r="1"/>
		<circle cx="34.9" cy="460.4" r="1"/>
		<circle cx="32.9" cy="463.6" r="1"/>
		<circle cx="31.9" cy="471.6" r="1"/>
		<circle cx="39.5" cy="475.7" r="1"/>
		<circle cx="35.8" cy="473.5" r="1"/>
		<circle cx="45.7" cy="472.8" r="1"/>
		<circle cx="56.4" cy="483.7" r="1"/>
		<circle cx="61.8" cy="490.1" r="1"/>
		<circle cx="68.8" cy="494.8" r="1"/>
		<circle cx="68.3" cy="489.6" r="1"/>
		<circle cx="33" cy="458.1" r="1"/>
		<circle cx="37.7" cy="462.7" r="1"/>
		<circle cx="39.8" cy="469.6" r="1"/>
		<circle cx="44.7" cy="465.2" r="1"/>
		<circle cx="43.7" cy="468.1" r="1"/>
		<circle cx="44.7" cy="478.1" r="1"/>
		<circle cx="49.9" cy="482.8" r="1"/>
		<circle cx="40.4" cy="479.1" r="1"/>
		<circle cx="56.8" cy="488.2" r="1"/>
		<circle cx="48.9" cy="477.2" r="1"/>
		<circle cx="51.5" cy="474.7" r="1"/>
		<circle cx="52.9" cy="469.6" r="1"/>
		<circle cx="144.9" cy="524.3" r="1"/>
		<circle cx="143.9" cy="529.9" r="1"/>
		<circle cx="179.1" cy="541.2" r="1"/>
		<circle cx="178.2" cy="533.5" r="1"/>
		<circle cx="184.5" cy="533.9" r="1"/>
		<circle cx="184.5" cy="538.3" r="1"/>
		<circle cx="180.1" cy="546.2" r="1"/>
		<circle cx="178.7" cy="551.5" r="1"/>
		<circle cx="178.7" cy="554.9" r="1"/>
		<circle cx="182" cy="551.1" r="1"/>
		<circle cx="183.9" cy="553.9" r="1"/>
		<circle cx="185.5" cy="550.6" r="1"/>
		<circle cx="188.3" cy="548.6" r="1"/>
		<circle cx="189.2" cy="542.2" r="1"/>
		<circle cx="191.1" cy="533.5" r="1"/>
		<circle cx="194" cy="529.9" r="1"/>
		<circle cx="195.9" cy="542.7" r="1"/>
		<circle cx="195.9" cy="548.6" r="1"/>
		<circle cx="192.1" cy="554.5" r="1"/>
		<circle cx="197.8" cy="553.5" r="1"/>
		<circle cx="202.5" cy="546.2" r="1"/>
		<circle cx="205.7" cy="548.1" r="1"/>
		<circle cx="201.5" cy="542.7" r="1"/>
		<circle cx="200.6" cy="534.9" r="1"/>
		<circle cx="198.8" cy="534.9" r="1"/>
		<circle cx="200.6" cy="529.9" r="1"/>
		<circle cx="204.8" cy="539.2" r="1"/>
		<circle cx="209" cy="534.9" r="1"/>
		<circle cx="211.5" cy="538.7" r="1"/>
		<circle cx="208.1" cy="544.1" r="1"/>
		<circle cx="213.5" cy="546.2" r="1"/>
		<circle cx="213.9" cy="541.7" r="1"/>
		<circle cx="217.2" cy="539.2" r="1"/>
		<circle cx="217.2" cy="536.4" r="1"/>
		<circle cx="215.4" cy="530.8" r="1"/>
		<circle cx="213.5" cy="528.6" r="1"/>
		<circle cx="219.1" cy="528.6" r="1"/>
		<circle cx="222.8" cy="533" r="1"/>
		<circle cx="222.4" cy="538.7" r="1"/>
		<circle cx="210.6" cy="548.1" r="1"/>
		<circle cx="227.3" cy="529.4" r="1"/>
		<circle cx="226.3" cy="521.6" r="1"/>
		<circle cx="232.7" cy="522.1" r="1"/>
		<circle cx="232.7" cy="526.4" r="1"/>
		<circle cx="228.2" cy="534.3" r="1"/>
		<circle cx="226.9" cy="539.7" r="1"/>
		<circle cx="226.9" cy="543" r="1"/>
		<circle cx="230.2" cy="539.2" r="1"/>
		<circle cx="232.1" cy="542" r="1"/>
		<circle cx="233.7" cy="538.7" r="1"/>
		<circle cx="236.4" cy="536.8" r="1"/>
		<circle cx="237.4" cy="530.3" r="1"/>
		<circle cx="239.3" cy="521.6" r="1"/>
		<circle cx="242.2" cy="518" r="1"/>
		<circle cx="244.1" cy="530.8" r="1"/>
		<circle cx="244.1" cy="536.8" r="1"/>
		<circle cx="240.3" cy="542.6" r="1"/>
		<circle cx="246" cy="541.7" r="1"/>
		<circle cx="250.7" cy="534.3" r="1"/>
		<circle cx="253.9" cy="536.2" r="1"/>
		<circle cx="249.7" cy="530.8" r="1"/>
		<circle cx="248.7" cy="523" r="1"/>
		<circle cx="246.9" cy="523" r="1"/>
		<circle cx="248.7" cy="518" r="1"/>
		<circle cx="253" cy="527.4" r="1"/>
		<circle cx="257.2" cy="523" r="1"/>
		<circle cx="259.7" cy="526.8" r="1"/>
		<circle cx="256.2" cy="532.2" r="1"/>
		<circle cx="261.6" cy="534.3" r="1"/>
		<circle cx="262.1" cy="529.8" r="1"/>
		<circle cx="265.4" cy="527.4" r="1"/>
		<circle cx="265.4" cy="524.5" r="1"/>
		<circle cx="263.5" cy="519" r="1"/>
		<circle cx="261.6" cy="516.7" r="1"/>
		<circle cx="267.3" cy="516.7" r="1"/>
		<circle cx="271" cy="521.1" r="1"/>
		<circle cx="270.6" cy="526.8" r="1"/>
		<circle cx="258.8" cy="536.2" r="1"/>
		<circle cx="274.8" cy="518.5" r="1"/>
		<circle cx="273.9" cy="510.7" r="1"/>
		<circle cx="280.3" cy="511.2" r="1"/>
		<circle cx="280.3" cy="515.5" r="1"/>
		<circle cx="275.8" cy="523.4" r="1"/>
		<circle cx="274.4" cy="528.7" r="1"/>
		<circle cx="274.4" cy="532.1" r="1"/>
		<circle cx="277.7" cy="528.3" r="1"/>
		<circle cx="279.6" cy="531.1" r="1"/>
		<circle cx="281.2" cy="527.8" r="1"/>
		<circle cx="284" cy="525.9" r="1"/>
		<circle cx="285" cy="519.4" r="1"/>
		<circle cx="286.9" cy="510.7" r="1"/>
		<circle cx="289.7" cy="507.1" r="1"/>
		<circle cx="291.6" cy="519.9" r="1"/>
		<circle cx="291.6" cy="525.9" r="1"/>
		<circle cx="287.8" cy="531.7" r="1"/>
		<circle cx="293.5" cy="530.8" r="1"/>
		<circle cx="298.2" cy="523.4" r="1"/>
		<circle cx="301.5" cy="525.3" r="1"/>
		<circle cx="297.3" cy="519.9" r="1"/>
		<circle cx="296.3" cy="512.1" r="1"/>
		<circle cx="294.5" cy="512.1" r="1"/>
		<circle cx="296.3" cy="507.1" r="1"/>
		<circle cx="300.5" cy="516.5" r="1"/>
		<circle cx="304.8" cy="512.1" r="1"/>
		<circle cx="307.3" cy="515.9" r="1"/>
		<circle cx="303.8" cy="521.3" r="1"/>
		<circle cx="309.2" cy="523.4" r="1"/>
		<circle cx="309.7" cy="518.9" r="1"/>
		<circle cx="313" cy="516.5" r="1"/>
		<circle cx="313" cy="513.6" r="1"/>
		<circle cx="311.1" cy="508.1" r="1"/>
		<circle cx="309.2" cy="505.8" r="1"/>
		<circle cx="314.9" cy="505.8" r="1"/>
		<circle cx="318.6" cy="510.2" r="1"/>
		<circle cx="318.2" cy="515.9" r="1"/>
		<circle cx="306.3" cy="525.3" r="1"/>
		<circle cx="325.1" cy="505.3" r="1"/>
		<circle cx="324.2" cy="497.6" r="1"/>
		<circle cx="330.6" cy="498" r="1"/>
		<circle cx="330.6" cy="502.4" r="1"/>
		<circle cx="326.1" cy="510.3" r="1"/>
		<circle cx="324.7" cy="515.6" r="1"/>
		<circle cx="324.7" cy="519" r="1"/>
		<circle cx="328" cy="515.2" r="1"/>
		<circle cx="329.9" cy="518" r="1"/>
		<circle cx="331.5" cy="514.7" r="1"/>
		<circle cx="334.3" cy="512.8" r="1"/>
		<circle cx="335.2" cy="506.3" r="1"/>
		<circle cx="337.2" cy="497.6" r="1"/>
		<circle cx="340" cy="494" r="1"/>
		<circle cx="341.9" cy="506.8" r="1"/>
		<circle cx="341.9" cy="512.8" r="1"/>
		<circle cx="338.1" cy="518.6" r="1"/>
		<circle cx="343.8" cy="517.6" r="1"/>
		<circle cx="348.5" cy="510.3" r="1"/>
		<circle cx="351.8" cy="512.2" r="1"/>
		<circle cx="347.6" cy="506.8" r="1"/>
		<circle cx="346.6" cy="499" r="1"/>
		<circle cx="344.8" cy="499" r="1"/>
		<circle cx="346.6" cy="494" r="1"/>
		<circle cx="350.8" cy="503.3" r="1"/>
		<circle cx="355" cy="499" r="1"/>
		<circle cx="357.6" cy="502.8" r="1"/>
		<circle cx="354.1" cy="508.2" r="1"/>
		<circle cx="359.5" cy="510.3" r="1"/>
		<circle cx="360" cy="505.8" r="1"/>
		<circle cx="363.3" cy="503.3" r="1"/>
		<circle cx="363.3" cy="500.5" r="1"/>
		<circle cx="361.4" cy="494.9" r="1"/>
		<circle cx="359.5" cy="492.7" r="1"/>
		<circle cx="365.2" cy="492.7" r="1"/>
		<circle cx="368.9" cy="497.1" r="1"/>
		<circle cx="368.5" cy="502.8" r="1"/>
		<circle cx="356.6" cy="512.2" r="1"/>
		<circle cx="369.8" cy="495.4" r="1"/>
		<circle cx="368.9" cy="487.6" r="1"/>
		<circle cx="375.3" cy="488.1" r="1"/>
		<circle cx="375.3" cy="492.4" r="1"/>
		<circle cx="370.8" cy="500.3" r="1"/>
		<circle cx="369.4" cy="505.7" r="1"/>
		<circle cx="369.4" cy="509" r="1"/>
		<circle cx="372.7" cy="505.2" r="1"/>
		<circle cx="374.6" cy="508.1" r="1"/>
		<circle cx="376.2" cy="504.7" r="1"/>
		<circle cx="379" cy="502.8" r="1"/>
		<circle cx="379.9" cy="496.3" r="1"/>
		<circle cx="381.8" cy="487.6" r="1"/>
		<circle cx="384.7" cy="484" r="1"/>
		<circle cx="386.6" cy="496.8" r="1"/>
		<circle cx="386.6" cy="502.8" r="1"/>
		<circle cx="382.8" cy="508.7" r="1"/>
		<circle cx="388.5" cy="507.7" r="1"/>
		<circle cx="393.2" cy="500.3" r="1"/>
		<circle cx="396.5" cy="502.2" r="1"/>
		<circle cx="392.2" cy="496.8" r="1"/>
		<circle cx="391.3" cy="489" r="1"/>
		<circle cx="389.5" cy="489" r="1"/>
		<circle cx="391.3" cy="484" r="1"/>
		<circle cx="395.5" cy="493.4" r="1"/>
		<circle cx="399.7" cy="489" r="1"/>
		<circle cx="402.3" cy="492.9" r="1"/>
		<circle cx="398.8" cy="498.3" r="1"/>
		<circle cx="404.2" cy="500.3" r="1"/>
		<circle cx="404.7" cy="495.9" r="1"/>
		<circle cx="407.9" cy="493.4" r="1"/>
		<circle cx="407.9" cy="490.5" r="1"/>
		<circle cx="406.1" cy="485" r="1"/>
		<circle cx="404.2" cy="482.8" r="1"/>
		<circle cx="409.9" cy="482.8" r="1"/>
		<circle cx="413.6" cy="487.1" r="1"/>
		<circle cx="413.2" cy="492.9" r="1"/>
		<circle cx="401.3" cy="502.2" r="1"/>
		<circle cx="418.3" cy="482.3" r="1"/>
		<circle cx="417.4" cy="474.5" r="1"/>
		<circle cx="423.7" cy="475" r="1"/>
		<circle cx="423.7" cy="479.3" r="1"/>
		<circle cx="419.3" cy="487.2" r="1"/>
		<circle cx="417.9" cy="492.5" r="1"/>
		<circle cx="417.9" cy="495.9" r="1"/>
		<circle cx="421.2" cy="492.1" r="1"/>
		<circle cx="423.1" cy="494.9" r="1"/>
		<circle cx="424.7" cy="491.6" r="1"/>
		<circle cx="427.5" cy="489.7" r="1"/>
		<circle cx="428.4" cy="483.2" r="1"/>
		<circle cx="430.3" cy="474.5" r="1"/>
		<circle cx="433.2" cy="470.9" r="1"/>
		<circle cx="435.1" cy="483.7" r="1"/>
		<circle cx="435.1" cy="489.7" r="1"/>
		<circle cx="431.3" cy="495.5" r="1"/>
		<circle cx="437" cy="494.6" r="1"/>
		<circle cx="441.7" cy="487.2" r="1"/>
		<circle cx="444.9" cy="489.1" r="1"/>
		<circle cx="440.7" cy="483.7" r="1"/>
		<circle cx="439.8" cy="475.9" r="1"/>
		<circle cx="438" cy="475.9" r="1"/>
		<circle cx="439.8" cy="470.9" r="1"/>
		<circle cx="444" cy="480.3" r="1"/>
		<circle cx="448.2" cy="475.9" r="1"/>
		<circle cx="450.7" cy="479.7" r="1"/>
		<circle cx="447.3" cy="485.1" r="1"/>
		<circle cx="452.7" cy="487.2" r="1"/>
		<circle cx="453.1" cy="482.7" r="1"/>
		<circle cx="456.4" cy="480.3" r="1"/>
		<circle cx="456.4" cy="477.4" r="1"/>
		<circle cx="454.6" cy="471.9" r="1"/>
		<circle cx="452.7" cy="469.6" r="1"/>
		<circle cx="458.3" cy="469.6" r="1"/>
		<circle cx="462" cy="474" r="1"/>
		<circle cx="461.6" cy="479.7" r="1"/>
		<circle cx="449.8" cy="489.1" r="1"/>
		<circle cx="464" cy="472.5" r="1"/>
		<circle cx="463" cy="464.8" r="1"/>
		<circle cx="469.4" cy="465.2" r="1"/>
		<circle cx="469.4" cy="469.6" r="1"/>
		<circle cx="464.9" cy="477.5" r="1"/>
		<circle cx="463.6" cy="482.8" r="1"/>
		<circle cx="463.6" cy="486.2" r="1"/>
		<circle cx="466.8" cy="482.4" r="1"/>
		<circle cx="468.7" cy="485.2" r="1"/>
		<circle cx="470.3" cy="481.9" r="1"/>
		<circle cx="473.1" cy="480" r="1"/>
		<circle cx="474.1" cy="473.5" r="1"/>
		<circle cx="476" cy="464.8" r="1"/>
		<circle cx="478.8" cy="461.2" r="1"/>
		<circle cx="480.7" cy="474" r="1"/>
		<circle cx="480.7" cy="480" r="1"/>
		<circle cx="476.9" cy="485.8" r="1"/>
		<circle cx="482.6" cy="484.8" r="1"/>
		<circle cx="487.3" cy="477.5" r="1"/>
		<circle cx="490.6" cy="479.4" r="1"/>
		<circle cx="486.4" cy="474" r="1"/>
		<circle cx="485.4" cy="466.2" r="1"/>
		<circle cx="483.6" cy="466.2" r="1"/>
		<circle cx="485.4" cy="461.2" r="1"/>
		<circle cx="489.6" cy="470.5" r="1"/>
		<circle cx="493.9" cy="466.2" r="1"/>
		<circle cx="496.4" cy="470" r="1"/>
		<circle cx="492.9" cy="475.4" r="1"/>
		<circle cx="498.3" cy="477.5" r="1"/>
		<circle cx="498.8" cy="473" r="1"/>
		<circle cx="502.1" cy="470.5" r="1"/>
		<circle cx="502.1" cy="467.7" r="1"/>
		<circle cx="500.2" cy="462.1" r="1"/>
		<circle cx="498.3" cy="459.9" r="1"/>
		<circle cx="504" cy="459.9" r="1"/>
		<circle cx="507.7" cy="464.3" r="1"/>
		<circle cx="507.3" cy="470" r="1"/>
		<circle cx="495.4" cy="479.4" r="1"/>
		<circle cx="511.8" cy="460.4" r="1"/>
		<circle cx="510.8" cy="452.6" r="1"/>
		<circle cx="517.2" cy="453.1" r="1"/>
		<circle cx="517.2" cy="457.4" r="1"/>
		<circle cx="512.7" cy="465.3" r="1"/>
		<circle cx="511.4" cy="470.7" r="1"/>
		<circle cx="511.4" cy="474" r="1"/>
		<circle cx="514.7" cy="470.2" r="1"/>
		<circle cx="516.6" cy="473" r="1"/>
		<circle cx="518.2" cy="469.7" r="1"/>
		<circle cx="520.9" cy="467.8" r="1"/>
		<circle cx="521.9" cy="461.3" r="1"/>
		<circle cx="523.8" cy="452.6" r="1"/>
		<circle cx="526.7" cy="449" r="1"/>
		<circle cx="528.6" cy="461.8" r="1"/>
		<circle cx="528.6" cy="467.8" r="1"/>
		<circle cx="524.8" cy="473.6" r="1"/>
		<circle cx="530.5" cy="472.7" r="1"/>
		<circle cx="535.2" cy="465.3" r="1"/>
		<circle cx="534.2" cy="461.8" r="1"/>
		<circle cx="533.2" cy="454" r="1"/>
		<circle cx="531.4" cy="454" r="1"/>
		<circle cx="533.2" cy="449" r="1"/>
		<circle cx="38.5" cy="459.1" r="1"/>
		<circle cx="55.8" cy="474.3" r="1"/>
		<circle cx="56.8" cy="470" r="1"/>
		<circle cx="56.8" cy="466.2" r="1"/>
		<circle cx="44" cy="461.7" r="1"/>
		<circle cx="49.9" cy="467.2" r="1"/>
		<circle cx="147.3" cy="520.5" r="1"/>
		<circle cx="145.4" cy="528.2" r="1"/>
		<circle cx="144.5" cy="532.7" r="1"/>
		<circle cx="151.2" cy="531.7" r="1"/>
		<circle cx="154.3" cy="528.2" r="1"/>
		<circle cx="156.2" cy="526.6" r="1"/>
		<circle cx="156.2" cy="534.6" r="1"/>
		<circle cx="161.1" cy="530.1" r="1"/>
		<circle cx="162" cy="534.9" r="1"/>
		<circle cx="161.1" cy="543.1" r="1"/>
		<circle cx="165.3" cy="542.1" r="1"/>
		<circle cx="167.9" cy="539.7" r="1"/>
		<circle cx="169.2" cy="534.6" r="1"/>
		<circle cx="175.2" cy="537.8" r="1"/>
		<circle cx="174.2" cy="543.4" r="1"/>
		<circle cx="153.1" cy="523.4" r="1"/>
		<circle cx="139.5" cy="536.2" r="1"/>
		<circle cx="53.5" cy="480.9" r="1"/>
		<circle cx="59.9" cy="477.7" r="1"/>
		<circle cx="60.8" cy="473.5" r="1"/>
		<circle cx="60.8" cy="469.7" r="1"/>
		<circle cx="65.4" cy="476.4" r="1"/>
		<circle cx="63.5" cy="480.2" r="1"/>
		<circle cx="62.5" cy="484.7" r="1"/>
		<circle cx="69.3" cy="483.7" r="1"/>
		<circle cx="72.3" cy="480.2" r="1"/>
		<circle cx="74.2" cy="478.7" r="1"/>
		<circle cx="73" cy="491" r="1"/>
		<circle cx="79.1" cy="482.1" r="1"/>
		<circle cx="80" cy="487" r="1"/>
		<circle cx="79.1" cy="495.1" r="1"/>
		<circle cx="83.3" cy="494.2" r="1"/>
		<circle cx="85.9" cy="491.7" r="1"/>
		<circle cx="87.2" cy="486.6" r="1"/>
		<circle cx="69.8" cy="478.7" r="1"/>
		<circle cx="90.2" cy="491.2" r="1"/>
		<circle cx="91.2" cy="487" r="1"/>
		<circle cx="87.8" cy="497.9" r="1"/>
		<circle cx="95.3" cy="498.6" r="1"/>
		<circle cx="96.3" cy="494.4" r="1"/>
		<circle cx="96.3" cy="490.6" r="1"/>
		<circle cx="100.8" cy="493.5" r="1"/>
		<circle cx="98.9" cy="501.2" r="1"/>
		<circle cx="97.9" cy="505.6" r="1"/>
		<circle cx="104.7" cy="504.7" r="1"/>
		<circle cx="107.7" cy="501.2" r="1"/>
		<circle cx="109.6" cy="499.6" r="1"/>
		<circle cx="109.6" cy="507.5" r="1"/>
		<circle cx="114.5" cy="503.1" r="1"/>
		<circle cx="115.5" cy="507.9" r="1"/>
		<circle cx="114.5" cy="516" r="1"/>
		<circle cx="118.8" cy="515.1" r="1"/>
		<circle cx="121.3" cy="512.6" r="1"/>
		<circle cx="122.7" cy="507.5" r="1"/>
		<circle cx="106.6" cy="496.3" r="1"/>
		<circle cx="125.6" cy="512.1" r="1"/>
		<circle cx="126.6" cy="507.9" r="1"/>
		<circle cx="123.3" cy="518.8" r="1"/>
		<circle cx="109.3" cy="519.1" r="1"/>
		<circle cx="110.2" cy="514.9" r="1"/>
		<circle cx="110.2" cy="511.1" r="1"/>
		<circle cx="114.8" cy="514" r="1"/>
		<circle cx="112.9" cy="521.7" r="1"/>
		<circle cx="118.7" cy="525.2" r="1"/>
		<circle cx="121.7" cy="521.7" r="1"/>
		<circle cx="123.6" cy="520.1" r="1"/>
		<circle cx="123.6" cy="528" r="1"/>
		<circle cx="128.5" cy="523.6" r="1"/>
		<circle cx="129.4" cy="528.4" r="1"/>
		<circle cx="135.3" cy="533.1" r="1"/>
		<circle cx="136.6" cy="528" r="1"/>
		<circle cx="120.6" cy="516.8" r="1"/>
		<circle cx="139.6" cy="532.7" r="1"/>
		<circle cx="140.6" cy="528.4" r="1"/>
		<circle cx="140.6" cy="524.6" r="1"/>
		<circle cx="138.1" cy="519.5" r="1"/>
		<circle cx="133.8" cy="519.6" r="1"/>
		<circle cx="130.1" cy="520.4" r="1"/>
		<circle cx="131.8" cy="515.4" r="1"/>
		<circle cx="139.8" cy="515.5" r="1"/>
		<circle cx="144.3" cy="515.4" r="1"/>
		<circle cx="133.3" cy="509.1" r="1"/>
		<circle cx="144" cy="535.2" r="1"/>
		<circle cx="150.9" cy="542.9" r="1"/>
		<circle cx="152.9" cy="541.3" r="1"/>
		<circle cx="157.7" cy="544.8" r="1"/>
		<circle cx="158.7" cy="549.6" r="1"/>
		<circle cx="165.9" cy="549.3" r="1"/>
		<circle cx="171.9" cy="552.5" r="1"/>
		<circle cx="149.8" cy="538.1" r="1"/>
		<circle cx="104.4" cy="499.9" r="1"/>
	</g>
	<g id="Layer_2_copy" class="st1">
		<g>
			<path class="st2" d="M52.7,320.7c-1.8-21.7-3.3-43.5-4.6-65.2c-0.9-15-1.4-30,0.4-44.9c1-8.1,1-8.2,9.1-9.3
				c3.9-0.6,7.8-0.9,12.8-1.5l434-12.8c3.3,0.4,5,2,5.2,5.5c0.6,12.3,1.2,24.6,2,36.9c0.2,3.8-1,6.7-4.8,7.7c-2.9,0.7-3.3,2.4-3.3,5
				c-0.5,22.5-1.1,45-1.6,67.5c-0.1,3.4,0,6.8-4,8.6l-265.3,62.6l-179-41.3L52.7,320.7z M332.5,306.9c-0.6,0-0.8,0.4-0.7,1
				c-4.2,7.2-7.7,14.7-8.4,23.2c-0.7,8.9,5.7,14.3,14.6,12.6c5.5-1.1,10.4-3.5,14.8-6.8c16.4-12.2,32.7-24.5,49-36.8
				c5.7-4.3,11.4-8.8,17.1-13.3c0.3-0.3,0.5-0.5,0.8-0.8c0.3-0.2,0.6-0.5,0.9-0.7c3.4-1.6,6.3-3.9,8.8-6.7c0.8-0.2,2-0.6,1.4-1.4
				c-0.7-1-1.7-0.4-2.3,0.6c-4,1.4-7.6,3.5-11,6c-4.8,1.1-8.3,5-14.3,4.8c-5.4-0.2-3.6-2-3.4-4.5c0.3-3.1,2.8-3.4,5-3.8
				c3.7-0.6,3.3-3.9,3.2-5.8c-0.1-2.8-2.6-0.3-3.9-0.7c-0.4-0.1-0.8-0.3-1.3-0.5c0.4-3.5,0.8-6.7,5.5-6.7c3.2,0,3.6-2.9,3.2-5.1
				c-0.5-2.7-2.7-0.9-4-0.6c-7.2,1.7-16-0.7-20.4,8.8c0.6-5.1-1.9-5.2-5-4.5c-1.8,0.1-3.6-0.3-5.2,0.8c-1.6,0.3-3.5-0.8-4.6,1.3
				c-1.2-0.6-2.5-0.5-3.8-0.1c-9.2,0.4-5.3,9.3-9.1,13.6c0-2.4,0.2-4.7-0.1-7c-0.2-1.6,1.5-4.7-1.8-4.7c-3.1,0-6.8-0.6-8,3.9
				c-2.6,10.1-5.5,20.1-8.1,30.3c-0.5,1.8-2.4,4.1-0.6,5.4c1.7,1.2,4.1-0.5,6.2-0.9c1.8-0.3,1.9-2.2,2.3-3.5c0.9-3,1.7-6,2.5-9
				c0.6,2,0.6,3.8,0.6,5.6c0,6.2,0,6.2,6.1,4.1c0.9,0.2,1.9,0.5,2.4-0.7c0.3,0,0.5-0.2,0.5-0.6c0.7,0.1,1.3,0.2,2,0.3
				c0.8,0.1,1.6,0.1,2.2-0.6c2.2,0.4,4-0.6,5.8-1.7c9.8,1.8,7.5-7.5,10.5-12c1.8,3.6-2,9.6,6.4,10c-12.6,6.8-24,13.3-35.7,19
				c-7.8,3.8-12.9,1.7-16.8-5.7c-0.3-4.6,0.8-9,1.6-14.2c-2.4,2.2-3.7,4.2-4.3,6.6l-0.4,0.2l0,0.4c-0.1,0.3-0.3,0.7-0.4,1
				L332.5,306.9z M200.4,224c-15.6-1.7-31-3.3-46.3-5c-2.3-0.3-3.6,0.2-4.3,2.8c-1.7,6.4-4.6,12.2-10.1,16.1
				c-1.9,1.3-1.1,2.3-0.3,3.6c3.3,5.2,7.2,10,12.1,13.8c13.3,10.6,26.4,8.9,36.6-4.8C193.8,242.7,197.5,233.9,200.4,224z
				 M387.1,195.4c1.9,4.7,4.9,7.9,10.7,6.5c1.7-0.4,3.6-0.3,5.5-0.3c3-0.1,3-1.7,2.1-3.9c-1.4-3.1-2.8-6.1-4.2-9.2 M416.7,193.7
				c2.3,5.4,4.4,8.5,9.8,6.5c2.9-0.1,5.1-0.2,7.2-0.4c1.7-0.1,2.1-0.6,1.2-2.5 M443.6,188.8c5,11.1,5.2,11.1,17.7,10
				c3.4-0.3,2.9-2,2.2-3.8 M54.5,289.1c1.1,14.8,2.3,29.1,3.1,43.3c0.2,3.6,1.7,4.8,4.8,5.4c24,5.1,48,10.3,72,15.7
				c3.7,0.8,4.1-0.4,3.9-3.6c-0.8-14-1.6-27.9-1.8-41.9c-0.1-4.5-2-5.5-5.7-6.1C105.7,297.7,80.5,293.4,54.5,289.1z M180.1,217.3
				c17.6,2.8,30.1,2.3,52.3-2.6C214.9,215.6,197.5,216.5,180.1,217.3z"/>
			<path class="st6" d="M420.7,285.2c-0.3,0.2-0.6,0.5-0.9,0.7c-0.3,0.3-0.5,0.5-0.8,0.8c-5.7,4.4-11.3,8.9-17.1,13.3
				c-16.3,12.3-32.6,24.6-49,36.8c-4.4,3.3-9.3,5.7-14.8,6.8c-8.9,1.7-15.3-3.7-14.6-12.6c0.6-8.5,4.1-16,8.4-23.2
				c0.2-0.3,0.4-0.6,0.7-1c0,0,0.1-0.2,0.1-0.2c0.5-0.2,0.8-0.5,0.4-1l0-0.4c0,0,0.4-0.2,0.4-0.2c3.9,1.4,0.7,5.5,2.8,7.6
				c4,7.4,9.1,9.5,16.8,5.7c11.7-5.8,23.1-12.3,35.7-19c-8.4-0.3-4.6-6.3-6.4-10c-3,4.6-0.7,13.8-10.5,12c2.4-8.9,4.6-17.9,7.1-26.8
				c0.9-3.3,0.9-6.9,3.4-9.7c3.1-0.8,5.6-0.6,5,4.5c4.5-9.5,13.3-7.1,20.4-8.8c1.3-0.3,3.5-2.1,4,0.6c0.4,2.2,0,5.1-3.2,5.1
				c-4.7,0.1-5.1,3.2-5.5,6.7c0.4,0.2,0.8,0.4,1.3,0.5c1.4,0.3,3.8-2.1,3.9,0.7c0.1,1.9,0.5,5.3-3.2,5.8c-2.3,0.3-4.7,0.7-5,3.8
				c-0.3,2.6-2.1,4.3,3.4,4.5c6,0.2,9.5-3.6,14.3-4.8C418.6,284.3,419.6,284.7,420.7,285.2z M397.7,266c-7.4,7.6-9.8,16.2-6.7,26.4
				C393.2,283.5,395.4,274.9,397.7,266z M390.1,298.5c-0.1-0.1-0.3-0.3-0.4-0.3c-0.3,0-0.6,0.2-0.8,0.3c0.1,0.1,0.2,0.3,0.3,0.3
				C389.5,298.7,389.8,298.6,390.1,298.5z"/>
			<path class="st6" d="M200.4,224c-2.9,9.9-6.5,18.7-12.4,26.5c-10.2,13.7-23.2,15.4-36.6,4.8c-4.9-3.9-8.7-8.6-12.1-13.8
				c-0.8-1.3-1.6-2.3,0.3-3.6c5.6-3.9,8.5-9.7,10.1-16.1c0.7-2.5,1.9-3,4.3-2.8C169.4,220.7,184.8,222.3,200.4,224z"/>
			<path class="st6" d="M401.2,188.5c1.5,3,2.8,6.1,4.2,9.2c1,2.1,0.9,3.8-2.1,3.9c-1.8,0-3.7-0.1-5.5,0.3
				c-5.8,1.4-8.9-1.8-10.7-6.5"/>
			<path class="st6" d="M434.9,197.3c0.9,1.9,0.5,2.4-1.2,2.5c-2.2,0.2-4.3,0.2-7.2,0.4c-5.4,2-7.5-1.2-9.8-6.5"/>
			<path class="st6" d="M463.5,194.9c0.7,1.8,1.2,3.5-2.2,3.8c-12.5,1.1-12.7,1.1-17.7-10"/>
			<path class="st6" d="M54.5,289.1c25.9,4.4,51.1,8.7,76.4,12.8c3.7,0.6,5.6,1.6,5.7,6.1c0.2,14,1,28,1.8,41.9
				c0.2,3.2-0.2,4.4-3.9,3.6c-24-5.4-48-10.5-72-15.7c-3.1-0.7-4.6-1.8-4.8-5.4C56.9,318.1,55.7,303.9,54.5,289.1z"/>
			<path class="st6" d="M358.8,304.8c-6.2,2.1-6.2,2.1-6.1-4.1c0-1.8,0-3.6-0.6-5.6c-0.8,3-1.6,6.1-2.5,9c-0.4,1.3-0.5,3.2-2.3,3.5
				c-2.1,0.4-4.5,2.1-6.2,0.9c-1.8-1.3,0.2-3.7,0.6-5.4c2.6-10.1,5.4-20.2,8.1-30.3c1.2-4.5,4.9-4,8-3.9c3.3,0,1.6,3,1.8,4.7
				c0.3,2.3,0.1,4.6,0.1,7c3.7-4.2-0.1-13.2,9.1-13.6c0.8,1,1.8,1.7,1.2,3.4c-1.1,3.1-1.7,6.4-2.5,9.6c-2,7.8-4.8,15.5-5.8,23.5
				c0,0.4-0.1,0.6-0.5,0.6C360.3,303.8,359.4,303.9,358.8,304.8z"/>
			<path class="st6" d="M365.9,303.2c-0.6,0.7-1.4,0.8-2.2,0.6c-0.1-3.6,1.1-6.8,2-10.2c2.3-8.8,4.5-17.6,6.8-26.4
				c1.1-2,3-1,4.6-1.3c2.2,1,1.4,2.6,1,4.2c-2.3,8.6-4.8,17.3-6.9,26C370.4,299.4,369.3,302,365.9,303.2z"/>
			<path class="st3" d="M180.1,217.3c17.4-0.9,34.9-1.8,52.3-2.6C210.1,219.6,197.7,220.1,180.1,217.3z"/>
			<path class="st3" d="M365.9,303.2c3.4-1.1,4.5-3.8,5.2-7.1c2.1-8.7,4.5-17.3,6.9-26c0.4-1.6,1.2-3.2-1-4.2
				c1.6-1.1,3.5-0.7,5.2-0.8c-2.5,2.7-2.5,6.4-3.4,9.7c-2.5,8.9-4.8,17.9-7.1,26.8C369.9,302.5,368.1,303.6,365.9,303.2z"/>
			<path class="st3" d="M372.5,267.1c-2.3,8.8-4.5,17.6-6.8,26.4c-0.9,3.4-2.1,6.7-2,10.2c-0.7-0.1-1.3-0.2-2-0.3
				c1-8.1,3.8-15.7,5.8-23.5c0.8-3.2,1.5-6.4,2.5-9.6c0.6-1.7-0.4-2.4-1.2-3.4C370,266.6,371.3,266.5,372.5,267.1z"/>
			<path class="st3" d="M420.7,285.2c-1-0.5-2.1-1-3.1-1.5c3.4-2.4,7-4.6,11-6c0.3,0.3,0.6,0.5,0.9,0.8
				C426.9,281.3,424,283.6,420.7,285.2z"/>
			<path class="st3" d="M336.1,312.7c-2.1-2.1,1.1-6.1-2.8-7.6c0.6-2.4,2-4.4,4.3-6.6C337,303.7,335.8,308.2,336.1,312.7z"/>
			<path class="st3" d="M428.6,277.8c0.6-1,1.6-1.6,2.3-0.6c0.5,0.8-0.7,1.2-1.4,1.4C429.1,278.3,428.9,278.1,428.6,277.8z"/>
			<path class="st3" d="M358.8,304.8c0.6-0.9,1.5-1,2.4-0.7C360.7,305.3,359.7,305,358.8,304.8z"/>
			<path class="st3" d="M418.9,286.7c0.3-0.3,0.5-0.5,0.8-0.8C419.4,286.2,419.2,286.5,418.9,286.7z"/>
			<path class="st3" d="M333,305.7c0.4,0.5,0.1,0.8-0.4,1C332.7,306.4,332.8,306.1,333,305.7z"/>
			<path class="st3" d="M332.5,306.9c-0.2,0.3-0.4,0.6-0.7,1C331.7,307.3,331.8,306.9,332.5,306.9z"/>
			<path class="st2" d="M397.7,266c-2.3,8.9-4.5,17.5-6.7,26.4C387.9,282.2,390.2,273.6,397.7,266z"/>
			<path class="st2" d="M390.1,298.5c-0.3,0.1-0.6,0.2-0.9,0.3c-0.1,0-0.2-0.2-0.3-0.3c0.3-0.1,0.5-0.2,0.8-0.3
				C389.8,298.2,390,298.4,390.1,298.5z"/>
			<path class="st2" d="M130.7,327.6c-0.1,0-0.2,0-0.3,0c-0.2-5-0.6-10-0.7-15c0-2-0.6-3-2.6-3.4c-18.2-3.1-36.3-6.2-54.5-9.5
				c-2.4-0.4-3.2,0-3,2.6c0.7,9,1.3,17.9,1.8,26.9c0.1,2.3,1.1,3.1,3.2,3.5c17.4,3.6,34.8,7.2,52.1,10.9c2.9,0.6,4.3,0.4,4-3.2
				C130.5,336.3,130.7,332,130.7,327.6z"/>
			<path class="st6" d="M133.4,328.1c0,4.7-0.3,9.4,0.1,14.1c0.3,3.9-1.2,4.1-4.4,3.5c-18.9-4-37.8-8-56.7-11.9
				c-2.3-0.5-3.4-1.4-3.5-3.8c-0.5-9.8-1.2-19.5-1.9-29.3c-0.2-2.8,0.7-3.3,3.3-2.9c19.7,3.5,39.5,6.9,59.3,10.3
				c2.2,0.4,2.8,1.5,2.9,3.7c0.1,5.4,0.5,10.9,0.7,16.3C133.2,328.1,133.3,328.1,133.4,328.1z"/>
		</g>
		<path class="st2" d="M502,316.2"/>
	</g>
	<g id="Layer_7" class="st1">
		<polygon class="st5" points="75.3,199.9 53.6,203.4 53.6,339.4 232.6,380.7 501.5,313.3 501.5,235.6 509.7,233.4 507.1,189.1 
			484.7,186.1 		"/>
		<line class="st5" x1="232.6" y1="380.7" x2="229.6" y2="283.4"/>
		<path class="st5" d="M501.5,235.6l-268.9,45.9c0,0-169-25.4-172-27.6c-3-2.2-9.1-6.1-10-20c-0.9-13.9,0-29.5,0-29.5l179,20.6
			l277.7-33.3"/>
		<line class="st5" x1="229.6" y1="224.9" x2="232.6" y2="281.4"/>
		<path class="st5" d="M115.3,219.4c0,0-2.8,18.1,11.9,20.2c14.3,2.3,19.1-7.2,22.3-20.9l-34.4-7L115.3,219.4z"/>
		<path class="st5" d="M123.8,217.8c0,0,3.3,16.1,15,19.2c0.2,0.1,0.3,0.4,0,0.5c-4.3,1.5-25.7,7.4-22.7-18.7L123.8,217.8z"/>
	</g>
	<g id="Layer_12" class="st1">
		<path class="st2" d="M35.7,162.9l-12.2-23.6L64.8,3c0,0,170.9-3.7,183.5-2.9C260.8,1,310.4,3,310.4,3h149.3
			c0,0,12.2,13.2,12.3,16.2c0.1,3,6.9,13.5,6.9,13.5l-35.3,104.5L75.3,162.9c0,0-18.1,1.6-25.1,2.4S35.7,162.9,35.7,162.9z"/>
		<polygon class="st7" points="77.5,36.2 453.8,32.9 426,101.1 79.7,138.7 44.3,138.3 		"/>
		<path class="st8" d="M473.5,33.8h-19.7l-27.4,64.5l26.5-0.2c0,0,4.3-7.2,5.1-10.9c0,0,19.9-52.4,20.3-53.4
			C478.9,32.7,473.5,33.8,473.5,33.8z"/>
		<polyline class="st9" points="36.9,163.4 58.5,163.5 58.8,138.3 44.3,139.3 36.9,163.7 		"/>
	</g>
	<g id="Layer_9" class="st1">
		<polyline class="st10" points="35.7,164.3 23.5,139.3 64.8,3 459.6,3 478.9,32.7 423.4,161 		"/>
		<polyline class="st10" points="64.8,3 77.2,35.4 478.9,32.7 		"/>
		<polyline class="st10" points="77.2,35.4 36.1,163.7 423.4,161 411.4,135.2 452.9,32.9 		"/>
		<line class="st10" x1="44" y1="139.3" x2="411.4" y2="135.2"/>
	</g>
	<g id="Layer_2_copy_3" class="st1">
		<g>
			<path class="st2" d="M100.5,103.1l384.9-4.8c-1.9,0.8,2.6,5.7,2.6,7.1c0,6.8,0.2,13.7,0.3,20.5c0.3,18.1-2.8,36-2.5,54.1
				l-1.3,20.4l-377.5,17.4l-41.3-21.2c-4.1-2.2-5.6-5.6-6.2-10.1c-3.4-26.8-0.5-52.9-1.5-79.8c-0.1-2.4,1.5-5.3-0.6-7.1L100.5,103.1
				z M161.8,159.9c0.3,0.6,0.5,1.2,0.9,1.7c1,1.3,1.4,3.9,3.7,3.1c2-0.7,3.4-3.3,3.2-5.1c-0.3-2.1-3-1-4.6-1.1
				c-1.1-0.1-2.3-0.2-3.2,0.8c-4.7-1.4-9.3-0.5-14.9,0c3,3,5.7,4,8.5,4.9C161.2,166.1,161.5,165.9,161.8,159.9z M162,184
				c1.8-1.3,3.3-0.1,5.1,0.5c4.1,1.4,8.5-0.4,9.2-3.4c3.3,3.1,9.7,4.3,12.1,2.3c1.1-1,1.2-10.9-0.3-11.4c-4.4-1.6-8.7-1.3-12.1,3.1
				c-0.1-1.6-0.1-2.6-0.2-3.6c-0.1-1.4,0.5-3.3-1.5-3.7c-2-0.4-1.8,2.1-2.6,2.7c-2.4,1.6-5.3,2.5-8.1,3.4c-0.7,0.3-0.9-0.9-1-1.4
				c-0.3-1.8,0.8-4.7-2.5-4.2c-2.1,0.3-5.8-1.3-5.9,3.3c0,1.5-1.4,0.9-2.3,1c-1.9,0.1-3.6,0.4-4.9,1.9c-0.4,0.5-1.4,1.8-1.7,0.5
				c-1.1-4-4.2-1.7-6.2-1.9c-4.1-0.4-7.3,2.8-7.2,6.4c0.2,4.3,3.6,7.1,8.1,6.6c3.9-0.4,7.5-2.1,11.8-0.7c2.2,0.8,5.6,0.3,8-1.6
				C160.3,185.5,161.1,185.4,162,184z M352.5,102.3c-1.2,0-2.3,0-3.5,0c-5.6,0.2-5.8,0.3-3.2,5.3c6,11.5,11.5,23.3,16.9,35.1
				c8,17.6,17.3,34.6,24.4,52.6c1.9,4.7,4.9,7.9,10.7,6.5c1.7-0.4,3.6-0.3,5.5-0.3c3-0.1,3-1.7,2.1-3.9c-1.4-3.1-2.8-6.1-4.2-9.2
				c-6.4-13.2-13.2-26.2-19-39.6c-5.4-12.4-11.9-24.2-16.8-36.9C361.8,102.5,361,102.2,352.5,102.3z M426.5,200.2
				c2.9-0.1,5.1-0.2,7.2-0.4c1.7-0.1,2.1-0.6,1.2-2.5c-5.7-12.2-10.8-24.7-16.7-36.8c-8.3-17.1-16.2-34.4-23.7-51.8
				c-1.9-4.3-4.3-8.2-10.2-6.7c-1.9,0.5-4,0.2-6,0.1c-3.6-0.2-3.8,1.3-2.5,4.2c7.6,16.3,15,32.7,22.6,49c6,12.8,12.6,25.4,18.2,38.4
				C419,199,421.1,202.2,426.5,200.2z M414.7,101.7c-2.6,0-4.4,0.2-6.2,0c-3.5-0.4-3.5,1.8-2.6,3.8c4.9,10.9,10,21.7,14.9,32.5
				c7.6,16.9,15.2,33.8,22.8,50.8c5,11.1,5.2,11.1,17.7,10c3.4-0.3,2.9-2,2.2-3.8c-2.4-5.9-5-11.8-7.7-17.6
				c-10-21.5-19.6-43.2-29.1-64.8C424.3,107.4,423.9,98.6,414.7,101.7z M85.7,195.2c0-11.3,0.2-22.7-0.1-34
				c-0.3-14.6-0.5-14.6-14.3-18.7c-0.2,0-0.3-0.1-0.5-0.2c-2.5-1.1-3.6-0.6-3.4,2.4c0.6,9,0.6,18,1.6,26.9
				c0.6,5.2-1.6,11.4,2.1,15.3c3.5,3.7,9.1,5.4,13.7,7.9C85.4,195.1,85.8,195.3,85.7,195.2z M356.3,98.1 M418.2,97.1
				c0.2,0,0.3,0,0.5,0 M387.6,97.5c0.2,0,0.3,0,0.5,0 M369.6,85.8 M164.8,145.7c2.2,0,4.3,0,6.5,0c2,0,3.2-0.9,3.2-2.9
				c-0.1-9.4-2.4-18.1-8.2-25.6c-1.2-1.5-2.3-1.8-3.5,0c-3.6,5.2-6.2,11.1-7.1,17.3C154.1,145,155.4,146.2,164.8,145.7z
				 M144.5,146.2c2.3,0,4.7,0.1,7,0c1.1-0.1,2.5,0.6,3.1-0.7c0.6-1.3-0.6-2.2-1.3-3c-4.7-5.3-10.5-9.2-17.2-11.5
				c-5.4-1.8-6.6-0.6-5.2,5.1C133.4,146.9,133.6,147,144.5,146.2z M185.7,145.4c10.7-0.5,11.3-1,13-10.9c0.1-0.5,0.1-1,0.1-1.5
				c0.5-3.5-0.4-5-4.3-3.7c-7.2,2.4-12.9,6.7-17.4,12.7c-0.6,0.8-1.6,1.5-1.1,2.6c0.5,1.2,1.7,0.7,2.6,0.7
				C181,145.4,183.3,145.4,185.7,145.4z M161.3,201.1c4.8-0.5,9.7-1.4,14.5-1.4c2.1,0,3-0.7,4-2c0.5-0.6,1.8-0.9,0.7-2.1
				c-0.6-0.6-0.9-0.8-1.9-0.7c-5.3,0.8-10.7,0.4-16.1,0.2c-4.4-0.2-8.8,0-13.3,0.2c-2.2,0.1-2.8,2-2.4,4.1c0.3,1.7,1.3,3,3.1,2.2
				C153.6,199.7,157.4,201.1,161.3,201.1z M165.7,146.9c0,0.5,0,1,0,1.6c-8.6,0-17.3,0-25.9,0c-1,0-2.7-0.5-2.8,1.1
				c-0.1,1.5,1.1,2.3,2.6,2.4c0.8,0,1.7,0.1,2.5,0c15.1-0.4,30.2-0.8,45.4-1.3c1.2,0,2.3-0.2,3.5-0.3c1.5-0.1,2.7-1,2.7-2.4
				c-0.1-2.2-1.9-1.1-3-1.1C182.3,146.9,174,146.9,165.7,146.9z M141.4,155.2c0.7,1.7,2,2.2,3.6,2.1c13.6-0.4,27.3-0.8,40.9-1.3
				c1.6,0,3.5-0.7,3.5-2.2c0-2.3-2.3-1.3-3.5-1.3c-13.1,0.3-26.3,0.7-39.4,1.2C144.7,153.9,142.8,153.4,141.4,155.2z M195.6,180.4
				c-1.3,0.8-1.9,0.1-2.6-0.3c-1.1-0.7-2.6-1.5-3.4,0.2c-0.7,1.3,0.6,2.9,1.4,3.4c2.3,1.5,4.7,1.1,7-0.7c2.1-1.6,2.5-3.4,1.3-5.6
				c-0.4-0.7-1.5-0.8-0.8-2.3c1.5-3-1.1-3.7-3.1-4.1c-2.7-0.6-5,0.2-5.9,3.1c-0.7,2.3,0.5,3.8,2.6,4.6
				C193.2,179.2,194.8,178.9,195.6,180.4z M184.3,158.4c-4.1,0-7.3-0.1-10.5,0c-1.3,0-3.3-0.6-3.4,1.7c-0.1,1.4-0.9,3.1,0.4,4.3
				c1.2,1,2.5,0.1,3.7-0.3C177.9,163,181,161.4,184.3,158.4z M152,191.3c12.4,1.8,24.8-0.8,37.3-0.8
				C176.9,189.2,164.5,192,152,191.3z"/>
			<path class="st6" d="M352.5,102.3c8.5-0.1,9.3,0.2,12.9,9.7c4.9,12.6,11.4,24.5,16.8,36.9c5.8,13.4,12.6,26.4,19,39.6
				c1.5,3,2.8,6.1,4.2,9.2c1,2.1,0.9,3.8-2.1,3.9c-1.8,0-3.7-0.1-5.5,0.3c-5.8,1.4-8.9-1.8-10.7-6.5c-7.1-18-16.4-35-24.4-52.6
				c-5.4-11.8-10.9-23.6-16.9-35.1c-2.6-5.1-2.4-5.2,3.2-5.3C350.2,102.3,351.3,102.3,352.5,102.3z"/>
			<path class="st6" d="M426.5,200.2c-5.4,2-7.5-1.2-9.8-6.5c-5.6-13-12.2-25.6-18.2-38.4c-7.6-16.3-15-32.7-22.6-49
				c-1.3-2.9-1.2-4.4,2.5-4.2c2,0.1,4.1,0.3,6-0.1c6-1.4,8.4,2.4,10.2,6.7c7.5,17.4,15.4,34.7,23.7,51.8c5.9,12.1,11,24.6,16.7,36.8
				c0.9,1.9,0.5,2.4-1.2,2.5C431.6,200,429.4,200.1,426.5,200.2z"/>
			<path class="st6" d="M414.7,101.7c9.1-3.1,9.6,5.7,11.9,10.8c9.6,21.7,19.1,43.4,29.1,64.8c2.7,5.8,5.3,11.7,7.7,17.6
				c0.7,1.8,1.2,3.5-2.2,3.8c-12.5,1.1-12.7,1.1-17.7-10c-7.6-16.9-15.1-33.9-22.8-50.8c-4.9-10.9-10.1-21.6-14.9-32.5
				c-0.9-2-0.9-4.2,2.6-3.8C410.3,101.9,412.1,101.7,414.7,101.7z"/>
			<path class="st6" d="M85.7,195.2c0.1,0-0.3-0.1-0.8-0.4c-4.7-2.6-10.2-4.2-13.7-7.9c-3.7-3.9-1.5-10.1-2.1-15.3
				c-1-8.9-1-17.9-1.6-26.9c-0.2-3.1,0.9-3.5,3.4-2.4c0.2,0.1,0.3,0.2,0.5,0.2c13.8,4.2,14,4.2,14.3,18.7
				C85.9,172.6,85.7,183.9,85.7,195.2z"/>
			<path class="st6" d="M326.2,4.7c9-3.6,9.1,5.8,11.9,10.6c4.5,7.8,2.6,4.9,6.6,13.1c1.7,3.5-2.1,2.4-5.8,3.3
				c-13.7,1.2-12.8-3.5-15.4-8.1c-2.9-6.6-2.4-6.4-5.2-13.1c-2.4-5.7-2.4-5.7,3.5-5.7C322.8,4.7,324,4.7,326.2,4.7z"/>
			<path class="st6" d="M383,4c9-0.2,8.8-0.1,12.3,8.3c3.8,9.3,3,5.9,7.2,15c1.3,2.8,0.8,4-2.3,3.9c-0.2,0-0.3,0-0.5,0
				c-12.8,0.7-11.9,1.7-14.4-1.3c-3-6.5-5.6-13.3-8.4-19.9c-2.6-5.9-2.6-5.9,3.2-6C381,4,382,4,383,4z"/>
			<path class="st6" d="M344.2,4.6c0.9-0.3,1.1-0.4,1.2-0.4c16.6-0.8,16.8-0.8,23,14.5c2.9,7.1,0,1.3,3.3,8.1
				c1.4,2.8,3.3,4.3,0.2,4.4c-0.2,0-2.7-0.3-2.9-0.3c-15.2-0.1-11.2,3-18.1-11.7C346.8,10.1,348.6,13.8,344.2,4.6z"/>
			<path class="st3" d="M159.6,183.9c-2.4,1.9-5.8,2.3-8,1.6c-4.3-1.5-7.9,0.2-11.8,0.7c-4.5,0.5-8-2.3-8.1-6.6
				c-0.1-3.6,3.1-6.8,7.2-6.4c2,0.2,5.1-2.1,6.2,1.9c0.4,1.2,1.3,0,1.7-0.5c1.3-1.5,3.1-1.8,4.9-1.9c0.9-0.1,2.3,0.5,2.3-1
				c0-4.6,3.8-2.9,5.9-3.3c3.2-0.5,2.2,2.4,2.5,4.2c0.1,0.6,0.2,1.7,1,1.4c2.8-0.9,5.7-1.8,8.1-3.4c0.8-0.5,0.6-3,2.6-2.7
				c2,0.4,1.4,2.3,1.5,3.7c0.1,1,0.1,2,0.2,3.6c3.4-4.5,7.7-4.7,12.1-3.1c1.4,0.5,1.4,10.4,0.3,11.4c-2.3,2-8.8,0.8-12.1-2.3
				c-0.7,3-5.1,4.8-9.2,3.4c-1.7-0.6-3.2-1.7-5.1-0.5c-0.8-3.4,0.3-7-1.9-10.3C159.9,177.1,159.7,180.5,159.6,183.9z M138.4,182.5
				c1.9-0.2,2.7-1.5,2.7-3.1c0-1.6-1.1-2.8-2.9-2.8c-1.7,0.1-2.7,1.1-2.6,2.9C135.8,181.4,136.9,182.2,138.4,182.5z M151.4,176.3
				c-1.4,0.1-2.4,1.1-2.4,2.8c0,1.5,0.8,2.6,2.3,2.7c1.7,0.1,2.9-0.8,3-2.6C154.4,177.7,153.6,176.4,151.4,176.3z M168.9,175.4
				c-1.2,0.5-2.5,1.3-2.4,3.1c0.1,1.7,1.3,2.6,3,2.5c1.6-0.1,2.4-1.1,2.3-2.6C171.8,176.7,171,175.6,168.9,175.4z M182.4,175.1
				c-1.6,0.1-2.6,1-2.7,2.7c0,1.5,0.8,2.6,2.2,2.7c2,0.2,3.1-1.3,3.1-3C185.2,176.2,184,175.3,182.4,175.1z"/>
			<path class="st6" d="M164.8,145.7c-9.4,0.4-10.7-0.7-9.2-11.3c0.9-6.2,3.5-12,7.1-17.3c1.2-1.8,2.3-1.5,3.5,0
				c5.8,7.6,8.1,16.2,8.2,25.6c0,2-1.1,3-3.2,2.9C169.1,145.7,167,145.7,164.8,145.7z"/>
			<path class="st6" d="M144.5,146.2c-10.9,0.8-11.1,0.6-13.6-10.2c-1.3-5.6-0.2-6.9,5.2-5.1c6.7,2.3,12.4,6.2,17.2,11.5
				c0.7,0.8,1.9,1.7,1.3,3c-0.6,1.3-2.1,0.7-3.1,0.7C149.2,146.3,146.8,146.2,144.5,146.2z"/>
			<path class="st6" d="M185.7,145.4c-2.3,0-4.7,0-7,0c-0.9,0-2.1,0.5-2.6-0.7c-0.5-1.1,0.5-1.8,1.1-2.6c4.5-6,10.1-10.4,17.4-12.7
				c4-1.3,4.8,0.2,4.3,3.7c-0.1,0.5-0.1,1-0.1,1.5C197,144.4,196.3,144.9,185.7,145.4z"/>
			<path class="st3" d="M161.3,201.1c-3.8,0-7.7-1.4-11.5,0.5c-1.8,0.9-2.7-0.5-3.1-2.2c-0.4-2.1,0.2-4,2.4-4.1
				c4.4-0.2,8.9-0.4,13.3-0.2c5.4,0.2,10.7,0.6,16.1-0.2c1.1-0.2,1.4,0.1,1.9,0.7c1.2,1.2-0.2,1.5-0.7,2.1c-1,1.2-1.8,2-4,2
				C170.9,199.7,166.1,200.6,161.3,201.1z"/>
			<path class="st3" d="M165.7,146.9c8.3,0,16.6,0,24.9,0c1.1,0,3-1.1,3,1.1c0,1.4-1.2,2.3-2.7,2.4c-1.2,0.1-2.3,0.3-3.5,0.3
				c-15.1,0.4-30.2,0.9-45.4,1.3c-0.8,0-1.7,0-2.5,0c-1.5-0.1-2.7-0.9-2.6-2.4c0.1-1.6,1.8-1.1,2.8-1.1c8.6-0.1,17.3,0,25.9,0
				C165.7,148,165.7,147.5,165.7,146.9z"/>
			<path class="st3" d="M141.4,155.2c1.3-1.7,3.3-1.3,5-1.3c13.1-0.5,26.3-0.9,39.4-1.2c1.2,0,3.5-1,3.5,1.3c0,1.5-1.8,2.1-3.5,2.2
				c-13.6,0.4-27.3,0.8-40.9,1.3C143.4,157.3,142.1,156.8,141.4,155.2z"/>
			<path class="st3" d="M195.6,180.4c-0.8-1.5-2.3-1.2-3.5-1.6c-2.1-0.9-3.3-2.3-2.6-4.6c0.9-2.9,3.2-3.7,5.9-3.1
				c2,0.4,4.6,1.1,3.1,4.1c-0.7,1.5,0.4,1.6,0.8,2.3c1.2,2.2,0.7,3.9-1.3,5.6c-2.3,1.8-4.7,2.2-7,0.7c-0.8-0.5-2.1-2.1-1.4-3.4
				c0.8-1.7,2.2-0.9,3.4-0.2C193.7,180.5,194.3,181.1,195.6,180.4z"/>
			<path class="st3" d="M161.8,159.9c-0.3,6-0.7,6.2-6.4,4.3c-2.8-0.9-5.6-1.9-8.5-4.9c5.6-0.5,10.2-1.4,14.9,0
				C161.9,159.5,161.9,159.7,161.8,159.9z"/>
			<path class="st6" d="M184.3,158.4c-3.3,3-6.4,4.7-9.9,5.7c-1.2,0.4-2.6,1.3-3.7,0.3c-1.3-1.2-0.5-2.8-0.4-4.3
				c0.1-2.3,2.1-1.7,3.4-1.7C177,158.3,180.2,158.4,184.3,158.4z"/>
			<path class="st3" d="M152,191.3c12.5,0.6,24.9-2.1,37.3-0.8C176.9,190.6,164.5,193.1,152,191.3z"/>
			<path class="st6" d="M161.8,159.9c0.1-0.2,0-0.4,0-0.6c0.9-0.9,2.1-0.8,3.2-0.8c1.7,0.1,4.3-0.9,4.6,1.1c0.2,1.8-1.2,4.3-3.2,5.1
				c-2.3,0.8-2.6-1.8-3.7-3.1C162.4,161.1,162.1,160.5,161.8,159.9z"/>
			<path class="st6" d="M159.6,183.9c0.2-3.4,0.3-6.7,0.5-10.1c2.3,3.3,1.1,6.9,1.9,10.3C161.1,185.4,160.3,185.5,159.6,183.9z"/>
			<path class="st2" d="M138.4,182.5c-1.6-0.3-2.6-1.1-2.7-2.9c-0.1-1.8,0.9-2.9,2.6-2.9c1.7-0.1,2.9,1.1,2.9,2.8
				C141.2,181,140.3,182.3,138.4,182.5z"/>
			<path class="st2" d="M151.4,176.3c2.2,0.1,3,1.3,2.9,3c-0.1,1.7-1.3,2.7-3,2.6c-1.6-0.1-2.3-1.3-2.3-2.7
				C149,177.4,150,176.4,151.4,176.3z"/>
			<path class="st2" d="M168.9,175.4c2,0.2,2.9,1.3,3,3c0.1,1.5-0.7,2.5-2.3,2.6c-1.8,0.1-2.9-0.8-3-2.5
				C166.4,176.8,167.7,176,168.9,175.4z"/>
			<path class="st2" d="M182.4,175.1c1.7,0.2,2.8,1,2.7,2.5c-0.1,1.7-1.1,3.2-3.1,3c-1.5-0.1-2.3-1.3-2.2-2.7
				C179.8,176.1,180.8,175.2,182.4,175.1z"/>
		</g>
	</g>
	<g id="Layer_2">
		<g class="st1">
			<path class="st6" d="M256.8,850.9c-0.3-0.1-0.6-0.1-0.9-0.2c0-1.8-0.2-3.6,0-5.3c0.5-3.6,1.3-7.2,1.8-10.8
				c0.2-1.2,0.5-2.9-1.1-3.5c-1.7-0.6-2.4,1.1-2.9,2.1c-2.1,4.2-3.9,8.4-5.2,12.9c-0.8,2.6-1.8,5.2-2.7,7.8
				c0.4-5.7,1.8-10.9,2.5-16.3c0.2-2-0.4-3.7-2.2-4.6c-1.5-0.8-3.2-0.3-3.9,1.1c-3.4,6.7-7.9,12.9-8.4,20.7
				c-0.2,2.6-0.2,5.3-0.7,7.9c-0.5,3-1,6.6,2.9,7.9c5.5,1.9,7.8,0.8,9.8-4.2c1.5-3.8,3-7.5,4.6-11.7c3.7,5.2,5.5,5.2,8.8,0.5
				c1.8-2.5,3.4-5.1,5.3-7.9c2,3.8,5.2,4.2,8.4,3.2c11.5-3.8,22.7-8.5,34.8-10.3c1.1-0.2,2.7-0.7,2.5-2c-0.2-1.7-2-1.7-3.2-1.4
				c-5,1-10.3,0.9-15.2,2.7c-6.1,2.3-12.2,4.2-18.3,6.5c-2.4,0.9-3.9,0.7-5.4-1.7c-2.1-3.5-4.4-3.5-6.9-0.1
				C259.5,846.4,258.2,848.7,256.8,850.9z"/>
			<path class="st2" d="M484.5,200.4l-377.5,17.4l-41.3-21.2c-4.1-2.2-5.6-5.6-6.2-10.1c-3.4-26.8-2.9-53.9-3.9-80.8
				c-0.1-2.4-0.2-4.4-2.3-6.1c-1.7-1.4-2-3.8-2-6c-0.3-10.5,0.3-21,1-31.4c0.2-2.6,1.8-3.7,4-4.4c3.7-1.2,7.6-0.6,11.4-1
				c31.3-2.8,62.6-1.9,93.9-1.9c90.1-0.2,180.3-1.1,270.4-2.4c17.3-0.2,34.7-0.5,52-0.7c6.5-0.1,7.1,0.6,7.3,7.1
				c0.3,11.7,0.7,23.3,1,35c0.1,3,0.3,6.1-3.2,7.6c-1.9,0.8-1.1,2.6-1.1,4c0,6.8,0.2,13.7,0.3,20.5c0.3,18.1-2.8,36-2.5,54.1
				L484.5,200.4z M161.8,159.9c0.3,0.6,0.5,1.2,0.9,1.7c1,1.3,1.4,3.9,3.7,3.1c2-0.7,3.4-3.3,3.2-5.1c-0.3-2.1-3-1-4.6-1.1
				c-1.1-0.1-2.3-0.2-3.2,0.8c-4.7-1.4-9.3-0.5-14.9,0c3,3,5.7,4,8.5,4.9C161.2,166.1,161.5,165.9,161.8,159.9z M162,184
				c1.8-1.3,3.3-0.1,5.1,0.5c4.1,1.4,8.5-0.4,9.2-3.4c3.3,3.1,9.7,4.3,12.1,2.3c1.1-1,1.2-10.9-0.3-11.4c-4.4-1.6-8.7-1.3-12.1,3.1
				c-0.1-1.6-0.1-2.6-0.2-3.6c-0.1-1.4,0.5-3.3-1.5-3.7c-2-0.4-1.8,2.1-2.6,2.7c-2.4,1.6-5.3,2.5-8.1,3.4c-0.7,0.3-0.9-0.9-1-1.4
				c-0.3-1.8,0.8-4.7-2.5-4.2c-2.1,0.3-5.8-1.3-5.9,3.3c0,1.5-1.4,0.9-2.3,1c-1.9,0.1-3.6,0.4-4.9,1.9c-0.4,0.5-1.4,1.8-1.7,0.5
				c-1.1-4-4.2-1.7-6.2-1.9c-4.1-0.4-7.3,2.8-7.2,6.4c0.2,4.3,3.6,7.1,8.1,6.6c3.9-0.4,7.5-2.1,11.8-0.7c2.2,0.8,5.6,0.3,8-1.6
				C160.3,185.5,161.1,185.4,162,184z M352.5,102.3c-1.2,0-2.3,0-3.5,0c-5.6,0.2-5.8,0.3-3.2,5.3c6,11.5,11.5,23.3,16.9,35.1
				c8,17.6,17.3,34.6,24.4,52.6c1.9,4.7,4.9,7.9,10.7,6.5c1.7-0.4,3.6-0.3,5.5-0.3c3-0.1,3-1.7,2.1-3.9c-1.4-3.1-2.8-6.1-4.2-9.2
				c-6.4-13.2-13.2-26.2-19-39.6c-5.4-12.4-11.9-24.2-16.8-36.9C361.8,102.5,361,102.2,352.5,102.3z M426.5,200.2
				c2.9-0.1,5.1-0.2,7.2-0.4c1.7-0.1,2.1-0.6,1.2-2.5c-5.7-12.2-10.8-24.7-16.7-36.8c-8.3-17.1-16.2-34.4-23.7-51.8
				c-1.9-4.3-4.3-8.2-10.2-6.7c-1.9,0.5-4,0.2-6,0.1c-3.6-0.2-3.8,1.3-2.5,4.2c7.6,16.3,15,32.7,22.6,49c6,12.8,12.6,25.4,18.2,38.4
				C419,199,421.1,202.2,426.5,200.2z M414.7,101.7c-2.6,0-4.4,0.2-6.2,0c-3.5-0.4-3.5,1.8-2.6,3.8c4.9,10.9,10,21.7,14.9,32.5
				c7.6,16.9,15.2,33.8,22.8,50.8c5,11.1,5.2,11.1,17.7,10c3.4-0.3,2.9-2,2.2-3.8c-2.4-5.9-5-11.8-7.7-17.6
				c-10-21.5-19.6-43.2-29.1-64.8C424.3,107.4,423.9,98.6,414.7,101.7z M85.7,195.2c0-11.3,0.2-22.7-0.1-34
				c-0.3-14.6-0.5-14.6-14.3-18.7c-0.2,0-0.3-0.1-0.5-0.2c-2.5-1.1-3.6-0.6-3.4,2.4c0.6,9,0.6,18,1.6,26.9
				c0.6,5.2-1.6,11.4,2.1,15.3c3.5,3.7,9.1,5.4,13.7,7.9C85.4,195.1,85.8,195.3,85.7,195.2z M335.7,58.1c-2.2,0-3.4,0-4.5,0
				c-5.9,0.1-5.8,0.1-3.5,5.7c2.8,6.7,6.3,13,9.2,19.7c3.6,8.1,6.4,17.8,19.4,14.6c3.8-0.9,4.6-1.3,2.9-4.8
				c-3.9-8.2-7.1-16.8-11.6-24.6C344.9,63.9,344.7,54.5,335.7,58.1z M396.5,57.3c-1,0-2,0-3,0c-5.8,0.1-5.8,0.1-3.2,6
				c2.9,6.6,5.5,13.3,8.4,19.9c6.6,14.7,6.7,14.6,19.5,13.9c0.2,0,0.3,0,0.5,0c3.1,0.1,3.6-1.1,2.3-3.9c-4.2-9.1-8.4-18.3-12.2-27.6
				C405.3,57.2,405.5,57.1,396.5,57.3z M356.6,58.4c4.4,9.2,8.7,18.3,13,27.3c6.9,14.7,2.9,11.6,18.1,11.7c0.2,0,0.3,0,0.5,0
				c3.1-0.1,3.5-1.4,2.2-4.1c-3.4-6.8-6.6-13.7-9.5-20.8c-6.2-15.3-6.4-15.2-23-14.5C357.7,58,357.5,58.1,356.6,58.4z M164.8,145.7
				c2.2,0,4.3,0,6.5,0c2,0,3.2-0.9,3.2-2.9c-0.1-9.4-2.4-18.1-8.2-25.6c-1.2-1.5-2.3-1.8-3.5,0c-3.6,5.2-6.2,11.1-7.1,17.3
				C154.1,145,155.4,146.2,164.8,145.7z M144.5,146.2c2.3,0,4.7,0.1,7,0c1.1-0.1,2.5,0.6,3.1-0.7c0.6-1.3-0.6-2.2-1.3-3
				c-4.7-5.3-10.5-9.2-17.2-11.5c-5.4-1.8-6.6-0.6-5.2,5.1C133.4,146.9,133.6,147,144.5,146.2z M185.7,145.4
				c10.7-0.5,11.3-1,13-10.9c0.1-0.5,0.1-1,0.1-1.5c0.5-3.5-0.4-5-4.3-3.7c-7.2,2.4-12.9,6.7-17.4,12.7c-0.6,0.8-1.6,1.5-1.1,2.6
				c0.5,1.2,1.7,0.7,2.6,0.7C181,145.4,183.3,145.4,185.7,145.4z M161.3,201.1c4.8-0.5,9.7-1.4,14.5-1.4c2.1,0,3-0.7,4-2
				c0.5-0.6,1.8-0.9,0.7-2.1c-0.6-0.6-0.9-0.8-1.9-0.7c-5.3,0.8-10.7,0.4-16.1,0.2c-4.4-0.2-8.8,0-13.3,0.2c-2.2,0.1-2.8,2-2.4,4.1
				c0.3,1.7,1.3,3,3.1,2.2C153.6,199.7,157.4,201.1,161.3,201.1z M165.7,146.9c0,0.5,0,1,0,1.6c-8.6,0-17.3,0-25.9,0
				c-1,0-2.7-0.5-2.8,1.1c-0.1,1.5,1.1,2.3,2.6,2.4c0.8,0,1.7,0.1,2.5,0c15.1-0.4,30.2-0.8,45.4-1.3c1.2,0,2.3-0.2,3.5-0.3
				c1.5-0.1,2.7-1,2.7-2.4c-0.1-2.2-1.9-1.1-3-1.1C182.3,146.9,174,146.9,165.7,146.9z M141.4,155.2c0.7,1.7,2,2.2,3.6,2.1
				c13.6-0.4,27.3-0.8,40.9-1.3c1.6,0,3.5-0.7,3.5-2.2c0-2.3-2.3-1.3-3.5-1.3c-13.1,0.3-26.3,0.7-39.4,1.2
				C144.7,153.9,142.8,153.4,141.4,155.2z M195.6,180.4c-1.3,0.8-1.9,0.1-2.6-0.3c-1.1-0.7-2.6-1.5-3.4,0.2
				c-0.7,1.3,0.6,2.9,1.4,3.4c2.3,1.5,4.7,1.1,7-0.7c2.1-1.6,2.5-3.4,1.3-5.6c-0.4-0.7-1.5-0.8-0.8-2.3c1.5-3-1.1-3.7-3.1-4.1
				c-2.7-0.6-5,0.2-5.9,3.1c-0.7,2.3,0.5,3.8,2.6,4.6C193.2,179.2,194.8,178.9,195.6,180.4z M184.3,158.4c-4.1,0-7.3-0.1-10.5,0
				c-1.3,0-3.3-0.6-3.4,1.7c-0.1,1.4-0.9,3.1,0.4,4.3c1.2,1,2.5,0.1,3.7-0.3C177.9,163,181,161.4,184.3,158.4z M152,191.3
				c12.4,1.8,24.8-0.8,37.3-0.8C176.9,189.2,164.5,192,152,191.3z"/>
			<path class="st6" d="M352.5,102.3c8.5-0.1,9.3,0.2,12.9,9.7c4.9,12.6,11.4,24.5,16.8,36.9c5.8,13.4,12.6,26.4,19,39.6
				c1.5,3,2.8,6.1,4.2,9.2c1,2.1,0.9,3.8-2.1,3.9c-1.8,0-3.7-0.1-5.5,0.3c-5.8,1.4-8.9-1.8-10.7-6.5c-7.1-18-16.4-35-24.4-52.6
				c-5.4-11.8-10.9-23.6-16.9-35.1c-2.6-5.1-2.4-5.2,3.2-5.3C350.2,102.3,351.3,102.3,352.5,102.3z"/>
			<path class="st6" d="M426.5,200.2c-5.4,2-7.5-1.2-9.8-6.5c-5.6-13-12.2-25.6-18.2-38.4c-7.6-16.3-15-32.7-22.6-49
				c-1.3-2.9-1.2-4.4,2.5-4.2c2,0.1,4.1,0.3,6-0.1c6-1.4,8.4,2.4,10.2,6.7c7.5,17.4,15.4,34.7,23.7,51.8c5.9,12.1,11,24.6,16.7,36.8
				c0.9,1.9,0.5,2.4-1.2,2.5C431.6,200,429.4,200.1,426.5,200.2z"/>
			<path class="st6" d="M414.7,101.7c9.1-3.1,9.6,5.7,11.9,10.8c9.6,21.7,19.1,43.4,29.1,64.8c2.7,5.8,5.3,11.7,7.7,17.6
				c0.7,1.8,1.2,3.5-2.2,3.8c-12.5,1.1-12.7,1.1-17.7-10c-7.6-16.9-15.1-33.9-22.8-50.8c-4.9-10.9-10.1-21.6-14.9-32.5
				c-0.9-2-0.9-4.2,2.6-3.8C410.3,101.9,412.1,101.7,414.7,101.7z"/>
			<path class="st6" d="M85.7,195.2c0.1,0-0.3-0.1-0.8-0.4c-4.7-2.6-10.2-4.2-13.7-7.9c-3.7-3.9-1.5-10.1-2.1-15.3
				c-1-8.9-1-17.9-1.6-26.9c-0.2-3.1,0.9-3.5,3.4-2.4c0.2,0.1,0.3,0.2,0.5,0.2c13.8,4.2,14,4.2,14.3,18.7
				C85.9,172.6,85.7,183.9,85.7,195.2z"/>
			<path class="st6" d="M335.7,58.1c9-3.6,9.1,5.8,11.9,10.6c4.5,7.8,7.7,16.4,11.6,24.6c1.7,3.5,0.9,3.9-2.9,4.8
				c-12.9,3.2-15.8-6.5-19.4-14.6c-2.9-6.6-6.4-13-9.2-19.7c-2.4-5.7-2.4-5.7,3.5-5.7C332.4,58.1,333.5,58.1,335.7,58.1z"/>
			<path class="st6" d="M396.5,57.3c9-0.2,8.8-0.1,12.3,8.3c3.8,9.3,8,18.4,12.2,27.6c1.3,2.8,0.8,4-2.3,3.9c-0.2,0-0.3,0-0.5,0
				c-12.8,0.7-12.8,0.8-19.5-13.9c-3-6.5-5.6-13.3-8.4-19.9c-2.6-5.9-2.6-5.9,3.2-6C394.5,57.3,395.5,57.3,396.5,57.3z"/>
			<path class="st6" d="M356.6,58.4c0.9-0.3,1.1-0.4,1.2-0.4c16.6-0.8,16.8-0.8,23,14.5c2.9,7.1,6.1,14,9.5,20.8
				c1.4,2.8,0.9,4-2.2,4.1c-0.2,0-0.3,0-0.5,0c-15.2-0.1-11.2,3-18.1-11.7C365.3,76.7,361,67.6,356.6,58.4z"/>
			<path class="st3" d="M159.6,183.9c-2.4,1.9-5.8,2.3-8,1.6c-4.3-1.5-7.9,0.2-11.8,0.7c-4.5,0.5-8-2.3-8.1-6.6
				c-0.1-3.6,3.1-6.8,7.2-6.4c2,0.2,5.1-2.1,6.2,1.9c0.4,1.2,1.3,0,1.7-0.5c1.3-1.5,3.1-1.8,4.9-1.9c0.9-0.1,2.3,0.5,2.3-1
				c0-4.6,3.8-2.9,5.9-3.3c3.2-0.5,2.2,2.4,2.5,4.2c0.1,0.6,0.2,1.7,1,1.4c2.8-0.9,5.7-1.8,8.1-3.4c0.8-0.5,0.6-3,2.6-2.7
				c2,0.4,1.4,2.3,1.5,3.7c0.1,1,0.1,2,0.2,3.6c3.4-4.5,7.7-4.7,12.1-3.1c1.4,0.5,1.4,10.4,0.3,11.4c-2.3,2-8.8,0.8-12.1-2.3
				c-0.7,3-5.1,4.8-9.2,3.4c-1.7-0.6-3.2-1.7-5.1-0.5c-0.8-3.4,0.3-7-1.9-10.3C159.9,177.1,159.7,180.5,159.6,183.9z M138.4,182.5
				c1.9-0.2,2.7-1.5,2.7-3.1c0-1.6-1.1-2.8-2.9-2.8c-1.7,0.1-2.7,1.1-2.6,2.9C135.8,181.4,136.9,182.2,138.4,182.5z M151.4,176.3
				c-1.4,0.1-2.4,1.1-2.4,2.8c0,1.5,0.8,2.6,2.3,2.7c1.7,0.1,2.9-0.8,3-2.6C154.4,177.7,153.6,176.4,151.4,176.3z M168.9,175.4
				c-1.2,0.5-2.5,1.3-2.4,3.1c0.1,1.7,1.3,2.6,3,2.5c1.6-0.1,2.4-1.1,2.3-2.6C171.8,176.7,171,175.6,168.9,175.4z M182.4,175.1
				c-1.6,0.1-2.6,1-2.7,2.7c0,1.5,0.8,2.6,2.2,2.7c2,0.2,3.1-1.3,3.1-3C185.2,176.2,184,175.3,182.4,175.1z"/>
			<path class="st6" d="M164.8,145.7c-9.4,0.4-10.7-0.7-9.2-11.3c0.9-6.2,3.5-12,7.1-17.3c1.2-1.8,2.3-1.5,3.5,0
				c5.8,7.6,8.1,16.2,8.2,25.6c0,2-1.1,3-3.2,2.9C169.1,145.7,167,145.7,164.8,145.7z"/>
			<path class="st6" d="M144.5,146.2c-10.9,0.8-11.1,0.6-13.6-10.2c-1.3-5.6-0.2-6.9,5.2-5.1c6.7,2.3,12.4,6.2,17.2,11.5
				c0.7,0.8,1.9,1.7,1.3,3c-0.6,1.3-2.1,0.7-3.1,0.7C149.2,146.3,146.8,146.2,144.5,146.2z"/>
			<path class="st6" d="M185.7,145.4c-2.3,0-4.7,0-7,0c-0.9,0-2.1,0.5-2.6-0.7c-0.5-1.1,0.5-1.8,1.1-2.6c4.5-6,10.1-10.4,17.4-12.7
				c4-1.3,4.8,0.2,4.3,3.7c-0.1,0.5-0.1,1-0.1,1.5C197,144.4,196.3,144.9,185.7,145.4z"/>
			<path class="st3" d="M161.3,201.1c-3.8,0-7.7-1.4-11.5,0.5c-1.8,0.9-2.7-0.5-3.1-2.2c-0.4-2.1,0.2-4,2.4-4.1
				c4.4-0.2,8.9-0.4,13.3-0.2c5.4,0.2,10.7,0.6,16.1-0.2c1.1-0.2,1.4,0.1,1.9,0.7c1.2,1.2-0.2,1.5-0.7,2.1c-1,1.2-1.8,2-4,2
				C170.9,199.7,166.1,200.6,161.3,201.1z"/>
			<path class="st3" d="M165.7,146.9c8.3,0,16.6,0,24.9,0c1.1,0,3-1.1,3,1.1c0,1.4-1.2,2.3-2.7,2.4c-1.2,0.1-2.3,0.3-3.5,0.3
				c-15.1,0.4-30.2,0.9-45.4,1.3c-0.8,0-1.7,0-2.5,0c-1.5-0.1-2.7-0.9-2.6-2.4c0.1-1.6,1.8-1.1,2.8-1.1c8.6-0.1,17.3,0,25.9,0
				C165.7,148,165.7,147.5,165.7,146.9z"/>
			<path class="st3" d="M141.4,155.2c1.3-1.7,3.3-1.3,5-1.3c13.1-0.5,26.3-0.9,39.4-1.2c1.2,0,3.5-1,3.5,1.3c0,1.5-1.8,2.1-3.5,2.2
				c-13.6,0.4-27.3,0.8-40.9,1.3C143.4,157.3,142.1,156.8,141.4,155.2z"/>
			<path class="st3" d="M195.6,180.4c-0.8-1.5-2.3-1.2-3.5-1.6c-2.1-0.9-3.3-2.3-2.6-4.6c0.9-2.9,3.2-3.7,5.9-3.1
				c2,0.4,4.6,1.1,3.1,4.1c-0.7,1.5,0.4,1.6,0.8,2.3c1.2,2.2,0.7,3.9-1.3,5.6c-2.3,1.8-4.7,2.2-7,0.7c-0.8-0.5-2.1-2.1-1.4-3.4
				c0.8-1.7,2.2-0.9,3.4-0.2C193.7,180.5,194.3,181.1,195.6,180.4z"/>
			<path class="st3" d="M161.8,159.9c-0.3,6-0.7,6.2-6.4,4.3c-2.8-0.9-5.6-1.9-8.5-4.9c5.6-0.5,10.2-1.4,14.9,0
				C161.9,159.5,161.9,159.7,161.8,159.9z"/>
			<path class="st6" d="M184.3,158.4c-3.3,3-6.4,4.7-9.9,5.7c-1.2,0.4-2.6,1.3-3.7,0.3c-1.3-1.2-0.5-2.8-0.4-4.3
				c0.1-2.3,2.1-1.7,3.4-1.7C177,158.3,180.2,158.4,184.3,158.4z"/>
			<path class="st3" d="M152,191.3c12.5,0.6,24.9-2.1,37.3-0.8C176.9,190.6,164.5,193.1,152,191.3z"/>
			<path class="st6" d="M161.8,159.9c0.1-0.2,0-0.4,0-0.6c0.9-0.9,2.1-0.8,3.2-0.8c1.7,0.1,4.3-0.9,4.6,1.1c0.2,1.8-1.2,4.3-3.2,5.1
				c-2.3,0.8-2.6-1.8-3.7-3.1C162.4,161.1,162.1,160.5,161.8,159.9z"/>
			<path class="st6" d="M159.6,183.9c0.2-3.4,0.3-6.7,0.5-10.1c2.3,3.3,1.1,6.9,1.9,10.3C161.1,185.4,160.3,185.5,159.6,183.9z"/>
			<path class="st6" d="M243.7,858.9c0.1-0.6,0.2-1.2,0.2-1.8c0.2,0.1,0.4,0.2,0.6,0.3C244.2,857.8,244,858.3,243.7,858.9
				C243.7,858.8,243.7,858.9,243.7,858.9z"/>
			<path class="st6" d="M243.7,858.8c-0.1,0.6-0.2,1.2-0.2,1.8c-0.2-0.1-0.4-0.2-0.6-0.3C243.2,859.9,243.4,859.4,243.7,858.8
				C243.7,858.9,243.7,858.8,243.7,858.8z"/>
			<path class="st2" d="M138.4,182.5c-1.6-0.3-2.6-1.1-2.7-2.9c-0.1-1.8,0.9-2.9,2.6-2.9c1.7-0.1,2.9,1.1,2.9,2.8
				C141.2,181,140.3,182.3,138.4,182.5z"/>
			<path class="st2" d="M151.4,176.3c2.2,0.1,3,1.3,2.9,3c-0.1,1.7-1.3,2.7-3,2.6c-1.6-0.1-2.3-1.3-2.3-2.7
				C149,177.4,150,176.4,151.4,176.3z"/>
			<path class="st2" d="M168.9,175.4c2,0.2,2.9,1.3,3,3c0.1,1.5-0.7,2.5-2.3,2.6c-1.8,0.1-2.9-0.8-3-2.5
				C166.4,176.8,167.7,176,168.9,175.4z"/>
			<path class="st2" d="M182.4,175.1c1.7,0.2,2.8,1,2.7,2.5c-0.1,1.7-1.1,3.2-3.1,3c-1.5-0.1-2.3-1.3-2.2-2.7
				C179.8,176.1,180.8,175.2,182.4,175.1z"/>
		</g>
	</g>
	<g id="Layer_4_copy" class="st1">
		<polyline class="st11" points="485.4,98.3 484.5,200.4 107.1,217.8 60.6,190.8 57.5,99.6 		"/>
		<path class="st11" d="M99.2,103.1"/>
		<polygon class="st11" points="485.4,98.3 99.2,103.1 57.5,99.6 451,97.1 		"/>
		<line class="st11" x1="102.7" y1="103.1" x2="104.9" y2="215.2"/>
	</g>
	<g id="Layer_4">
		<polygon class="st12" points="53.6,59.2 97.9,57 489.8,54 489.8,98.3 485.4,98.3 484.5,200.4 107.1,217.8 60.6,190.8 57.5,99.6 
			53.6,96.6 		"/>
		<line class="st12" x1="99.2" y1="103.1" x2="97.9" y2="57"/>
		<polyline class="st12" points="485.4,98.3 99.2,103.1 57.5,99.6 		"/>
		<line class="st12" x1="102.7" y1="103.1" x2="104.9" y2="215.2"/>
		<polygon class="st12" points="63.6,138.3 87.1,146.5 87.1,199.9 66.7,189.5 		"/>
	</g>
</g>
<g id="Layer_15">
	<g>
		<g>
			<path class="st2" d="M483.7,317.5l14.2,0.5c13,3,25.9,6.1,38.9,9c7,1.6,7.9,2.5,8,9.5c0.3,25,0.5,50,0.8,75
				c0.1,9.8-0.6,19.6-1.7,29.4c-0.5,3.9-1.9,6.7-6.2,7.2c-0.6-0.1-0.9,0.2-0.8,0.8c0.1,5.6,0.2,11.3,0.2,16.9
				c-0.2,4.2-1.1,7.6-6.2,8.8c-59.5,14.9-118.8,30-178.3,44.8c-56.5,14.1-113,28-169.5,42c-2.6,0.6-5.2,1.3-7.8,0
				c-7.5-3.7-15.1-7-22.2-11.3c-38.3-22.9-76.6-45.7-114.9-68.5c-3-1.8-5.4-3.8-6.8-6.9c-1.3-2.9-2-5.9-2.1-9.2
				c-0.3-7.4,0.3-14.9-3.5-21.8c-1.5-2.7-1.1-5.9-1.1-8.9c0.5-32.8,1.2-65.6,1.6-98.4c0.1-4.2,0.9-6.4,5.6-6.9
				c5.3-0.5,10.5-2,15.7-2.7L483.7,317.5z M484.1,51.8"/>
			<path class="st3" d="M31.4,474.8c1.5,3.1,3.9,5.2,6.8,6.9c38.3,22.8,76.6,45.6,114.9,68.5c7.2,4.3,14.8,7.6,22.2,11.3
				c2.6,1.3,5.2,0.6,7.8,0c56.5-14,113.1-27.9,169.5-42c59.5-14.9,118.8-30,178.3-44.8c5.1-1.3,6-4.6,6.2-8.8
				c6.1,0.4,11.2,3.9,16.7,6c9.9,3.8,19.6,8.2,30,12.6c-3.2,2.1-6.2,2.1-8.9,2.8c-28.9,7.5-57.8,14.9-86.8,22.3
				c-30.1,7.7-60.1,15.4-90.2,23c-19.5,4.9-39,9.5-58.5,14.6c-23.4,6.2-46.9,12-70.4,17.9c-26.1,6.5-52,13.4-78,20.1
				c-0.8,0.2-1.7,0.3-2.4,0.7c-11.1,5.8-19.2-1.3-27.7-6.4c-14.5-8.7-28.8-17.6-43.2-26.5c-15.5-9.6-31-19.3-46.5-28.9
				C49.6,510.6,27.8,497.4,6,484c-1.8-1.1-3.3-2.5-6-4.5C11.1,476.7,21.3,476.4,31.4,474.8z"/>
			<path class="st3" d="M536.9,448.9c-0.1-0.6,0.1-0.9,0.8-0.8C537.4,448.4,537.1,448.6,536.9,448.9z"/>
		</g>
		<path class="st4" d="M146.7,420.8c-0.4,1.5-2.1,5-2.6,5.3c-0.5,0.2-2,0.8-2.3,0.9c-0.3,0.1,0.4,0.7,0.8,0.5s1.3-0.2,1.7-0.4
			s2-1.5,2-1.5l0.8-0.7c0,0,0.9,2.6,0,3.9c-0.9,1.3-8.6,7.9-9,8.1c-0.4,0.2-0.9,2.1-1.7,2c-0.8-0.1-2.2,0.4-1.8,0.5
			c0.3,0.1,3.4,1,3.6,0.8c0.2-0.2,9.8-5.9,9.8-5.9s0.7-0.4,1.2-0.2c0.5,0.3,4.1,5.4,4.1,5.4s6.6,9.4,6.8,9.8
			c0.2,0.3,3.5-1.4,3.5-1.4s0.7-0.3-2.5-0.3c-0.8-0.3-8.1-18.5-8.1-18.5s0-5.5-0.3-7.5c-0.4-2.6-0.1-10.9,0.3-11.5
			c0.4-0.5-1.1-1.3-1.1-1.3s-0.9,5.4-1.2,6.2c-0.3,0.8,0.2-0.9-2-0.9c-2.2,0-2.8,2.9-2.1,3.9"/>
		<ellipse class="st4" cx="152.8" cy="407.8" rx="2.7" ry="3.1"/>
		<path class="st5" d="M53.6,327.2L27.6,332v107.3c0,0-1.3,9.1,3,11.7l-0.4,18.7c0,0-0.9,5.2,4.8,8.7c5.6,3.5,139.4,80.7,139.4,80.7
			l360.1-87.6v-25.6c0,0,5.2-1.3,7-2.2c1.7-0.9,1.7-111.6,1.7-111.6l-58.4-14.5L53.6,327.2z"/>
		<polyline class="st5" points="27.6,332 174,392.4 543.2,332 		"/>
		<line class="st5" x1="174.4" y1="530.5" x2="174" y2="392.4"/>
		<polyline class="st5" points="534.5,445.8 174.4,530.5 30.6,451 		"/>
		<line class="st5" x1="175.7" y1="530.5" x2="174.4" y2="558.3"/>
		<circle cx="74.6" cy="494.8" r="1"/>
		<circle cx="73.6" cy="486.3" r="1"/>
		<circle cx="74" cy="482.8" r="1"/>
		<circle cx="78.6" cy="489.1" r="1"/>
		<circle cx="85.7" cy="489.1" r="1"/>
		<circle cx="81" cy="493.8" r="1"/>
		<circle cx="80.1" cy="498.9" r="1"/>
		<circle cx="86.1" cy="502.2" r="1"/>
		<circle cx="85.7" cy="496.7" r="1"/>
		<circle cx="90.3" cy="492.9" r="1"/>
		<circle cx="91.8" cy="496.7" r="1"/>
		<circle cx="92.8" cy="500.9" r="1"/>
		<circle cx="98.6" cy="499.9" r="1"/>
		<circle cx="97.7" cy="504.7" r="1"/>
		<circle cx="103.4" cy="507" r="1"/>
		<circle cx="105" cy="504.7" r="1"/>
		<circle cx="105.9" cy="511.2" r="1"/>
		<circle cx="31" cy="455.6" r="1"/>
		<circle cx="34.9" cy="466.8" r="1"/>
		<circle cx="39.8" cy="466.8" r="1"/>
		<circle cx="34.9" cy="460.4" r="1"/>
		<circle cx="32.9" cy="463.6" r="1"/>
		<circle cx="31.9" cy="471.6" r="1"/>
		<circle cx="39.5" cy="475.7" r="1"/>
		<circle cx="35.8" cy="473.5" r="1"/>
		<circle cx="45.7" cy="472.8" r="1"/>
		<circle cx="56.4" cy="483.7" r="1"/>
		<circle cx="61.8" cy="490.1" r="1"/>
		<circle cx="68.8" cy="494.8" r="1"/>
		<circle cx="68.3" cy="489.6" r="1"/>
		<circle cx="33" cy="458.1" r="1"/>
		<circle cx="37.7" cy="462.7" r="1"/>
		<circle cx="39.8" cy="469.6" r="1"/>
		<circle cx="44.7" cy="465.2" r="1"/>
		<circle cx="43.7" cy="468.1" r="1"/>
		<circle cx="44.7" cy="478.1" r="1"/>
		<circle cx="49.9" cy="482.8" r="1"/>
		<circle cx="40.4" cy="479.1" r="1"/>
		<circle cx="56.8" cy="488.2" r="1"/>
		<circle cx="48.9" cy="477.2" r="1"/>
		<circle cx="51.5" cy="474.7" r="1"/>
		<circle cx="52.9" cy="469.6" r="1"/>
		<circle cx="144.9" cy="524.3" r="1"/>
		<circle cx="143.9" cy="529.9" r="1"/>
		<circle cx="179.1" cy="541.2" r="1"/>
		<circle cx="178.2" cy="533.5" r="1"/>
		<circle cx="184.5" cy="533.9" r="1"/>
		<circle cx="184.5" cy="538.3" r="1"/>
		<circle cx="180.1" cy="546.2" r="1"/>
		<circle cx="178.7" cy="551.5" r="1"/>
		<circle cx="178.7" cy="554.9" r="1"/>
		<circle cx="182" cy="551.1" r="1"/>
		<circle cx="183.9" cy="553.9" r="1"/>
		<circle cx="185.5" cy="550.6" r="1"/>
		<circle cx="188.3" cy="548.6" r="1"/>
		<circle cx="189.2" cy="542.2" r="1"/>
		<circle cx="191.1" cy="533.5" r="1"/>
		<circle cx="194" cy="529.9" r="1"/>
		<circle cx="195.9" cy="542.7" r="1"/>
		<circle cx="195.9" cy="548.6" r="1"/>
		<circle cx="192.1" cy="554.5" r="1"/>
		<circle cx="197.8" cy="553.5" r="1"/>
		<circle cx="202.5" cy="546.2" r="1"/>
		<circle cx="205.7" cy="548.1" r="1"/>
		<circle cx="201.5" cy="542.7" r="1"/>
		<circle cx="200.6" cy="534.9" r="1"/>
		<circle cx="198.8" cy="534.9" r="1"/>
		<circle cx="200.6" cy="529.9" r="1"/>
		<circle cx="204.8" cy="539.2" r="1"/>
		<circle cx="209" cy="534.9" r="1"/>
		<circle cx="211.5" cy="538.7" r="1"/>
		<circle cx="208.1" cy="544.1" r="1"/>
		<circle cx="213.5" cy="546.2" r="1"/>
		<circle cx="213.9" cy="541.7" r="1"/>
		<circle cx="217.2" cy="539.2" r="1"/>
		<circle cx="217.2" cy="536.4" r="1"/>
		<circle cx="215.4" cy="530.8" r="1"/>
		<circle cx="213.5" cy="528.6" r="1"/>
		<circle cx="219.1" cy="528.6" r="1"/>
		<circle cx="222.8" cy="533" r="1"/>
		<circle cx="222.4" cy="538.7" r="1"/>
		<circle cx="210.6" cy="548.1" r="1"/>
		<circle cx="227.3" cy="529.4" r="1"/>
		<circle cx="226.3" cy="521.6" r="1"/>
		<circle cx="232.7" cy="522.1" r="1"/>
		<circle cx="232.7" cy="526.4" r="1"/>
		<circle cx="228.2" cy="534.3" r="1"/>
		<circle cx="226.9" cy="539.7" r="1"/>
		<circle cx="226.9" cy="543" r="1"/>
		<circle cx="230.2" cy="539.2" r="1"/>
		<circle cx="232.1" cy="542" r="1"/>
		<circle cx="233.7" cy="538.7" r="1"/>
		<circle cx="236.4" cy="536.8" r="1"/>
		<circle cx="237.4" cy="530.3" r="1"/>
		<circle cx="239.3" cy="521.6" r="1"/>
		<circle cx="242.2" cy="518" r="1"/>
		<circle cx="244.1" cy="530.8" r="1"/>
		<circle cx="244.1" cy="536.8" r="1"/>
		<circle cx="240.3" cy="542.6" r="1"/>
		<circle cx="246" cy="541.7" r="1"/>
		<circle cx="250.7" cy="534.3" r="1"/>
		<circle cx="253.9" cy="536.2" r="1"/>
		<circle cx="249.7" cy="530.8" r="1"/>
		<circle cx="248.7" cy="523" r="1"/>
		<circle cx="246.9" cy="523" r="1"/>
		<circle cx="248.7" cy="518" r="1"/>
		<circle cx="253" cy="527.4" r="1"/>
		<circle cx="257.2" cy="523" r="1"/>
		<circle cx="259.7" cy="526.8" r="1"/>
		<circle cx="256.2" cy="532.2" r="1"/>
		<circle cx="261.6" cy="534.3" r="1"/>
		<circle cx="262.1" cy="529.8" r="1"/>
		<circle cx="265.4" cy="527.4" r="1"/>
		<circle cx="265.4" cy="524.5" r="1"/>
		<circle cx="263.5" cy="519" r="1"/>
		<circle cx="261.6" cy="516.7" r="1"/>
		<circle cx="267.3" cy="516.7" r="1"/>
		<circle cx="271" cy="521.1" r="1"/>
		<circle cx="270.6" cy="526.8" r="1"/>
		<circle cx="258.8" cy="536.2" r="1"/>
		<circle cx="274.8" cy="518.5" r="1"/>
		<circle cx="273.9" cy="510.7" r="1"/>
		<circle cx="280.3" cy="511.2" r="1"/>
		<circle cx="280.3" cy="515.5" r="1"/>
		<circle cx="275.8" cy="523.4" r="1"/>
		<circle cx="274.4" cy="528.7" r="1"/>
		<circle cx="274.4" cy="532.1" r="1"/>
		<circle cx="277.7" cy="528.3" r="1"/>
		<circle cx="279.6" cy="531.1" r="1"/>
		<circle cx="281.2" cy="527.8" r="1"/>
		<circle cx="284" cy="525.9" r="1"/>
		<circle cx="285" cy="519.4" r="1"/>
		<circle cx="286.9" cy="510.7" r="1"/>
		<circle cx="289.7" cy="507.1" r="1"/>
		<circle cx="291.6" cy="519.9" r="1"/>
		<circle cx="291.6" cy="525.9" r="1"/>
		<circle cx="287.8" cy="531.7" r="1"/>
		<circle cx="293.5" cy="530.8" r="1"/>
		<circle cx="298.2" cy="523.4" r="1"/>
		<circle cx="301.5" cy="525.3" r="1"/>
		<circle cx="297.3" cy="519.9" r="1"/>
		<circle cx="296.3" cy="512.1" r="1"/>
		<circle cx="294.5" cy="512.1" r="1"/>
		<circle cx="296.3" cy="507.1" r="1"/>
		<circle cx="300.5" cy="516.5" r="1"/>
		<circle cx="304.8" cy="512.1" r="1"/>
		<circle cx="307.3" cy="515.9" r="1"/>
		<circle cx="303.8" cy="521.3" r="1"/>
		<circle cx="309.2" cy="523.4" r="1"/>
		<circle cx="309.7" cy="518.9" r="1"/>
		<circle cx="313" cy="516.5" r="1"/>
		<circle cx="313" cy="513.6" r="1"/>
		<circle cx="311.1" cy="508.1" r="1"/>
		<circle cx="309.2" cy="505.8" r="1"/>
		<circle cx="314.9" cy="505.8" r="1"/>
		<circle cx="318.6" cy="510.2" r="1"/>
		<circle cx="318.2" cy="515.9" r="1"/>
		<circle cx="306.3" cy="525.3" r="1"/>
		<circle cx="325.1" cy="505.3" r="1"/>
		<circle cx="324.2" cy="497.6" r="1"/>
		<circle cx="330.6" cy="498" r="1"/>
		<circle cx="330.6" cy="502.4" r="1"/>
		<circle cx="326.1" cy="510.3" r="1"/>
		<circle cx="324.7" cy="515.6" r="1"/>
		<circle cx="324.7" cy="519" r="1"/>
		<circle cx="328" cy="515.2" r="1"/>
		<circle cx="329.9" cy="518" r="1"/>
		<circle cx="331.5" cy="514.7" r="1"/>
		<circle cx="334.3" cy="512.8" r="1"/>
		<circle cx="335.2" cy="506.3" r="1"/>
		<circle cx="337.2" cy="497.6" r="1"/>
		<circle cx="340" cy="494" r="1"/>
		<circle cx="341.9" cy="506.8" r="1"/>
		<circle cx="341.9" cy="512.8" r="1"/>
		<circle cx="338.1" cy="518.6" r="1"/>
		<circle cx="343.8" cy="517.6" r="1"/>
		<circle cx="348.5" cy="510.3" r="1"/>
		<circle cx="351.8" cy="512.2" r="1"/>
		<circle cx="347.6" cy="506.8" r="1"/>
		<circle cx="346.6" cy="499" r="1"/>
		<circle cx="344.8" cy="499" r="1"/>
		<circle cx="346.6" cy="494" r="1"/>
		<circle cx="350.8" cy="503.3" r="1"/>
		<circle cx="355" cy="499" r="1"/>
		<circle cx="357.6" cy="502.8" r="1"/>
		<circle cx="354.1" cy="508.2" r="1"/>
		<circle cx="359.5" cy="510.3" r="1"/>
		<circle cx="360" cy="505.8" r="1"/>
		<circle cx="363.3" cy="503.3" r="1"/>
		<circle cx="363.3" cy="500.5" r="1"/>
		<circle cx="361.4" cy="494.9" r="1"/>
		<circle cx="359.5" cy="492.7" r="1"/>
		<circle cx="365.2" cy="492.7" r="1"/>
		<circle cx="368.9" cy="497.1" r="1"/>
		<circle cx="368.5" cy="502.8" r="1"/>
		<circle cx="356.6" cy="512.2" r="1"/>
		<circle cx="369.8" cy="495.4" r="1"/>
		<circle cx="368.9" cy="487.6" r="1"/>
		<circle cx="375.3" cy="488.1" r="1"/>
		<circle cx="375.3" cy="492.4" r="1"/>
		<circle cx="370.8" cy="500.3" r="1"/>
		<circle cx="369.4" cy="505.7" r="1"/>
		<circle cx="369.4" cy="509" r="1"/>
		<circle cx="372.7" cy="505.2" r="1"/>
		<circle cx="374.6" cy="508.1" r="1"/>
		<circle cx="376.2" cy="504.7" r="1"/>
		<circle cx="379" cy="502.8" r="1"/>
		<circle cx="379.9" cy="496.3" r="1"/>
		<circle cx="381.8" cy="487.6" r="1"/>
		<circle cx="384.7" cy="484" r="1"/>
		<circle cx="386.6" cy="496.8" r="1"/>
		<circle cx="386.6" cy="502.8" r="1"/>
		<circle cx="382.8" cy="508.7" r="1"/>
		<circle cx="388.5" cy="507.7" r="1"/>
		<circle cx="393.2" cy="500.3" r="1"/>
		<circle cx="396.5" cy="502.2" r="1"/>
		<circle cx="392.2" cy="496.8" r="1"/>
		<circle cx="391.3" cy="489" r="1"/>
		<circle cx="389.5" cy="489" r="1"/>
		<circle cx="391.3" cy="484" r="1"/>
		<circle cx="395.5" cy="493.4" r="1"/>
		<circle cx="399.7" cy="489" r="1"/>
		<circle cx="402.3" cy="492.9" r="1"/>
		<circle cx="398.8" cy="498.3" r="1"/>
		<circle cx="404.2" cy="500.3" r="1"/>
		<circle cx="404.7" cy="495.9" r="1"/>
		<circle cx="407.9" cy="493.4" r="1"/>
		<circle cx="407.9" cy="490.5" r="1"/>
		<circle cx="406.1" cy="485" r="1"/>
		<circle cx="404.2" cy="482.8" r="1"/>
		<circle cx="409.9" cy="482.8" r="1"/>
		<circle cx="413.6" cy="487.1" r="1"/>
		<circle cx="413.2" cy="492.9" r="1"/>
		<circle cx="401.3" cy="502.2" r="1"/>
		<circle cx="418.3" cy="482.3" r="1"/>
		<circle cx="417.4" cy="474.5" r="1"/>
		<circle cx="423.7" cy="475" r="1"/>
		<circle cx="423.7" cy="479.3" r="1"/>
		<circle cx="419.3" cy="487.2" r="1"/>
		<circle cx="417.9" cy="492.5" r="1"/>
		<circle cx="417.9" cy="495.9" r="1"/>
		<circle cx="421.2" cy="492.1" r="1"/>
		<circle cx="423.1" cy="494.9" r="1"/>
		<circle cx="424.7" cy="491.6" r="1"/>
		<circle cx="427.5" cy="489.7" r="1"/>
		<circle cx="428.4" cy="483.2" r="1"/>
		<circle cx="430.3" cy="474.5" r="1"/>
		<circle cx="433.2" cy="470.9" r="1"/>
		<circle cx="435.1" cy="483.7" r="1"/>
		<circle cx="435.1" cy="489.7" r="1"/>
		<circle cx="431.3" cy="495.5" r="1"/>
		<circle cx="437" cy="494.6" r="1"/>
		<circle cx="441.7" cy="487.2" r="1"/>
		<circle cx="444.9" cy="489.1" r="1"/>
		<circle cx="440.7" cy="483.7" r="1"/>
		<circle cx="439.8" cy="475.9" r="1"/>
		<circle cx="438" cy="475.9" r="1"/>
		<circle cx="439.8" cy="470.9" r="1"/>
		<circle cx="444" cy="480.3" r="1"/>
		<circle cx="448.2" cy="475.9" r="1"/>
		<circle cx="450.7" cy="479.7" r="1"/>
		<circle cx="447.3" cy="485.1" r="1"/>
		<circle cx="452.7" cy="487.2" r="1"/>
		<circle cx="453.1" cy="482.7" r="1"/>
		<circle cx="456.4" cy="480.3" r="1"/>
		<circle cx="456.4" cy="477.4" r="1"/>
		<circle cx="454.6" cy="471.9" r="1"/>
		<circle cx="452.7" cy="469.6" r="1"/>
		<circle cx="458.3" cy="469.6" r="1"/>
		<circle cx="462" cy="474" r="1"/>
		<circle cx="461.6" cy="479.7" r="1"/>
		<circle cx="449.8" cy="489.1" r="1"/>
		<circle cx="464" cy="472.5" r="1"/>
		<circle cx="463" cy="464.8" r="1"/>
		<circle cx="469.4" cy="465.2" r="1"/>
		<circle cx="469.4" cy="469.6" r="1"/>
		<circle cx="464.9" cy="477.5" r="1"/>
		<circle cx="463.6" cy="482.8" r="1"/>
		<circle cx="463.6" cy="486.2" r="1"/>
		<circle cx="466.8" cy="482.4" r="1"/>
		<circle cx="468.7" cy="485.2" r="1"/>
		<circle cx="470.3" cy="481.9" r="1"/>
		<circle cx="473.1" cy="480" r="1"/>
		<circle cx="474.1" cy="473.5" r="1"/>
		<circle cx="476" cy="464.8" r="1"/>
		<circle cx="478.8" cy="461.2" r="1"/>
		<circle cx="480.7" cy="474" r="1"/>
		<circle cx="480.7" cy="480" r="1"/>
		<circle cx="476.9" cy="485.8" r="1"/>
		<circle cx="482.6" cy="484.8" r="1"/>
		<circle cx="487.3" cy="477.5" r="1"/>
		<circle cx="490.6" cy="479.4" r="1"/>
		<circle cx="486.4" cy="474" r="1"/>
		<circle cx="485.4" cy="466.2" r="1"/>
		<circle cx="483.6" cy="466.2" r="1"/>
		<circle cx="485.4" cy="461.2" r="1"/>
		<circle cx="489.6" cy="470.5" r="1"/>
		<circle cx="493.9" cy="466.2" r="1"/>
		<circle cx="496.4" cy="470" r="1"/>
		<circle cx="492.9" cy="475.4" r="1"/>
		<circle cx="498.3" cy="477.5" r="1"/>
		<circle cx="498.8" cy="473" r="1"/>
		<circle cx="502.1" cy="470.5" r="1"/>
		<circle cx="502.1" cy="467.7" r="1"/>
		<circle cx="500.2" cy="462.1" r="1"/>
		<circle cx="498.3" cy="459.9" r="1"/>
		<circle cx="504" cy="459.9" r="1"/>
		<circle cx="507.7" cy="464.3" r="1"/>
		<circle cx="507.3" cy="470" r="1"/>
		<circle cx="495.4" cy="479.4" r="1"/>
		<circle cx="511.8" cy="460.4" r="1"/>
		<circle cx="510.8" cy="452.6" r="1"/>
		<circle cx="517.2" cy="453.1" r="1"/>
		<circle cx="517.2" cy="457.4" r="1"/>
		<circle cx="512.7" cy="465.3" r="1"/>
		<circle cx="511.4" cy="470.7" r="1"/>
		<circle cx="511.4" cy="474" r="1"/>
		<circle cx="514.7" cy="470.2" r="1"/>
		<circle cx="516.6" cy="473" r="1"/>
		<circle cx="518.2" cy="469.7" r="1"/>
		<circle cx="520.9" cy="467.8" r="1"/>
		<circle cx="521.9" cy="461.3" r="1"/>
		<circle cx="523.8" cy="452.6" r="1"/>
		<circle cx="526.7" cy="449" r="1"/>
		<circle cx="528.6" cy="461.8" r="1"/>
		<circle cx="528.6" cy="467.8" r="1"/>
		<circle cx="524.8" cy="473.6" r="1"/>
		<circle cx="530.5" cy="472.7" r="1"/>
		<circle cx="535.2" cy="465.3" r="1"/>
		<circle cx="534.2" cy="461.8" r="1"/>
		<circle cx="533.2" cy="454" r="1"/>
		<circle cx="531.4" cy="454" r="1"/>
		<circle cx="533.2" cy="449" r="1"/>
		<circle cx="38.5" cy="459.1" r="1"/>
		<circle cx="55.8" cy="474.3" r="1"/>
		<circle cx="56.8" cy="470" r="1"/>
		<circle cx="56.8" cy="466.2" r="1"/>
		<circle cx="44" cy="461.7" r="1"/>
		<circle cx="49.9" cy="467.2" r="1"/>
		<circle cx="147.3" cy="520.5" r="1"/>
		<circle cx="145.4" cy="528.2" r="1"/>
		<circle cx="144.5" cy="532.7" r="1"/>
		<circle cx="151.2" cy="531.7" r="1"/>
		<circle cx="154.3" cy="528.2" r="1"/>
		<circle cx="156.2" cy="526.6" r="1"/>
		<circle cx="156.2" cy="534.6" r="1"/>
		<circle cx="161.1" cy="530.1" r="1"/>
		<circle cx="162" cy="534.9" r="1"/>
		<circle cx="161.1" cy="543.1" r="1"/>
		<circle cx="165.3" cy="542.1" r="1"/>
		<circle cx="167.9" cy="539.7" r="1"/>
		<circle cx="169.2" cy="534.6" r="1"/>
		<circle cx="175.2" cy="537.8" r="1"/>
		<circle cx="174.2" cy="543.4" r="1"/>
		<circle cx="153.1" cy="523.4" r="1"/>
		<circle cx="139.5" cy="536.2" r="1"/>
		<circle cx="53.5" cy="480.9" r="1"/>
		<circle cx="59.9" cy="477.7" r="1"/>
		<circle cx="60.8" cy="473.5" r="1"/>
		<circle cx="60.8" cy="469.7" r="1"/>
		<circle cx="65.4" cy="476.4" r="1"/>
		<circle cx="63.5" cy="480.2" r="1"/>
		<circle cx="62.5" cy="484.7" r="1"/>
		<circle cx="69.3" cy="483.7" r="1"/>
		<circle cx="72.3" cy="480.2" r="1"/>
		<circle cx="74.2" cy="478.7" r="1"/>
		<circle cx="73" cy="491" r="1"/>
		<circle cx="79.1" cy="482.1" r="1"/>
		<circle cx="80" cy="487" r="1"/>
		<circle cx="79.1" cy="495.1" r="1"/>
		<circle cx="83.3" cy="494.2" r="1"/>
		<circle cx="85.9" cy="491.7" r="1"/>
		<circle cx="87.2" cy="486.6" r="1"/>
		<circle cx="69.8" cy="478.7" r="1"/>
		<circle cx="90.2" cy="491.2" r="1"/>
		<circle cx="91.2" cy="487" r="1"/>
		<circle cx="87.8" cy="497.9" r="1"/>
		<circle cx="95.3" cy="498.6" r="1"/>
		<circle cx="96.3" cy="494.4" r="1"/>
		<circle cx="96.3" cy="490.6" r="1"/>
		<circle cx="100.8" cy="493.5" r="1"/>
		<circle cx="98.9" cy="501.2" r="1"/>
		<circle cx="97.9" cy="505.6" r="1"/>
		<circle cx="104.7" cy="504.7" r="1"/>
		<circle cx="107.7" cy="501.2" r="1"/>
		<circle cx="109.6" cy="499.6" r="1"/>
		<circle cx="109.6" cy="507.5" r="1"/>
		<circle cx="114.5" cy="503.1" r="1"/>
		<circle cx="115.5" cy="507.9" r="1"/>
		<circle cx="114.5" cy="516" r="1"/>
		<circle cx="118.8" cy="515.1" r="1"/>
		<circle cx="121.3" cy="512.6" r="1"/>
		<circle cx="122.7" cy="507.5" r="1"/>
		<circle cx="106.6" cy="496.3" r="1"/>
		<circle cx="125.6" cy="512.1" r="1"/>
		<circle cx="126.6" cy="507.9" r="1"/>
		<circle cx="123.3" cy="518.8" r="1"/>
		<circle cx="109.3" cy="519.1" r="1"/>
		<circle cx="110.2" cy="514.9" r="1"/>
		<circle cx="110.2" cy="511.1" r="1"/>
		<circle cx="114.8" cy="514" r="1"/>
		<circle cx="112.9" cy="521.7" r="1"/>
		<circle cx="118.7" cy="525.2" r="1"/>
		<circle cx="121.7" cy="521.7" r="1"/>
		<circle cx="123.6" cy="520.1" r="1"/>
		<circle cx="123.6" cy="528" r="1"/>
		<circle cx="128.5" cy="523.6" r="1"/>
		<circle cx="129.4" cy="528.4" r="1"/>
		<circle cx="135.3" cy="533.1" r="1"/>
		<circle cx="136.6" cy="528" r="1"/>
		<circle cx="120.6" cy="516.8" r="1"/>
		<circle cx="139.6" cy="532.7" r="1"/>
		<circle cx="140.6" cy="528.4" r="1"/>
		<circle cx="140.6" cy="524.6" r="1"/>
		<circle cx="138.1" cy="519.5" r="1"/>
		<circle cx="133.8" cy="519.6" r="1"/>
		<circle cx="130.1" cy="520.4" r="1"/>
		<circle cx="131.8" cy="515.4" r="1"/>
		<circle cx="139.8" cy="515.5" r="1"/>
		<circle cx="144.3" cy="515.4" r="1"/>
		<circle cx="133.3" cy="509.1" r="1"/>
		<circle cx="144" cy="535.2" r="1"/>
		<circle cx="150.9" cy="542.9" r="1"/>
		<circle cx="152.9" cy="541.3" r="1"/>
		<circle cx="157.7" cy="544.8" r="1"/>
		<circle cx="158.7" cy="549.6" r="1"/>
		<circle cx="165.9" cy="549.3" r="1"/>
		<circle cx="171.9" cy="552.5" r="1"/>
		<circle cx="149.8" cy="538.1" r="1"/>
		<circle cx="104.4" cy="499.9" r="1"/>
		<g>
			<path class="st2" d="M52.7,320.7c-1.8-21.7-3.3-43.5-4.6-65.2c-0.9-15-1.4-30,0.4-44.9c1-8.1,1-8.2,9.1-9.3
				c3.9-0.6,7.8-0.9,12.8-1.5l434-12.8c3.3,0.4,5,2,5.2,5.5c0.6,12.3,1.2,24.6,2,36.9c0.2,3.8-1,6.7-4.8,7.7c-2.9,0.7-3.3,2.4-3.3,5
				c-0.5,22.5-1.1,45-1.6,67.5c-0.1,3.4,0,6.8-4,8.6l-265.3,62.6l-179-41.3L52.7,320.7z M332.5,306.9c-0.6,0-0.8,0.4-0.7,1
				c-4.2,7.2-7.7,14.7-8.4,23.2c-0.7,8.9,5.7,14.3,14.6,12.6c5.5-1.1,10.4-3.5,14.8-6.8c16.4-12.2,32.7-24.5,49-36.8
				c5.7-4.3,11.4-8.8,17.1-13.3c0.3-0.3,0.5-0.5,0.8-0.8c0.3-0.2,0.6-0.5,0.9-0.7c3.4-1.6,6.3-3.9,8.8-6.7c0.8-0.2,2-0.6,1.4-1.4
				c-0.7-1-1.7-0.4-2.3,0.6c-4,1.4-7.6,3.5-11,6c-4.8,1.1-8.3,5-14.3,4.8c-5.4-0.2-3.6-2-3.4-4.5c0.3-3.1,2.8-3.4,5-3.8
				c3.7-0.6,3.3-3.9,3.2-5.8c-0.1-2.8-2.6-0.3-3.9-0.7c-0.4-0.1-0.8-0.3-1.3-0.5c0.4-3.5,0.8-6.7,5.5-6.7c3.2,0,3.6-2.9,3.2-5.1
				c-0.5-2.7-2.7-0.9-4-0.6c-7.2,1.7-16-0.7-20.4,8.8c0.6-5.1-1.9-5.2-5-4.5c-1.8,0.1-3.6-0.3-5.2,0.8c-1.6,0.3-3.5-0.8-4.6,1.3
				c-1.2-0.6-2.5-0.5-3.8-0.1c-9.2,0.4-5.3,9.3-9.1,13.6c0-2.4,0.2-4.7-0.1-7c-0.2-1.6,1.5-4.7-1.8-4.7c-3.1,0-6.8-0.6-8,3.9
				c-2.6,10.1-5.5,20.1-8.1,30.3c-0.5,1.8-2.4,4.1-0.6,5.4c1.7,1.2,4.1-0.5,6.2-0.9c1.8-0.3,1.9-2.2,2.3-3.5c0.9-3,1.7-6,2.5-9
				c0.6,2,0.6,3.8,0.6,5.6c0,6.2,0,6.2,6.1,4.1c0.9,0.2,1.9,0.5,2.4-0.7c0.3,0,0.5-0.2,0.5-0.6c0.7,0.1,1.3,0.2,2,0.3
				c0.8,0.1,1.6,0.1,2.2-0.6c2.2,0.4,4-0.6,5.8-1.7c9.8,1.8,7.5-7.5,10.5-12c1.8,3.6-2,9.6,6.4,10c-12.6,6.8-24,13.3-35.7,19
				c-7.8,3.8-12.9,1.7-16.8-5.7c-0.3-4.6,0.8-9,1.6-14.2c-2.4,2.2-3.7,4.2-4.3,6.6l-0.4,0.2l0,0.4c-0.1,0.3-0.3,0.7-0.4,1
				L332.5,306.9z M200.4,224c-15.6-1.7-31-3.3-46.3-5c-2.3-0.3-3.6,0.2-4.3,2.8c-1.7,6.4-4.6,12.2-10.1,16.1
				c-1.9,1.3-1.1,2.3-0.3,3.6c3.3,5.2,7.2,10,12.1,13.8c13.3,10.6,26.4,8.9,36.6-4.8C193.8,242.7,197.5,233.9,200.4,224z
				 M387.1,195.4c1.9,4.7,4.9,7.9,10.7,6.5c1.7-0.4,3.6-0.3,5.5-0.3c3-0.1,3-1.7,2.1-3.9c-1.4-3.1-2.8-6.1-4.2-9.2 M416.7,193.7
				c2.3,5.4,4.4,8.5,9.8,6.5c2.9-0.1,5.1-0.2,7.2-0.4c1.7-0.1,2.1-0.6,1.2-2.5 M443.6,188.8c5,11.1,5.2,11.1,17.7,10
				c3.4-0.3,2.9-2,2.2-3.8 M54.5,289.1c1.1,14.8,2.3,29.1,3.1,43.3c0.2,3.6,1.7,4.8,4.8,5.4c24,5.1,48,10.3,72,15.7
				c3.7,0.8,4.1-0.4,3.9-3.6c-0.8-14-1.6-27.9-1.8-41.9c-0.1-4.5-2-5.5-5.7-6.1C105.7,297.7,80.5,293.4,54.5,289.1z M180.1,217.3
				c17.6,2.8,30.1,2.3,52.3-2.6C214.9,215.6,197.5,216.5,180.1,217.3z"/>
			<path class="st6" d="M420.7,285.2c-0.3,0.2-0.6,0.5-0.9,0.7c-0.3,0.3-0.5,0.5-0.8,0.8c-5.7,4.4-11.3,8.9-17.1,13.3
				c-16.3,12.3-32.6,24.6-49,36.8c-4.4,3.3-9.3,5.7-14.8,6.8c-8.9,1.7-15.3-3.7-14.6-12.6c0.6-8.5,4.1-16,8.4-23.2
				c0.2-0.3,0.4-0.6,0.7-1c0,0,0.1-0.2,0.1-0.2c0.5-0.2,0.8-0.5,0.4-1l0-0.4c0,0,0.4-0.2,0.4-0.2c3.9,1.4,0.7,5.5,2.8,7.6
				c4,7.4,9.1,9.5,16.8,5.7c11.7-5.8,23.1-12.3,35.7-19c-8.4-0.3-4.6-6.3-6.4-10c-3,4.6-0.7,13.8-10.5,12c2.4-8.9,4.6-17.9,7.1-26.8
				c0.9-3.3,0.9-6.9,3.4-9.7c3.1-0.8,5.6-0.6,5,4.5c4.5-9.5,13.3-7.1,20.4-8.8c1.3-0.3,3.5-2.1,4,0.6c0.4,2.2,0,5.1-3.2,5.1
				c-4.7,0.1-5.1,3.2-5.5,6.7c0.4,0.2,0.8,0.4,1.3,0.5c1.4,0.3,3.8-2.1,3.9,0.7c0.1,1.9,0.5,5.3-3.2,5.8c-2.3,0.3-4.7,0.7-5,3.8
				c-0.3,2.6-2.1,4.3,3.4,4.5c6,0.2,9.5-3.6,14.3-4.8C418.6,284.3,419.6,284.7,420.7,285.2z M397.7,266c-7.4,7.6-9.8,16.2-6.7,26.4
				C393.2,283.5,395.4,274.9,397.7,266z M390.1,298.5c-0.1-0.1-0.3-0.3-0.4-0.3c-0.3,0-0.6,0.2-0.8,0.3c0.1,0.1,0.2,0.3,0.3,0.3
				C389.5,298.7,389.8,298.6,390.1,298.5z"/>
			<path class="st6" d="M200.4,224c-2.9,9.9-6.5,18.7-12.4,26.5c-10.2,13.7-23.2,15.4-36.6,4.8c-4.9-3.9-8.7-8.6-12.1-13.8
				c-0.8-1.3-1.6-2.3,0.3-3.6c5.6-3.9,8.5-9.7,10.1-16.1c0.7-2.5,1.9-3,4.3-2.8C169.4,220.7,184.8,222.3,200.4,224z"/>
			<path class="st6" d="M401.2,188.5c1.5,3,2.8,6.1,4.2,9.2c1,2.1,0.9,3.8-2.1,3.9c-1.8,0-3.7-0.1-5.5,0.3
				c-5.8,1.4-8.9-1.8-10.7-6.5"/>
			<path class="st6" d="M434.9,197.3c0.9,1.9,0.5,2.4-1.2,2.5c-2.2,0.2-4.3,0.2-7.2,0.4c-5.4,2-7.5-1.2-9.8-6.5"/>
			<path class="st6" d="M463.5,194.9c0.7,1.8,1.2,3.5-2.2,3.8c-12.5,1.1-12.7,1.1-17.7-10"/>
			<path class="st6" d="M54.5,289.1c25.9,4.4,51.1,8.7,76.4,12.8c3.7,0.6,5.6,1.6,5.7,6.1c0.2,14,1,28,1.8,41.9
				c0.2,3.2-0.2,4.4-3.9,3.6c-24-5.4-48-10.5-72-15.7c-3.1-0.7-4.6-1.8-4.8-5.4C56.9,318.1,55.7,303.9,54.5,289.1z"/>
			<path class="st6" d="M358.8,304.8c-6.2,2.1-6.2,2.1-6.1-4.1c0-1.8,0-3.6-0.6-5.6c-0.8,3-1.6,6.1-2.5,9c-0.4,1.3-0.5,3.2-2.3,3.5
				c-2.1,0.4-4.5,2.1-6.2,0.9c-1.8-1.3,0.2-3.7,0.6-5.4c2.6-10.1,5.4-20.2,8.1-30.3c1.2-4.5,4.9-4,8-3.9c3.3,0,1.6,3,1.8,4.7
				c0.3,2.3,0.1,4.6,0.1,7c3.7-4.2-0.1-13.2,9.1-13.6c0.8,1,1.8,1.7,1.2,3.4c-1.1,3.1-1.7,6.4-2.5,9.6c-2,7.8-4.8,15.5-5.8,23.5
				c0,0.4-0.1,0.6-0.5,0.6C360.3,303.8,359.4,303.9,358.8,304.8z"/>
			<path class="st6" d="M365.9,303.2c-0.6,0.7-1.4,0.8-2.2,0.6c-0.1-3.6,1.1-6.8,2-10.2c2.3-8.8,4.5-17.6,6.8-26.4
				c1.1-2,3-1,4.6-1.3c2.2,1,1.4,2.6,1,4.2c-2.3,8.6-4.8,17.3-6.9,26C370.4,299.4,369.3,302,365.9,303.2z"/>
			<path class="st3" d="M180.1,217.3c17.4-0.9,34.9-1.8,52.3-2.6C210.1,219.6,197.7,220.1,180.1,217.3z"/>
			<path class="st3" d="M365.9,303.2c3.4-1.1,4.5-3.8,5.2-7.1c2.1-8.7,4.5-17.3,6.9-26c0.4-1.6,1.2-3.2-1-4.2
				c1.6-1.1,3.5-0.7,5.2-0.8c-2.5,2.7-2.5,6.4-3.4,9.7c-2.5,8.9-4.8,17.9-7.1,26.8C369.9,302.5,368.1,303.6,365.9,303.2z"/>
			<path class="st3" d="M372.5,267.1c-2.3,8.8-4.5,17.6-6.8,26.4c-0.9,3.4-2.1,6.7-2,10.2c-0.7-0.1-1.3-0.2-2-0.3
				c1-8.1,3.8-15.7,5.8-23.5c0.8-3.2,1.5-6.4,2.5-9.6c0.6-1.7-0.4-2.4-1.2-3.4C370,266.6,371.3,266.5,372.5,267.1z"/>
			<path class="st3" d="M420.7,285.2c-1-0.5-2.1-1-3.1-1.5c3.4-2.4,7-4.6,11-6c0.3,0.3,0.6,0.5,0.9,0.8
				C426.9,281.3,424,283.6,420.7,285.2z"/>
			<path class="st3" d="M336.1,312.7c-2.1-2.1,1.1-6.1-2.8-7.6c0.6-2.4,2-4.4,4.3-6.6C337,303.7,335.8,308.2,336.1,312.7z"/>
			<path class="st3" d="M428.6,277.8c0.6-1,1.6-1.6,2.3-0.6c0.5,0.8-0.7,1.2-1.4,1.4C429.1,278.3,428.9,278.1,428.6,277.8z"/>
			<path class="st3" d="M358.8,304.8c0.6-0.9,1.5-1,2.4-0.7C360.7,305.3,359.7,305,358.8,304.8z"/>
			<path class="st3" d="M418.9,286.7c0.3-0.3,0.5-0.5,0.8-0.8C419.4,286.2,419.2,286.5,418.9,286.7z"/>
			<path class="st3" d="M333,305.7c0.4,0.5,0.1,0.8-0.4,1C332.7,306.4,332.8,306.1,333,305.7z"/>
			<path class="st3" d="M332.5,306.9c-0.2,0.3-0.4,0.6-0.7,1C331.7,307.3,331.8,306.9,332.5,306.9z"/>
			<path class="st2" d="M397.7,266c-2.3,8.9-4.5,17.5-6.7,26.4C387.9,282.2,390.2,273.6,397.7,266z"/>
			<path class="st2" d="M390.1,298.5c-0.3,0.1-0.6,0.2-0.9,0.3c-0.1,0-0.2-0.2-0.3-0.3c0.3-0.1,0.5-0.2,0.8-0.3
				C389.8,298.2,390,298.4,390.1,298.5z"/>
			<path class="st2" d="M130.7,327.6c-0.1,0-0.2,0-0.3,0c-0.2-5-0.6-10-0.7-15c0-2-0.6-3-2.6-3.4c-18.2-3.1-36.3-6.2-54.5-9.5
				c-2.4-0.4-3.2,0-3,2.6c0.7,9,1.3,17.9,1.8,26.9c0.1,2.3,1.1,3.1,3.2,3.5c17.4,3.6,34.8,7.2,52.1,10.9c2.9,0.6,4.3,0.4,4-3.2
				C130.5,336.3,130.7,332,130.7,327.6z"/>
			<path class="st6" d="M133.4,328.1c0,4.7-0.3,9.4,0.1,14.1c0.3,3.9-1.2,4.1-4.4,3.5c-18.9-4-37.8-8-56.7-11.9
				c-2.3-0.5-3.4-1.4-3.5-3.8c-0.5-9.8-1.2-19.5-1.9-29.3c-0.2-2.8,0.7-3.3,3.3-2.9c19.7,3.5,39.5,6.9,59.3,10.3
				c2.2,0.4,2.8,1.5,2.9,3.7c0.1,5.4,0.5,10.9,0.7,16.3C133.2,328.1,133.3,328.1,133.4,328.1z"/>
		</g>
		<path class="st2" d="M502,316.2"/>
		<polygon class="st5" points="75.3,199.9 53.6,203.4 53.6,339.4 232.6,380.7 501.5,313.3 501.5,235.6 509.7,233.4 507.1,189.1 
			484.7,186.1 		"/>
		<line class="st5" x1="232.6" y1="380.7" x2="229.6" y2="283.4"/>
		<path class="st5" d="M501.5,235.6l-268.9,45.9c0,0-169-25.4-172-27.6c-3-2.2-9.1-6.1-10-20c-0.9-13.9,0-29.5,0-29.5l179,20.6
			l277.7-33.3"/>
		<line class="st5" x1="229.6" y1="224.9" x2="232.6" y2="281.4"/>
		<path class="st5" d="M115.3,219.4c0,0-2.8,18.1,11.9,20.2c14.3,2.3,19.1-7.2,22.3-20.9l-34.4-7L115.3,219.4z"/>
		<path class="st5" d="M123.8,217.8c0,0,3.3,16.1,15,19.2c0.2,0.1,0.3,0.4,0,0.5c-4.3,1.5-25.7,7.4-22.7-18.7L123.8,217.8z"/>
		<path class="st2" d="M35.7,162.9l-12.2-23.6L64.8,3c0,0,170.9-3.7,183.5-2.9C260.8,1,310.4,3,310.4,3h149.3
			c0,0,12.2,13.2,12.3,16.2c0.1,3,6.9,13.5,6.9,13.5l-35.3,104.5L75.3,162.9c0,0-18.1,1.6-25.1,2.4S35.7,162.9,35.7,162.9z"/>
		<polygon class="st7" points="77.5,36.2 453.8,32.9 426,101.1 79.7,138.7 44.3,138.3 		"/>
		<path class="st8" d="M473.5,33.8h-19.7l-27.4,64.5l26.5-0.2c0,0,4.3-7.2,5.1-10.9c0,0,19.9-52.4,20.3-53.4
			C478.9,32.7,473.5,33.8,473.5,33.8z"/>
		<polyline class="st9" points="36.9,163.4 58.5,163.5 58.8,138.3 44.3,139.3 36.9,163.7 		"/>
		<polyline class="st10" points="35.7,164.3 23.5,139.3 64.8,3 459.6,3 478.9,32.7 423.4,161 		"/>
		<polyline class="st10" points="64.8,3 77.2,35.4 478.9,32.7 		"/>
		<polyline class="st10" points="77.2,35.4 36.1,163.7 423.4,161 411.4,135.2 452.9,32.9 		"/>
		<line class="st10" x1="44" y1="139.3" x2="411.4" y2="135.2"/>
		<g>
			<path class="st2" d="M100.5,103.1l384.9-4.8c-1.9,0.8,2.6,5.7,2.6,7.1c0,6.8,0.2,13.7,0.3,20.5c0.3,18.1-2.8,36-2.5,54.1
				l-1.3,20.4l-377.5,17.4l-41.3-21.2c-4.1-2.2-5.6-5.6-6.2-10.1c-3.4-26.8-0.5-52.9-1.5-79.8c-0.1-2.4,1.5-5.3-0.6-7.1L100.5,103.1
				z M161.8,159.9c0.3,0.6,0.5,1.2,0.9,1.7c1,1.3,1.4,3.9,3.7,3.1c2-0.7,3.4-3.3,3.2-5.1c-0.3-2.1-3-1-4.6-1.1
				c-1.1-0.1-2.3-0.2-3.2,0.8c-4.7-1.4-9.3-0.5-14.9,0c3,3,5.7,4,8.5,4.9C161.2,166.1,161.5,165.9,161.8,159.9z M162,184
				c1.8-1.3,3.3-0.1,5.1,0.5c4.1,1.4,8.5-0.4,9.2-3.4c3.3,3.1,9.7,4.3,12.1,2.3c1.1-1,1.2-10.9-0.3-11.4c-4.4-1.6-8.7-1.3-12.1,3.1
				c-0.1-1.6-0.1-2.6-0.2-3.6c-0.1-1.4,0.5-3.3-1.5-3.7c-2-0.4-1.8,2.1-2.6,2.7c-2.4,1.6-5.3,2.5-8.1,3.4c-0.7,0.3-0.9-0.9-1-1.4
				c-0.3-1.8,0.8-4.7-2.5-4.2c-2.1,0.3-5.8-1.3-5.9,3.3c0,1.5-1.4,0.9-2.3,1c-1.9,0.1-3.6,0.4-4.9,1.9c-0.4,0.5-1.4,1.8-1.7,0.5
				c-1.1-4-4.2-1.7-6.2-1.9c-4.1-0.4-7.3,2.8-7.2,6.4c0.2,4.3,3.6,7.1,8.1,6.6c3.9-0.4,7.5-2.1,11.8-0.7c2.2,0.8,5.6,0.3,8-1.6
				C160.3,185.5,161.1,185.4,162,184z M352.5,102.3c-1.2,0-2.3,0-3.5,0c-5.6,0.2-5.8,0.3-3.2,5.3c6,11.5,11.5,23.3,16.9,35.1
				c8,17.6,17.3,34.6,24.4,52.6c1.9,4.7,4.9,7.9,10.7,6.5c1.7-0.4,3.6-0.3,5.5-0.3c3-0.1,3-1.7,2.1-3.9c-1.4-3.1-2.8-6.1-4.2-9.2
				c-6.4-13.2-13.2-26.2-19-39.6c-5.4-12.4-11.9-24.2-16.8-36.9C361.8,102.5,361,102.2,352.5,102.3z M426.5,200.2
				c2.9-0.1,5.1-0.2,7.2-0.4c1.7-0.1,2.1-0.6,1.2-2.5c-5.7-12.2-10.8-24.7-16.7-36.8c-8.3-17.1-16.2-34.4-23.7-51.8
				c-1.9-4.3-4.3-8.2-10.2-6.7c-1.9,0.5-4,0.2-6,0.1c-3.6-0.2-3.8,1.3-2.5,4.2c7.6,16.3,15,32.7,22.6,49c6,12.8,12.6,25.4,18.2,38.4
				C419,199,421.1,202.2,426.5,200.2z M414.7,101.7c-2.6,0-4.4,0.2-6.2,0c-3.5-0.4-3.5,1.8-2.6,3.8c4.9,10.9,10,21.7,14.9,32.5
				c7.6,16.9,15.2,33.8,22.8,50.8c5,11.1,5.2,11.1,17.7,10c3.4-0.3,2.9-2,2.2-3.8c-2.4-5.9-5-11.8-7.7-17.6
				c-10-21.5-19.6-43.2-29.1-64.8C424.3,107.4,423.9,98.6,414.7,101.7z M85.7,195.2c0-11.3,0.2-22.7-0.1-34
				c-0.3-14.6-0.5-14.6-14.3-18.7c-0.2,0-0.3-0.1-0.5-0.2c-2.5-1.1-3.6-0.6-3.4,2.4c0.6,9,0.6,18,1.6,26.9
				c0.6,5.2-1.6,11.4,2.1,15.3c3.5,3.7,9.1,5.4,13.7,7.9C85.4,195.1,85.8,195.3,85.7,195.2z M356.3,98.1 M418.2,97.1
				c0.2,0,0.3,0,0.5,0 M387.6,97.5c0.2,0,0.3,0,0.5,0 M369.6,85.8 M164.8,145.7c2.2,0,4.3,0,6.5,0c2,0,3.2-0.9,3.2-2.9
				c-0.1-9.4-2.4-18.1-8.2-25.6c-1.2-1.5-2.3-1.8-3.5,0c-3.6,5.2-6.2,11.1-7.1,17.3C154.1,145,155.4,146.2,164.8,145.7z
				 M144.5,146.2c2.3,0,4.7,0.1,7,0c1.1-0.1,2.5,0.6,3.1-0.7c0.6-1.3-0.6-2.2-1.3-3c-4.7-5.3-10.5-9.2-17.2-11.5
				c-5.4-1.8-6.6-0.6-5.2,5.1C133.4,146.9,133.6,147,144.5,146.2z M185.7,145.4c10.7-0.5,11.3-1,13-10.9c0.1-0.5,0.1-1,0.1-1.5
				c0.5-3.5-0.4-5-4.3-3.7c-7.2,2.4-12.9,6.7-17.4,12.7c-0.6,0.8-1.6,1.5-1.1,2.6c0.5,1.2,1.7,0.7,2.6,0.7
				C181,145.4,183.3,145.4,185.7,145.4z M161.3,201.1c4.8-0.5,9.7-1.4,14.5-1.4c2.1,0,3-0.7,4-2c0.5-0.6,1.8-0.9,0.7-2.1
				c-0.6-0.6-0.9-0.8-1.9-0.7c-5.3,0.8-10.7,0.4-16.1,0.2c-4.4-0.2-8.8,0-13.3,0.2c-2.2,0.1-2.8,2-2.4,4.1c0.3,1.7,1.3,3,3.1,2.2
				C153.6,199.7,157.4,201.1,161.3,201.1z M165.7,146.9c0,0.5,0,1,0,1.6c-8.6,0-17.3,0-25.9,0c-1,0-2.7-0.5-2.8,1.1
				c-0.1,1.5,1.1,2.3,2.6,2.4c0.8,0,1.7,0.1,2.5,0c15.1-0.4,30.2-0.8,45.4-1.3c1.2,0,2.3-0.2,3.5-0.3c1.5-0.1,2.7-1,2.7-2.4
				c-0.1-2.2-1.9-1.1-3-1.1C182.3,146.9,174,146.9,165.7,146.9z M141.4,155.2c0.7,1.7,2,2.2,3.6,2.1c13.6-0.4,27.3-0.8,40.9-1.3
				c1.6,0,3.5-0.7,3.5-2.2c0-2.3-2.3-1.3-3.5-1.3c-13.1,0.3-26.3,0.7-39.4,1.2C144.7,153.9,142.8,153.4,141.4,155.2z M195.6,180.4
				c-1.3,0.8-1.9,0.1-2.6-0.3c-1.1-0.7-2.6-1.5-3.4,0.2c-0.7,1.3,0.6,2.9,1.4,3.4c2.3,1.5,4.7,1.1,7-0.7c2.1-1.6,2.5-3.4,1.3-5.6
				c-0.4-0.7-1.5-0.8-0.8-2.3c1.5-3-1.1-3.7-3.1-4.1c-2.7-0.6-5,0.2-5.9,3.1c-0.7,2.3,0.5,3.8,2.6,4.6
				C193.2,179.2,194.8,178.9,195.6,180.4z M184.3,158.4c-4.1,0-7.3-0.1-10.5,0c-1.3,0-3.3-0.6-3.4,1.7c-0.1,1.4-0.9,3.1,0.4,4.3
				c1.2,1,2.5,0.1,3.7-0.3C177.9,163,181,161.4,184.3,158.4z M152,191.3c12.4,1.8,24.8-0.8,37.3-0.8
				C176.9,189.2,164.5,192,152,191.3z"/>
			<path class="st6" d="M352.5,102.3c8.5-0.1,9.3,0.2,12.9,9.7c4.9,12.6,11.4,24.5,16.8,36.9c5.8,13.4,12.6,26.4,19,39.6
				c1.5,3,2.8,6.1,4.2,9.2c1,2.1,0.9,3.8-2.1,3.9c-1.8,0-3.7-0.1-5.5,0.3c-5.8,1.4-8.9-1.8-10.7-6.5c-7.1-18-16.4-35-24.4-52.6
				c-5.4-11.8-10.9-23.6-16.9-35.1c-2.6-5.1-2.4-5.2,3.2-5.3C350.2,102.3,351.3,102.3,352.5,102.3z"/>
			<path class="st6" d="M426.5,200.2c-5.4,2-7.5-1.2-9.8-6.5c-5.6-13-12.2-25.6-18.2-38.4c-7.6-16.3-15-32.7-22.6-49
				c-1.3-2.9-1.2-4.4,2.5-4.2c2,0.1,4.1,0.3,6-0.1c6-1.4,8.4,2.4,10.2,6.7c7.5,17.4,15.4,34.7,23.7,51.8c5.9,12.1,11,24.6,16.7,36.8
				c0.9,1.9,0.5,2.4-1.2,2.5C431.6,200,429.4,200.1,426.5,200.2z"/>
			<path class="st6" d="M414.7,101.7c9.1-3.1,9.6,5.7,11.9,10.8c9.6,21.7,19.1,43.4,29.1,64.8c2.7,5.8,5.3,11.7,7.7,17.6
				c0.7,1.8,1.2,3.5-2.2,3.8c-12.5,1.1-12.7,1.1-17.7-10c-7.6-16.9-15.1-33.9-22.8-50.8c-4.9-10.9-10.1-21.6-14.9-32.5
				c-0.9-2-0.9-4.2,2.6-3.8C410.3,101.9,412.1,101.7,414.7,101.7z"/>
			<path class="st6" d="M85.7,195.2c0.1,0-0.3-0.1-0.8-0.4c-4.7-2.6-10.2-4.2-13.7-7.9c-3.7-3.9-1.5-10.1-2.1-15.3
				c-1-8.9-1-17.9-1.6-26.9c-0.2-3.1,0.9-3.5,3.4-2.4c0.2,0.1,0.3,0.2,0.5,0.2c13.8,4.2,14,4.2,14.3,18.7
				C85.9,172.6,85.7,183.9,85.7,195.2z"/>
			<path class="st6" d="M326.2,4.7c9-3.6,9.1,5.8,11.9,10.6c4.5,7.8,2.6,4.9,6.6,13.1c1.7,3.5-2.1,2.4-5.8,3.3
				c-13.7,1.2-12.8-3.5-15.4-8.1c-2.9-6.6-2.4-6.4-5.2-13.1c-2.4-5.7-2.4-5.7,3.5-5.7C322.8,4.7,324,4.7,326.2,4.7z"/>
			<path class="st6" d="M383,4c9-0.2,8.8-0.1,12.3,8.3c3.8,9.3,3,5.9,7.2,15c1.3,2.8,0.8,4-2.3,3.9c-0.2,0-0.3,0-0.5,0
				c-12.8,0.7-11.9,1.7-14.4-1.3c-3-6.5-5.6-13.3-8.4-19.9c-2.6-5.9-2.6-5.9,3.2-6C381,4,382,4,383,4z"/>
			<path class="st6" d="M344.2,4.6c0.9-0.3,1.1-0.4,1.2-0.4c16.6-0.8,16.8-0.8,23,14.5c2.9,7.1,0,1.3,3.3,8.1
				c1.4,2.8,3.3,4.3,0.2,4.4c-0.2,0-2.7-0.3-2.9-0.3c-15.2-0.1-11.2,3-18.1-11.7C346.8,10.1,348.6,13.8,344.2,4.6z"/>
			<path class="st3" d="M159.6,183.9c-2.4,1.9-5.8,2.3-8,1.6c-4.3-1.5-7.9,0.2-11.8,0.7c-4.5,0.5-8-2.3-8.1-6.6
				c-0.1-3.6,3.1-6.8,7.2-6.4c2,0.2,5.1-2.1,6.2,1.9c0.4,1.2,1.3,0,1.7-0.5c1.3-1.5,3.1-1.8,4.9-1.9c0.9-0.1,2.3,0.5,2.3-1
				c0-4.6,3.8-2.9,5.9-3.3c3.2-0.5,2.2,2.4,2.5,4.2c0.1,0.6,0.2,1.7,1,1.4c2.8-0.9,5.7-1.8,8.1-3.4c0.8-0.5,0.6-3,2.6-2.7
				c2,0.4,1.4,2.3,1.5,3.7c0.1,1,0.1,2,0.2,3.6c3.4-4.5,7.7-4.7,12.1-3.1c1.4,0.5,1.4,10.4,0.3,11.4c-2.3,2-8.8,0.8-12.1-2.3
				c-0.7,3-5.1,4.8-9.2,3.4c-1.7-0.6-3.2-1.7-5.1-0.5c-0.8-3.4,0.3-7-1.9-10.3C159.9,177.1,159.7,180.5,159.6,183.9z M138.4,182.5
				c1.9-0.2,2.7-1.5,2.7-3.1c0-1.6-1.1-2.8-2.9-2.8c-1.7,0.1-2.7,1.1-2.6,2.9C135.8,181.4,136.9,182.2,138.4,182.5z M151.4,176.3
				c-1.4,0.1-2.4,1.1-2.4,2.8c0,1.5,0.8,2.6,2.3,2.7c1.7,0.1,2.9-0.8,3-2.6C154.4,177.7,153.6,176.4,151.4,176.3z M168.9,175.4
				c-1.2,0.5-2.5,1.3-2.4,3.1c0.1,1.7,1.3,2.6,3,2.5c1.6-0.1,2.4-1.1,2.3-2.6C171.8,176.7,171,175.6,168.9,175.4z M182.4,175.1
				c-1.6,0.1-2.6,1-2.7,2.7c0,1.5,0.8,2.6,2.2,2.7c2,0.2,3.1-1.3,3.1-3C185.2,176.2,184,175.3,182.4,175.1z"/>
			<path class="st6" d="M164.8,145.7c-9.4,0.4-10.7-0.7-9.2-11.3c0.9-6.2,3.5-12,7.1-17.3c1.2-1.8,2.3-1.5,3.5,0
				c5.8,7.6,8.1,16.2,8.2,25.6c0,2-1.1,3-3.2,2.9C169.1,145.7,167,145.7,164.8,145.7z"/>
			<path class="st6" d="M144.5,146.2c-10.9,0.8-11.1,0.6-13.6-10.2c-1.3-5.6-0.2-6.9,5.2-5.1c6.7,2.3,12.4,6.2,17.2,11.5
				c0.7,0.8,1.9,1.7,1.3,3c-0.6,1.3-2.1,0.7-3.1,0.7C149.2,146.3,146.8,146.2,144.5,146.2z"/>
			<path class="st6" d="M185.7,145.4c-2.3,0-4.7,0-7,0c-0.9,0-2.1,0.5-2.6-0.7c-0.5-1.1,0.5-1.8,1.1-2.6c4.5-6,10.1-10.4,17.4-12.7
				c4-1.3,4.8,0.2,4.3,3.7c-0.1,0.5-0.1,1-0.1,1.5C197,144.4,196.3,144.9,185.7,145.4z"/>
			<path class="st3" d="M161.3,201.1c-3.8,0-7.7-1.4-11.5,0.5c-1.8,0.9-2.7-0.5-3.1-2.2c-0.4-2.1,0.2-4,2.4-4.1
				c4.4-0.2,8.9-0.4,13.3-0.2c5.4,0.2,10.7,0.6,16.1-0.2c1.1-0.2,1.4,0.1,1.9,0.7c1.2,1.2-0.2,1.5-0.7,2.1c-1,1.2-1.8,2-4,2
				C170.9,199.7,166.1,200.6,161.3,201.1z"/>
			<path class="st3" d="M165.7,146.9c8.3,0,16.6,0,24.9,0c1.1,0,3-1.1,3,1.1c0,1.4-1.2,2.3-2.7,2.4c-1.2,0.1-2.3,0.3-3.5,0.3
				c-15.1,0.4-30.2,0.9-45.4,1.3c-0.8,0-1.7,0-2.5,0c-1.5-0.1-2.7-0.9-2.6-2.4c0.1-1.6,1.8-1.1,2.8-1.1c8.6-0.1,17.3,0,25.9,0
				C165.7,148,165.7,147.5,165.7,146.9z"/>
			<path class="st3" d="M141.4,155.2c1.3-1.7,3.3-1.3,5-1.3c13.1-0.5,26.3-0.9,39.4-1.2c1.2,0,3.5-1,3.5,1.3c0,1.5-1.8,2.1-3.5,2.2
				c-13.6,0.4-27.3,0.8-40.9,1.3C143.4,157.3,142.1,156.8,141.4,155.2z"/>
			<path class="st3" d="M195.6,180.4c-0.8-1.5-2.3-1.2-3.5-1.6c-2.1-0.9-3.3-2.3-2.6-4.6c0.9-2.9,3.2-3.7,5.9-3.1
				c2,0.4,4.6,1.1,3.1,4.1c-0.7,1.5,0.4,1.6,0.8,2.3c1.2,2.2,0.7,3.9-1.3,5.6c-2.3,1.8-4.7,2.2-7,0.7c-0.8-0.5-2.1-2.1-1.4-3.4
				c0.8-1.7,2.2-0.9,3.4-0.2C193.7,180.5,194.3,181.1,195.6,180.4z"/>
			<path class="st3" d="M161.8,159.9c-0.3,6-0.7,6.2-6.4,4.3c-2.8-0.9-5.6-1.9-8.5-4.9c5.6-0.5,10.2-1.4,14.9,0
				C161.9,159.5,161.9,159.7,161.8,159.9z"/>
			<path class="st6" d="M184.3,158.4c-3.3,3-6.4,4.7-9.9,5.7c-1.2,0.4-2.6,1.3-3.7,0.3c-1.3-1.2-0.5-2.8-0.4-4.3
				c0.1-2.3,2.1-1.7,3.4-1.7C177,158.3,180.2,158.4,184.3,158.4z"/>
			<path class="st3" d="M152,191.3c12.5,0.6,24.9-2.1,37.3-0.8C176.9,190.6,164.5,193.1,152,191.3z"/>
			<path class="st6" d="M161.8,159.9c0.1-0.2,0-0.4,0-0.6c0.9-0.9,2.1-0.8,3.2-0.8c1.7,0.1,4.3-0.9,4.6,1.1c0.2,1.8-1.2,4.3-3.2,5.1
				c-2.3,0.8-2.6-1.8-3.7-3.1C162.4,161.1,162.1,160.5,161.8,159.9z"/>
			<path class="st6" d="M159.6,183.9c0.2-3.4,0.3-6.7,0.5-10.1c2.3,3.3,1.1,6.9,1.9,10.3C161.1,185.4,160.3,185.5,159.6,183.9z"/>
			<path class="st2" d="M138.4,182.5c-1.6-0.3-2.6-1.1-2.7-2.9c-0.1-1.8,0.9-2.9,2.6-2.9c1.7-0.1,2.9,1.1,2.9,2.8
				C141.2,181,140.3,182.3,138.4,182.5z"/>
			<path class="st2" d="M151.4,176.3c2.2,0.1,3,1.3,2.9,3c-0.1,1.7-1.3,2.7-3,2.6c-1.6-0.1-2.3-1.3-2.3-2.7
				C149,177.4,150,176.4,151.4,176.3z"/>
			<path class="st2" d="M168.9,175.4c2,0.2,2.9,1.3,3,3c0.1,1.5-0.7,2.5-2.3,2.6c-1.8,0.1-2.9-0.8-3-2.5
				C166.4,176.8,167.7,176,168.9,175.4z"/>
			<path class="st2" d="M182.4,175.1c1.7,0.2,2.8,1,2.7,2.5c-0.1,1.7-1.1,3.2-3.1,3c-1.5-0.1-2.3-1.3-2.2-2.7
				C179.8,176.1,180.8,175.2,182.4,175.1z"/>
		</g>
		<polyline class="st11" points="485.4,98.3 484.5,200.4 107.1,217.8 60.6,190.8 57.5,99.6 		"/>
		<path class="st11" d="M99.2,103.1"/>
		<polygon class="st11" points="485.4,98.3 99.2,103.1 57.5,99.6 451,97.1 		"/>
		<line class="st11" x1="102.7" y1="103.1" x2="104.9" y2="215.2"/>
	</g>
</g>
</svg>
