<?xml version="1.0" encoding="utf-8"?>
<!-- Generator: Adobe Illustrator 24.2.1, SVG Export Plug-In . SVG Version: 6.00 Build 0)  -->
<svg version="1.1" id="Layer_1" xmlns="http://www.w3.org/2000/svg" xmlns:xlink="http://www.w3.org/1999/xlink" x="0px" y="0px"
	 viewBox="0 0 799.4 308.7" style="enable-background:new 0 0 799.4 308.7;" xml:space="preserve">
<style type="text/css">
	.st0{fill:#FFFFFF;}
</style>
<g>
	<path class="st0" d="M569,288.9c6.9-9.3,13.5-18,20.3-27.1c1.1,0.9,2.8,2.4,4.6,3.7c9.7,7.4,20.2,11.7,32.6,8.3
		c3.2-0.9,6.5-2.8,9-5.1c7.6-7.1,6.5-16.2-2.8-20.8c-5.2-2.6-10.9-4-16.4-6c-4.2-1.5-8.6-2.7-12.7-4.6c-4.1-1.8-7.8-4.3-12.2-6.8
		c-0.5,2-1.1,4.1-1.7,6.3c-10.7,42.7-42,68-86,68.9c-18.7,0.4-37.3,0.1-56,0.1c-1,0-1.9-0.2-3.2-0.4c2.3-12.3,4.5-24.3,6.9-37.7
		c-1.8,2.1-2.8,3.2-3.7,4.2c-20.5,24-46.3,37.3-78.2,36.7c-33.8-0.6-55.2-20.7-62.1-44.4c-0.2-0.6-0.6-1.1-1.1-2
		c-2.1,2.7-3.9,5.3-5.9,7.7c-24.4,28.5-54.8,42.6-92.6,35.9c-27.6-4.9-45.6-24.3-50.4-51.9c-0.1-0.6-0.3-1.2-0.9-2.9
		c-1.4,2.2-2.2,3.7-3.1,5.1c-19.1,29.8-46.2,47.1-81.6,48.4C21.5,306.3-9.4,265.9,4,217.3c6.4-23.3,20.2-41.3,40-54.9
		c1.5-1,2.9-2,5.3-3.6c-18.7-1-34.9-6.1-49.5-17.5c7.3-10.5,14.4-20.9,21.6-31.3c3.6,2.8,6.6,5.6,10,7.9c8.4,5.8,17.7,8.9,27.8,6.6
		c4.2-1,8.6-3.1,11.7-6.1c7.2-6.7,5.8-15.5-2.9-20.1c-3.6-2-7.7-3.2-11.6-4.6c-5.8-2.1-11.8-3.6-17.4-6c-15.3-6.2-21-16.1-19.2-32.8
		C25,7,73.8-12.1,112,8.1c1.2,0.6,2.4,2.9,2.2,4.1c-1.7,9.2-3.7,18.2-5.8,27.9c-8.4-6.4-17.9-8-27.6-6.9c-4.9,0.5-10.2,2.4-14.2,5.2
		c-7,5-6.1,13.3,1.5,17.4c4.8,2.6,10.2,4,15.3,6c5,1.9,10.2,3.3,14.9,5.6c16,7.7,22,20.1,18.8,37.7c-2.8,15.7-8.9,29.5-21.4,39.3
		c10.9,1.9,21.7,3.8,33.2,5.8c6.6-35.5,13.4-72,20.3-109c-10.6,0-20.7,0-31.4,0c2.2-11.2,4-21.8,6.2-32.3c0.2-1,2.7-2.1,4.2-2.1
		c9.5-0.2,19-0.1,28.5-0.1c25.3,0,50.7,0,76,0c1.8,0,3.5,0,6.2,0c-6.6,11.5-12.6,22.2-18.9,32.8c-0.6,1-2.8,1.5-4.2,1.5
		c-8.8,0.1-17.6,0.1-27.1,0.1c-6.2,33.2-12.3,66.3-18.5,99.3c0.3,0.1,0.5,0.2,0.8,0.3c0.9-1.5,1.9-3,2.8-4.5
		c24.3-41.3,48.7-82.6,72.8-124.1c2.4-4.2,5-5.8,9.8-5.5c6.8,0.4,13.7,0.3,20.5,0c3.1-0.1,4.3,1,4.9,4c7.6,36.3,15.3,72.6,23,108.9
		c0.4,1.8,0.8,3.5,2,5.4c7.3-39.3,14.6-78.6,21.9-117.5c0.7-0.4,0.8-0.6,1-0.6c24,0.3,48-0.6,71.9,1.3c27.5,2.2,46.1,23,47.3,50.7
		c1.3,31.8-8.2,59.8-32.8,81.3c-3.7,3.3-8.1,5.8-11.6,8.3c10.7,2.7,21.9,5.5,33.7,8.4c9.2-49.2,18.5-99.4,27.9-149.9
		c12.9,0,25.8,0,39.3,0c-9,48.6-18,96.8-27,145.4c10,0,19.2,0,29.1,0c-1.9-2.2-3.5-4-5-5.9c-8.7-10.8-10.5-23.4-8.3-36.4
		c5.9-33.8,12.3-67.5,18.5-101.2c0.1-0.6,0.3-1.2,0.5-2c12.9,0,25.7,0,39,0c-2,10.8-3.9,21.3-5.8,31.7c-4,21.8-8.1,43.5-12.1,65.3
		c-0.3,1.6-0.4,3.3-0.5,5c-0.4,10.6,2.4,16.3,9.1,18.6c9.1,3.1,20-0.1,24.7-8.3c2.9-5.1,4.9-11,6-16.8c5.9-30.4,11.5-60.8,17-91.3
		c0.6-3.6,2-4.6,5.5-4.5c10,0.2,20,0.1,30,0.1c1.5,0,2.9,0.2,4.7,0.3c-4.2,22.6-8.3,44.9-12.5,67.1c-2.2,11.8-4.2,23.6-6.9,35.3
		c-5.6,24.2-20.2,40.8-43.6,49.3c-0.6,0.2-1.1,0.4-2.5,1c11.3,6.1,18.7,14.9,23.8,27c4.8-10.8,11.2-19.1,19.8-25.5
		c0.5-0.3,0.5-1.4,0.6-2.1c7-37.6,13.9-75.3,20.9-112.9c2.1-11.5,4.3-22.9,6.4-34.4c0.3-1.6,0.7-3.2,1.1-5.2c13.2,0,26.2,0,39.1,0
		c10.8,0,11,0,12.3,10.5c3.3,27.1,6.4,54.2,9.5,81.4c0.3,2.5,0.6,4.9,1.2,8.8c1.3-2.6,2.1-4,2.9-5.5c14.6-30.3,29.3-60.5,43.8-90.8
		c1.6-3.3,3.4-4.6,7.1-4.5c13.5,0.2,27,0.1,40.5,0.1c1.6,0,3.2,0,5.3,0c-3.4,18.5-6.7,36.4-10,54.2c-5.9,31.6-11.9,63.1-17.6,94.8
		c-0.7,3.6-1.9,4.6-5.4,4.5c-10.3-0.2-20.6-0.1-31.6-0.1c7.4-37.6,14.6-74.7,21.9-111.8c-0.3-0.1-0.6-0.3-0.9-0.4
		c-0.7,1.5-1.5,2.9-2.2,4.4c-16.1,34.2-32.2,68.3-48.1,102.6c-1.9,4.2-4.2,5.8-8.6,5.2c-2.6-0.3-5.3-0.1-8.1-0.1
		c0,1.5,0.6,3.3-0.1,4.3c-6.1,9.3-12.3,18.5-18.8,28.1c-7-5.6-14.4-9.5-23.3-9.7c-6.1-0.1-11.6,1.3-16.1,5.5c-6,5.6-5.3,12.9,1.7,17
		c3.4,2,7.3,3.3,11,4.6c5,1.8,10.2,3.2,15.1,5.1c20.1,8,27.1,21.1,22.8,42.3c-8.2,40.4-52.2,62.8-89.8,45.6c-3.9-1.8-7.7-4-11.4-6.2
		C576.3,294.1,572.5,291.3,569,288.9z M165.9,199.9c-14.4,0-28.4,0-42.3-0.1c-0.9,0-2.1-1.4-2.6-2.4c-7.6-13.6-19.8-19.5-35.1-16.9
		c-25.3,4.3-43.3,24.9-45.1,51.4c-1.3,19.6,8.4,34.3,26.2,37.4c7.4,1.3,15.7,0.5,23.1-1.2c11.9-2.7,20.5-10.4,26.4-22.3
		c-15.7,0-30.6,0-45.8,0c1.7-9.1,3.5-17.6,4.8-26.1c0.6-4,2-5.2,6-5.1c25,0.2,50,0,75,0.2c4.2,0,6-1.3,7.5-5.2
		c15.7-38.6,55.8-63.4,97.4-60.5c2.4,0.2,4.8,0.5,7.7,0.8c-0.7-4.3-1.2-8-1.8-11.9c-17.2,0-33.8-0.1-50.5,0.1c-1.4,0-3.3,1.4-4,2.7
		c-3.1,5.1-6.1,10.4-8.7,15.7c-1.4,2.8-3.1,3.7-6.2,3.6c-15.3-0.2-30.7-0.1-46-0.1c-2.4,0-4.8,0-8.4,0
		C156.2,171,164.2,183.4,165.9,199.9z M344.6,238.3c0,25.4,19.4,40.8,44.1,35c22.7-5.3,41.1-29.2,40.9-53.1
		c-0.2-26-19.9-41.1-45.1-34.7C361.9,191.3,344.7,214.2,344.6,238.3z M231.2,273.4c3.1-0.4,6.4-0.4,9.4-1.2
		c23.1-6.2,35.7-22.3,40.3-44.9c2.8-14,0-27.2-11.4-36.8c-11.1-9.4-24.2-9.2-37.3-4.6c-21.8,7.6-37.4,32.4-35.3,55.5
		C198.6,260.9,211.9,273.1,231.2,273.4z M346,125.1c8,0,15.3,0.4,22.5-0.1c14.8-1.1,25.6-8.6,32.6-21.5c6.4-11.9,8.8-24.7,7.4-38.1
		c-1.4-13.7-9-22-22.8-23.6c-7.8-0.9-15.9-0.2-24.2-0.2C356.5,69.1,351.3,96.8,346,125.1z M490.3,271c8.2,0,15.7,0.5,23.1-0.1
		c13.8-1.1,24.3-8,31.1-19.9c7.2-12.6,10.2-26.4,8.1-40.9c-1.5-10.7-6.8-19.3-18-21.4c-9.3-1.8-19-1.7-28.6-2.4
		C500.6,215.4,495.4,243.2,490.3,271z M676.5,154.7c-3.6-36-7.1-71.8-10.6-107.6c-0.3,0-0.6,0-1,0c-5.9,34-11.9,68.1-17.8,101.7
		C657.2,150.9,666.6,152.8,676.5,154.7z M294.4,160.1c12.9,9.3,20.7,20.7,25.1,35.6c10.3-15.2,23-26.5,39.3-35.6
		C336.9,160.1,316.4,160.1,294.4,160.1z M230.9,106.5c11.1,0,21.2,0,31.8,0c-2-17.2-4-34.1-5.9-51c-0.4,0-0.8,0-1.1-0.1
		C247.6,72.2,239.4,89,230.9,106.5z M440.9,160.2c11.5,7.9,19.4,17.5,25.1,29.5c1.8-9.7,3.6-19.4,5.5-29.5
		C461.5,160.2,451.8,160.2,440.9,160.2z"/>
</g>
</svg>
